M48
METRIC,LZ,000.000
;FILE_FORMAT=3:3
;TYPE=PLATED
;Layer: PTH_Through
;EasyEDA v6.5.57, 2026-07-14 18:02:30
;21e4934d8d62410c90c9ba8735cb0da7,29b7a93777c744eeace5641c7525114a,10
;Gerber Generator version 0.2
;Holesize 1 = 0.701 mm
T01C0.701
;Holesize 2 = 0.889 mm
T02C0.889
;Holesize 3 = 2.301 mm
T03C2.301
;Holesize 4 = 2.501 mm
T04C2.501
%
G05
G90
T01
X015250Y-014000
X013750Y-014000
X012250Y-014000
X010750Y-014000
X009250Y-014000
X007750Y-014000
X006250Y-014000
X004750Y-014000
X015250Y-038000
X013750Y-038000
X012250Y-038000
X010750Y-038000
X009250Y-038000
X007750Y-038000
X006250Y-038000
X004750Y-038000
T02
X016290Y-024040
X016290Y-021500
X016290Y-018960
X016290Y-026960
X016290Y-029500
X016290Y-032040
X013290Y-024040
X013290Y-021500
X013290Y-018960
X013290Y-026960
X013290Y-029500
X013290Y-032040
X006850Y-026960
X006850Y-029500
X006850Y-032040
X006850Y-024040
X006850Y-021500
X006850Y-018960
X003850Y-026960
X003850Y-029500
X003850Y-032040
X003850Y-024040
X003850Y-021500
X003850Y-018960
T03
X006500Y-042500
X006500Y-047500
X013000Y-042500
X013000Y-047500
T04
X006500Y-003000
X006500Y-008000
X013000Y-003000
X013000Y-008000
M30
