G04 Layer: BottomLayer*
G04 EasyEDA v6.5.57, 2026-07-14 18:02:30*
G04 21e4934d8d62410c90c9ba8735cb0da7,29b7a93777c744eeace5641c7525114a,10*
G04 Gerber Generator version 0.2*
G04 Scale: 100 percent, Rotated: No, Reflected: No *
G04 Dimensions in millimeters *
G04 leading zeros omitted , absolute positions ,4 integer and 5 decimal *
%FSLAX45Y45*%
%MOMM*%

%ADD10C,0.3250*%
%ADD11C,3.5000*%
%ADD12O,1.099998X1.299997*%
%ADD13C,1.5748*%
%ADD14R,1.5748X1.5748*%
%ADD15R,0.0157X1.5748*%

%LPD*%
G36*
X-98755Y-5054092D02*
G01*
X-111252Y-5053126D01*
X-121513Y-5050790D01*
X-131368Y-5046980D01*
X-140614Y-5041849D01*
X-148996Y-5035448D01*
X-156362Y-5027879D01*
X-162610Y-5019395D01*
X-167589Y-5010048D01*
X-171196Y-5000142D01*
X-173329Y-4989779D01*
X-174091Y-4978755D01*
X-174091Y-101244D01*
X-173126Y-88747D01*
X-170789Y-78486D01*
X-166979Y-68630D01*
X-161848Y-59385D01*
X-155448Y-51003D01*
X-147878Y-43637D01*
X-139395Y-37388D01*
X-130048Y-32410D01*
X-120142Y-28803D01*
X-109829Y-26670D01*
X-98755Y-25908D01*
X2073757Y-25908D01*
X2086254Y-26873D01*
X2096516Y-29209D01*
X2106371Y-33020D01*
X2115616Y-38150D01*
X2123998Y-44551D01*
X2131364Y-52120D01*
X2137613Y-60604D01*
X2142591Y-69951D01*
X2146198Y-79857D01*
X2148332Y-90170D01*
X2149094Y-101244D01*
X2149094Y-4978755D01*
X2148128Y-4991252D01*
X2145792Y-5001514D01*
X2141982Y-5011369D01*
X2136851Y-5020614D01*
X2130450Y-5028996D01*
X2122881Y-5036362D01*
X2114397Y-5042611D01*
X2105050Y-5047589D01*
X2095144Y-5051196D01*
X2084832Y-5053330D01*
X2073757Y-5054092D01*
G37*

%LPC*%
G36*
X1977339Y-5005832D02*
G01*
X1981454Y-5005679D01*
X1994814Y-5004257D01*
X1998878Y-5003546D01*
X2011883Y-5000294D01*
X2015845Y-4999024D01*
X2028291Y-4993995D01*
X2032000Y-4992166D01*
X2043633Y-4985461D01*
X2047087Y-4983124D01*
X2057654Y-4974894D01*
X2060752Y-4972100D01*
X2070049Y-4962448D01*
X2072690Y-4959299D01*
X2080615Y-4948428D01*
X2082800Y-4944922D01*
X2089099Y-4933035D01*
X2090775Y-4929276D01*
X2095398Y-4916678D01*
X2096516Y-4912664D01*
X2099310Y-4899558D01*
X2099868Y-4895443D01*
X2100834Y-4882083D01*
X2100834Y-4877917D01*
X2099868Y-4864506D01*
X2099310Y-4860442D01*
X2096516Y-4847285D01*
X2095398Y-4843322D01*
X2090775Y-4830724D01*
X2089099Y-4826914D01*
X2082800Y-4815078D01*
X2080615Y-4811572D01*
X2072690Y-4800701D01*
X2070049Y-4797501D01*
X2060752Y-4787849D01*
X2057654Y-4785106D01*
X2047087Y-4776825D01*
X2043633Y-4774539D01*
X2032000Y-4767834D01*
X2028291Y-4766005D01*
X2015845Y-4760976D01*
X2011883Y-4759706D01*
X1998878Y-4756454D01*
X1994814Y-4755743D01*
X1981454Y-4754321D01*
X1977339Y-4754168D01*
X1963928Y-4754626D01*
X1959762Y-4755083D01*
X1946554Y-4757420D01*
X1942541Y-4758385D01*
X1929790Y-4762550D01*
X1925929Y-4764125D01*
X1913889Y-4769967D01*
X1910283Y-4772050D01*
X1899157Y-4779568D01*
X1895906Y-4782108D01*
X1885950Y-4791100D01*
X1883054Y-4794097D01*
X1874418Y-4804359D01*
X1871980Y-4807712D01*
X1864868Y-4819091D01*
X1862937Y-4822748D01*
X1857451Y-4834991D01*
X1856028Y-4838903D01*
X1852371Y-4851806D01*
X1851507Y-4855870D01*
X1849628Y-4869129D01*
X1849323Y-4873294D01*
X1849323Y-4886706D01*
X1849628Y-4890820D01*
X1851507Y-4904130D01*
X1852371Y-4908194D01*
X1856028Y-4921097D01*
X1857451Y-4924958D01*
X1862937Y-4937252D01*
X1864868Y-4940909D01*
X1871980Y-4952288D01*
X1874418Y-4955641D01*
X1883054Y-4965903D01*
X1885950Y-4968900D01*
X1895906Y-4977841D01*
X1899157Y-4980432D01*
X1910283Y-4987899D01*
X1913889Y-4989982D01*
X1925929Y-4995875D01*
X1929790Y-4997450D01*
X1942541Y-5001564D01*
X1946554Y-5002580D01*
X1959762Y-5004917D01*
X1963928Y-5005324D01*
G37*
G36*
X2336Y-5005832D02*
G01*
X6451Y-5005679D01*
X19812Y-5004257D01*
X23876Y-5003546D01*
X36931Y-5000294D01*
X40843Y-4999024D01*
X53289Y-4993995D01*
X56997Y-4992166D01*
X68630Y-4985461D01*
X72085Y-4983124D01*
X82651Y-4974894D01*
X85750Y-4972100D01*
X95046Y-4962448D01*
X97739Y-4959299D01*
X105613Y-4948428D01*
X107797Y-4944922D01*
X114096Y-4933035D01*
X115773Y-4929276D01*
X120396Y-4916678D01*
X121513Y-4912664D01*
X124307Y-4899558D01*
X124866Y-4895443D01*
X125831Y-4882083D01*
X125831Y-4877917D01*
X124866Y-4864506D01*
X124307Y-4860442D01*
X121513Y-4847285D01*
X120396Y-4843322D01*
X115773Y-4830724D01*
X114096Y-4826914D01*
X107797Y-4815078D01*
X105613Y-4811572D01*
X97739Y-4800701D01*
X95046Y-4797501D01*
X85750Y-4787849D01*
X82651Y-4785106D01*
X72085Y-4776825D01*
X68630Y-4774539D01*
X56997Y-4767834D01*
X53289Y-4766005D01*
X40843Y-4760976D01*
X36931Y-4759706D01*
X23876Y-4756454D01*
X19812Y-4755743D01*
X6451Y-4754321D01*
X2336Y-4754168D01*
X-11074Y-4754626D01*
X-15189Y-4755083D01*
X-28448Y-4757420D01*
X-32461Y-4758385D01*
X-45212Y-4762550D01*
X-49072Y-4764125D01*
X-61112Y-4769967D01*
X-64719Y-4772050D01*
X-75844Y-4779568D01*
X-79095Y-4782108D01*
X-89052Y-4791100D01*
X-91948Y-4794097D01*
X-100584Y-4804359D01*
X-103022Y-4807712D01*
X-110134Y-4819091D01*
X-112064Y-4822748D01*
X-117551Y-4834991D01*
X-118922Y-4838903D01*
X-122631Y-4851806D01*
X-123494Y-4855870D01*
X-125374Y-4869129D01*
X-125679Y-4873294D01*
X-125679Y-4886706D01*
X-125374Y-4890820D01*
X-123494Y-4904130D01*
X-122631Y-4908194D01*
X-118922Y-4921097D01*
X-117551Y-4924958D01*
X-112064Y-4937252D01*
X-110134Y-4940909D01*
X-103022Y-4952288D01*
X-100584Y-4955641D01*
X-91948Y-4965903D01*
X-89052Y-4968900D01*
X-79095Y-4977841D01*
X-75844Y-4980432D01*
X-64719Y-4987899D01*
X-61112Y-4989982D01*
X-49072Y-4995875D01*
X-45212Y-4997450D01*
X-32461Y-5001564D01*
X-28448Y-5002580D01*
X-15189Y-5004917D01*
X-11074Y-5005324D01*
G37*
G36*
X1393850Y-4927600D02*
G01*
X1410106Y-4918049D01*
X1425803Y-4906619D01*
X1440332Y-4893767D01*
X1453540Y-4879543D01*
X1465326Y-4864100D01*
X1475587Y-4847640D01*
X1477416Y-4843830D01*
X1393850Y-4843830D01*
G37*
G36*
X556158Y-4927600D02*
G01*
X556158Y-4843830D01*
X472592Y-4843830D01*
X474421Y-4847640D01*
X484682Y-4864100D01*
X496468Y-4879543D01*
X509676Y-4893767D01*
X524205Y-4906619D01*
X539902Y-4918049D01*
G37*
G36*
X743864Y-4927600D02*
G01*
X760069Y-4918049D01*
X775817Y-4906619D01*
X790346Y-4893767D01*
X803554Y-4879543D01*
X815340Y-4864100D01*
X825550Y-4847640D01*
X827430Y-4843830D01*
X743864Y-4843830D01*
G37*
G36*
X1206144Y-4927600D02*
G01*
X1206144Y-4843830D01*
X1122578Y-4843830D01*
X1124407Y-4847640D01*
X1134668Y-4864100D01*
X1146454Y-4879543D01*
X1159662Y-4893767D01*
X1174191Y-4906619D01*
X1189888Y-4918049D01*
G37*
G36*
X1122578Y-4656124D02*
G01*
X1206144Y-4656124D01*
X1206144Y-4572609D01*
X1198168Y-4576826D01*
X1181912Y-4587443D01*
X1166774Y-4599635D01*
X1152906Y-4613198D01*
X1140358Y-4628032D01*
X1129334Y-4643983D01*
G37*
G36*
X472592Y-4656124D02*
G01*
X556158Y-4656124D01*
X556158Y-4572609D01*
X548132Y-4576826D01*
X531926Y-4587443D01*
X516788Y-4599635D01*
X502869Y-4613198D01*
X490372Y-4628032D01*
X479348Y-4643983D01*
G37*
G36*
X743864Y-4656124D02*
G01*
X827430Y-4656124D01*
X820674Y-4643983D01*
X809650Y-4628032D01*
X797102Y-4613198D01*
X783234Y-4599635D01*
X768096Y-4587443D01*
X751840Y-4576826D01*
X743864Y-4572609D01*
G37*
G36*
X1393850Y-4656124D02*
G01*
X1477416Y-4656124D01*
X1470660Y-4643983D01*
X1459636Y-4628032D01*
X1447088Y-4613198D01*
X1433220Y-4599635D01*
X1418082Y-4587443D01*
X1401826Y-4576826D01*
X1393850Y-4572609D01*
G37*
G36*
X1300022Y-4450892D02*
G01*
X1319377Y-4449927D01*
X1338580Y-4447133D01*
X1357426Y-4442510D01*
X1375765Y-4436059D01*
X1393342Y-4427880D01*
X1410106Y-4418025D01*
X1425803Y-4406646D01*
X1440332Y-4393742D01*
X1453540Y-4379518D01*
X1465326Y-4364126D01*
X1475587Y-4347616D01*
X1484172Y-4330242D01*
X1491081Y-4312056D01*
X1496161Y-4293362D01*
X1499412Y-4274210D01*
X1500835Y-4254855D01*
X1500378Y-4235450D01*
X1498041Y-4216146D01*
X1493824Y-4197197D01*
X1487830Y-4178757D01*
X1480108Y-4160977D01*
X1470660Y-4144010D01*
X1459636Y-4128008D01*
X1447088Y-4113174D01*
X1433220Y-4099610D01*
X1418082Y-4087469D01*
X1401826Y-4076801D01*
X1384655Y-4067810D01*
X1366672Y-4060494D01*
X1348079Y-4054957D01*
X1329029Y-4051198D01*
X1309725Y-4049318D01*
X1290269Y-4049318D01*
X1270965Y-4051198D01*
X1251915Y-4054957D01*
X1233322Y-4060494D01*
X1215339Y-4067810D01*
X1198168Y-4076801D01*
X1181912Y-4087469D01*
X1166774Y-4099610D01*
X1152906Y-4113174D01*
X1140358Y-4128008D01*
X1129334Y-4144010D01*
X1119886Y-4160977D01*
X1112164Y-4178757D01*
X1106170Y-4197197D01*
X1101953Y-4216146D01*
X1099616Y-4235450D01*
X1099159Y-4254855D01*
X1100582Y-4274210D01*
X1103833Y-4293362D01*
X1108913Y-4312056D01*
X1115822Y-4330242D01*
X1124407Y-4347616D01*
X1134668Y-4364126D01*
X1146454Y-4379518D01*
X1159662Y-4393742D01*
X1174191Y-4406646D01*
X1189888Y-4418025D01*
X1206652Y-4427880D01*
X1224229Y-4436059D01*
X1242568Y-4442510D01*
X1261414Y-4447133D01*
X1280617Y-4449927D01*
G37*
G36*
X649986Y-4450892D02*
G01*
X669391Y-4449927D01*
X688594Y-4447133D01*
X707440Y-4442510D01*
X725779Y-4436059D01*
X743356Y-4427880D01*
X760069Y-4418025D01*
X775817Y-4406646D01*
X790346Y-4393742D01*
X803554Y-4379518D01*
X815340Y-4364126D01*
X825550Y-4347616D01*
X834186Y-4330242D01*
X841044Y-4312056D01*
X846175Y-4293362D01*
X849426Y-4274210D01*
X850849Y-4254855D01*
X850392Y-4235450D01*
X848004Y-4216146D01*
X843838Y-4197197D01*
X837844Y-4178757D01*
X830071Y-4160977D01*
X820674Y-4144010D01*
X809650Y-4128008D01*
X797102Y-4113174D01*
X783234Y-4099610D01*
X768096Y-4087469D01*
X751840Y-4076801D01*
X734669Y-4067810D01*
X716686Y-4060494D01*
X698093Y-4054957D01*
X679043Y-4051198D01*
X659688Y-4049318D01*
X640283Y-4049318D01*
X620979Y-4051198D01*
X601929Y-4054957D01*
X583336Y-4060494D01*
X565353Y-4067810D01*
X548132Y-4076801D01*
X531926Y-4087469D01*
X516788Y-4099610D01*
X502869Y-4113174D01*
X490372Y-4128008D01*
X479348Y-4144010D01*
X469900Y-4160977D01*
X462178Y-4178757D01*
X456184Y-4197197D01*
X451967Y-4216146D01*
X449630Y-4235450D01*
X449173Y-4254855D01*
X450545Y-4274210D01*
X453847Y-4293362D01*
X458927Y-4312056D01*
X465835Y-4330242D01*
X474421Y-4347616D01*
X484682Y-4364126D01*
X496468Y-4379518D01*
X509676Y-4393742D01*
X524205Y-4406646D01*
X539902Y-4418025D01*
X556615Y-4427880D01*
X574243Y-4436059D01*
X592531Y-4442510D01*
X611378Y-4447133D01*
X630631Y-4449927D01*
G37*
G36*
X474980Y-3890873D02*
G01*
X486511Y-3890060D01*
X497789Y-3887622D01*
X508609Y-3883558D01*
X518718Y-3878021D01*
X527964Y-3871112D01*
X536143Y-3862933D01*
X541883Y-3855262D01*
X544626Y-3852722D01*
X548132Y-3851401D01*
X551891Y-3851401D01*
X555345Y-3852722D01*
X558139Y-3855262D01*
X563880Y-3862933D01*
X572058Y-3871112D01*
X581253Y-3878021D01*
X591413Y-3883558D01*
X602234Y-3887622D01*
X613511Y-3890060D01*
X624992Y-3890873D01*
X636524Y-3890060D01*
X647801Y-3887622D01*
X658622Y-3883558D01*
X668731Y-3878021D01*
X677976Y-3871112D01*
X686155Y-3862933D01*
X691845Y-3855313D01*
X694639Y-3852773D01*
X698144Y-3851401D01*
X701852Y-3851401D01*
X705358Y-3852773D01*
X708152Y-3855313D01*
X713841Y-3862933D01*
X722020Y-3871112D01*
X731266Y-3878021D01*
X741375Y-3883558D01*
X752195Y-3887622D01*
X763473Y-3890060D01*
X775004Y-3890873D01*
X786485Y-3890060D01*
X797763Y-3887622D01*
X808583Y-3883558D01*
X818743Y-3878021D01*
X827938Y-3871112D01*
X836117Y-3862933D01*
X841857Y-3855262D01*
X844651Y-3852722D01*
X848106Y-3851401D01*
X851865Y-3851401D01*
X855370Y-3852722D01*
X858113Y-3855262D01*
X863853Y-3862933D01*
X872032Y-3871112D01*
X881278Y-3878021D01*
X891387Y-3883558D01*
X902208Y-3887622D01*
X913485Y-3890060D01*
X925017Y-3890873D01*
X936498Y-3890060D01*
X947775Y-3887622D01*
X958596Y-3883558D01*
X968756Y-3878021D01*
X977950Y-3871112D01*
X986129Y-3862933D01*
X991869Y-3855313D01*
X994613Y-3852773D01*
X998118Y-3851401D01*
X1001877Y-3851401D01*
X1005382Y-3852773D01*
X1008126Y-3855313D01*
X1013866Y-3862933D01*
X1022045Y-3871112D01*
X1031240Y-3878021D01*
X1041400Y-3883558D01*
X1052220Y-3887622D01*
X1063498Y-3890060D01*
X1074978Y-3890873D01*
X1086510Y-3890060D01*
X1097788Y-3887622D01*
X1108608Y-3883558D01*
X1118717Y-3878021D01*
X1127963Y-3871112D01*
X1136142Y-3862933D01*
X1141831Y-3855313D01*
X1144625Y-3852773D01*
X1148130Y-3851401D01*
X1151839Y-3851401D01*
X1155344Y-3852773D01*
X1158138Y-3855313D01*
X1163828Y-3862933D01*
X1172006Y-3871112D01*
X1181252Y-3878021D01*
X1191361Y-3883558D01*
X1202182Y-3887622D01*
X1213459Y-3890060D01*
X1224991Y-3890873D01*
X1236472Y-3890060D01*
X1247749Y-3887622D01*
X1258570Y-3883558D01*
X1268730Y-3878021D01*
X1277924Y-3871112D01*
X1286103Y-3862933D01*
X1291844Y-3855262D01*
X1294638Y-3852722D01*
X1298092Y-3851401D01*
X1301851Y-3851401D01*
X1305356Y-3852722D01*
X1308100Y-3855262D01*
X1313840Y-3862933D01*
X1322019Y-3871112D01*
X1331264Y-3878021D01*
X1341374Y-3883558D01*
X1352194Y-3887622D01*
X1363472Y-3890060D01*
X1375003Y-3890873D01*
X1386484Y-3890060D01*
X1397762Y-3887622D01*
X1408582Y-3883558D01*
X1418742Y-3878021D01*
X1427937Y-3871112D01*
X1436116Y-3862933D01*
X1441856Y-3855262D01*
X1444650Y-3852722D01*
X1448104Y-3851401D01*
X1451864Y-3851401D01*
X1455369Y-3852722D01*
X1458112Y-3855262D01*
X1463852Y-3862933D01*
X1472031Y-3871112D01*
X1481277Y-3878021D01*
X1491386Y-3883558D01*
X1502206Y-3887622D01*
X1513484Y-3890060D01*
X1525016Y-3890873D01*
X1536496Y-3890060D01*
X1547774Y-3887622D01*
X1558594Y-3883558D01*
X1568754Y-3878021D01*
X1577949Y-3871112D01*
X1586128Y-3862933D01*
X1593037Y-3853738D01*
X1598574Y-3843578D01*
X1602587Y-3832758D01*
X1605076Y-3821480D01*
X1605889Y-3809644D01*
X1605889Y-3790340D01*
X1605076Y-3778504D01*
X1602587Y-3767226D01*
X1598574Y-3756406D01*
X1593037Y-3746246D01*
X1586128Y-3737051D01*
X1577949Y-3728872D01*
X1568754Y-3721963D01*
X1558594Y-3716426D01*
X1547774Y-3712362D01*
X1536496Y-3709924D01*
X1525016Y-3709111D01*
X1513484Y-3709924D01*
X1503273Y-3712159D01*
X1499920Y-3712311D01*
X1496720Y-3711346D01*
X1493926Y-3709415D01*
X1445209Y-3660648D01*
X1438452Y-3655110D01*
X1431137Y-3651199D01*
X1423263Y-3648811D01*
X1414526Y-3647948D01*
X1208684Y-3647948D01*
X1204772Y-3647186D01*
X1201470Y-3644950D01*
X1179220Y-3622598D01*
X1177036Y-3619296D01*
X1176274Y-3615436D01*
X1176274Y-3431590D01*
X1177036Y-3427679D01*
X1179220Y-3424377D01*
X1230426Y-3373069D01*
X1233728Y-3370834D01*
X1237640Y-3370072D01*
X1716532Y-3370072D01*
X1725269Y-3369208D01*
X1733143Y-3366820D01*
X1740458Y-3362909D01*
X1747215Y-3357372D01*
X1795525Y-3309061D01*
X1801063Y-3302304D01*
X1804974Y-3294989D01*
X1807362Y-3287115D01*
X1808225Y-3278378D01*
X1808225Y-2918460D01*
X1807362Y-2909722D01*
X1804974Y-2901848D01*
X1801063Y-2894533D01*
X1795525Y-2887776D01*
X1698193Y-2790444D01*
X1695145Y-2786735D01*
X1694129Y-2782519D01*
X1694992Y-2778201D01*
X1697583Y-2774696D01*
X1702968Y-2769971D01*
X1712010Y-2759710D01*
X1719580Y-2748330D01*
X1722831Y-2741726D01*
X1674723Y-2741726D01*
X1674723Y-2767584D01*
X1673961Y-2771495D01*
X1671726Y-2774797D01*
X1668424Y-2776982D01*
X1664563Y-2777744D01*
X1593443Y-2777744D01*
X1589532Y-2776982D01*
X1586230Y-2774797D01*
X1584045Y-2771495D01*
X1583283Y-2767584D01*
X1583283Y-2741726D01*
X1535125Y-2741726D01*
X1538376Y-2748330D01*
X1548993Y-2764231D01*
X1549552Y-2768041D01*
X1548638Y-2771800D01*
X1546453Y-2774950D01*
X1543202Y-2777032D01*
X1539392Y-2777744D01*
X1418590Y-2777744D01*
X1414780Y-2777032D01*
X1411579Y-2774950D01*
X1409344Y-2771800D01*
X1408430Y-2768041D01*
X1408988Y-2764231D01*
X1419606Y-2748330D01*
X1422857Y-2741726D01*
X1374698Y-2741726D01*
X1374698Y-2767584D01*
X1373936Y-2771495D01*
X1371752Y-2774797D01*
X1368450Y-2776982D01*
X1364538Y-2777744D01*
X1293418Y-2777744D01*
X1289558Y-2776982D01*
X1286256Y-2774797D01*
X1284071Y-2771495D01*
X1283258Y-2767584D01*
X1283258Y-2741726D01*
X1235151Y-2741726D01*
X1236573Y-2746451D01*
X1235964Y-2750515D01*
X1233830Y-2753969D01*
X1230477Y-2756306D01*
X1226464Y-2757170D01*
X1222451Y-2756357D01*
X1219098Y-2754071D01*
X1166926Y-2699918D01*
X1164793Y-2696667D01*
X1164082Y-2692857D01*
X1164082Y-2114651D01*
X1164844Y-2110740D01*
X1167028Y-2107438D01*
X1197356Y-2077110D01*
X1200658Y-2074925D01*
X1204569Y-2074164D01*
X1235100Y-2074164D01*
X1239367Y-2075078D01*
X1242822Y-2077720D01*
X1244854Y-2081580D01*
X1245158Y-2085898D01*
X1243533Y-2089962D01*
X1238402Y-2097684D01*
X1232357Y-2109978D01*
X1227937Y-2122932D01*
X1225245Y-2136343D01*
X1224381Y-2150008D01*
X1225245Y-2163673D01*
X1227937Y-2177084D01*
X1232357Y-2190038D01*
X1238402Y-2202332D01*
X1245971Y-2213711D01*
X1255014Y-2223973D01*
X1265326Y-2233015D01*
X1276705Y-2240584D01*
X1288948Y-2246680D01*
X1301902Y-2251049D01*
X1315364Y-2253742D01*
X1328978Y-2254605D01*
X1342644Y-2253742D01*
X1356055Y-2251049D01*
X1369060Y-2246680D01*
X1381302Y-2240584D01*
X1392682Y-2233015D01*
X1402994Y-2223973D01*
X1411986Y-2213711D01*
X1419606Y-2202332D01*
X1425651Y-2190038D01*
X1430070Y-2177084D01*
X1432712Y-2163673D01*
X1433626Y-2150008D01*
X1432712Y-2136343D01*
X1430070Y-2122932D01*
X1425651Y-2109978D01*
X1419606Y-2097684D01*
X1414424Y-2089962D01*
X1412849Y-2085898D01*
X1413103Y-2081580D01*
X1415186Y-2077720D01*
X1418640Y-2075078D01*
X1422908Y-2074164D01*
X1471422Y-2074164D01*
X1480108Y-2073300D01*
X1487982Y-2070912D01*
X1495298Y-2067052D01*
X1502054Y-2061464D01*
X1560068Y-2003602D01*
X1563319Y-2001418D01*
X1567230Y-2000656D01*
X1707184Y-2000656D01*
X1713484Y-1999945D01*
X1718970Y-1998014D01*
X1723847Y-1994916D01*
X1727962Y-1990852D01*
X1731010Y-1985924D01*
X1732940Y-1980488D01*
X1733651Y-1974189D01*
X1733651Y-1817827D01*
X1732940Y-1811528D01*
X1731010Y-1806041D01*
X1727962Y-1801164D01*
X1723847Y-1797050D01*
X1718970Y-1793951D01*
X1713484Y-1792071D01*
X1707184Y-1791360D01*
X1550822Y-1791360D01*
X1544523Y-1792071D01*
X1539036Y-1793951D01*
X1534160Y-1797050D01*
X1530045Y-1801164D01*
X1526946Y-1806041D01*
X1525066Y-1811528D01*
X1524355Y-1817827D01*
X1524355Y-1915922D01*
X1523593Y-1919782D01*
X1521358Y-1923084D01*
X1457452Y-1986889D01*
X1454150Y-1989074D01*
X1450289Y-1989836D01*
X1443228Y-1989836D01*
X1439113Y-1988972D01*
X1435658Y-1986432D01*
X1433576Y-1982774D01*
X1433169Y-1978558D01*
X1433626Y-1974189D01*
X1433626Y-1817827D01*
X1432915Y-1811528D01*
X1431036Y-1806041D01*
X1427937Y-1801164D01*
X1423873Y-1797050D01*
X1418945Y-1793951D01*
X1413510Y-1792071D01*
X1407160Y-1791360D01*
X1250848Y-1791360D01*
X1244498Y-1792071D01*
X1239062Y-1793951D01*
X1234135Y-1797050D01*
X1230071Y-1801164D01*
X1226972Y-1806041D01*
X1225042Y-1811528D01*
X1224330Y-1817827D01*
X1224330Y-1974189D01*
X1224838Y-1978558D01*
X1224432Y-1982774D01*
X1222298Y-1986432D01*
X1218895Y-1988972D01*
X1214729Y-1989836D01*
X1183386Y-1989836D01*
X1174648Y-1990699D01*
X1166774Y-1993087D01*
X1159459Y-1996998D01*
X1152702Y-2002536D01*
X1124508Y-2030780D01*
X1121206Y-2032965D01*
X1117295Y-2033727D01*
X1113434Y-2032965D01*
X1110132Y-2030780D01*
X1107948Y-2027478D01*
X1107135Y-2023567D01*
X1107135Y-1731670D01*
X1107948Y-1727809D01*
X1110132Y-1724507D01*
X1344015Y-1490624D01*
X1346758Y-1488643D01*
X1350010Y-1487678D01*
X1353362Y-1487830D01*
X1363472Y-1490065D01*
X1375003Y-1490878D01*
X1386484Y-1490065D01*
X1397762Y-1487627D01*
X1408582Y-1483563D01*
X1418742Y-1478026D01*
X1427937Y-1471117D01*
X1436116Y-1462938D01*
X1441856Y-1455267D01*
X1444650Y-1452727D01*
X1448104Y-1451406D01*
X1451864Y-1451406D01*
X1455369Y-1452727D01*
X1458112Y-1455267D01*
X1463852Y-1462938D01*
X1472031Y-1471117D01*
X1481277Y-1478026D01*
X1491386Y-1483563D01*
X1502206Y-1487627D01*
X1513484Y-1490065D01*
X1525016Y-1490878D01*
X1536496Y-1490065D01*
X1547774Y-1487627D01*
X1558594Y-1483563D01*
X1568754Y-1478026D01*
X1577949Y-1471117D01*
X1586128Y-1462938D01*
X1593037Y-1453743D01*
X1598574Y-1443583D01*
X1602587Y-1432763D01*
X1605076Y-1421485D01*
X1605889Y-1409649D01*
X1605889Y-1390345D01*
X1605076Y-1378508D01*
X1602587Y-1367231D01*
X1598574Y-1356410D01*
X1593037Y-1346250D01*
X1586128Y-1337056D01*
X1577949Y-1328877D01*
X1568754Y-1321968D01*
X1558594Y-1316431D01*
X1547774Y-1312367D01*
X1536496Y-1309928D01*
X1525016Y-1309116D01*
X1513484Y-1309928D01*
X1502206Y-1312367D01*
X1491386Y-1316431D01*
X1481277Y-1321968D01*
X1472031Y-1328877D01*
X1463852Y-1337056D01*
X1458112Y-1344726D01*
X1455369Y-1347266D01*
X1451864Y-1348587D01*
X1448104Y-1348587D01*
X1444650Y-1347266D01*
X1441856Y-1344726D01*
X1436116Y-1337056D01*
X1427937Y-1328877D01*
X1418742Y-1321968D01*
X1408582Y-1316431D01*
X1397762Y-1312367D01*
X1386484Y-1309928D01*
X1375003Y-1309116D01*
X1363472Y-1309928D01*
X1352194Y-1312367D01*
X1341374Y-1316431D01*
X1331264Y-1321968D01*
X1322019Y-1328877D01*
X1313840Y-1337056D01*
X1308100Y-1344726D01*
X1305356Y-1347266D01*
X1301851Y-1348587D01*
X1298092Y-1348587D01*
X1294638Y-1347266D01*
X1291844Y-1344726D01*
X1286103Y-1337056D01*
X1277924Y-1328877D01*
X1268730Y-1321968D01*
X1258570Y-1316431D01*
X1247749Y-1312367D01*
X1236472Y-1309928D01*
X1224991Y-1309116D01*
X1213459Y-1309928D01*
X1202182Y-1312367D01*
X1191361Y-1316431D01*
X1181252Y-1321968D01*
X1172006Y-1328877D01*
X1163828Y-1337056D01*
X1158138Y-1344676D01*
X1155344Y-1347216D01*
X1151839Y-1348587D01*
X1148130Y-1348587D01*
X1144625Y-1347216D01*
X1141831Y-1344676D01*
X1136142Y-1337056D01*
X1127963Y-1328877D01*
X1118717Y-1321968D01*
X1108608Y-1316431D01*
X1097788Y-1312367D01*
X1086510Y-1309928D01*
X1074978Y-1309116D01*
X1063498Y-1309928D01*
X1052220Y-1312367D01*
X1041400Y-1316431D01*
X1031240Y-1321968D01*
X1022045Y-1328877D01*
X1013866Y-1337056D01*
X1008126Y-1344676D01*
X1005382Y-1347216D01*
X1001877Y-1348587D01*
X998118Y-1348587D01*
X994613Y-1347216D01*
X991869Y-1344676D01*
X986129Y-1337056D01*
X977950Y-1328877D01*
X968756Y-1321968D01*
X958596Y-1316431D01*
X947775Y-1312367D01*
X936498Y-1309928D01*
X925017Y-1309116D01*
X913485Y-1309928D01*
X902208Y-1312367D01*
X891387Y-1316431D01*
X881278Y-1321968D01*
X872032Y-1328877D01*
X863853Y-1337056D01*
X858113Y-1344726D01*
X855370Y-1347266D01*
X851865Y-1348587D01*
X848106Y-1348587D01*
X844651Y-1347266D01*
X841857Y-1344726D01*
X836117Y-1337056D01*
X827938Y-1328877D01*
X818743Y-1321968D01*
X808583Y-1316431D01*
X797763Y-1312367D01*
X786485Y-1309928D01*
X775004Y-1309116D01*
X763473Y-1309928D01*
X752195Y-1312367D01*
X741375Y-1316431D01*
X731266Y-1321968D01*
X722020Y-1328877D01*
X713841Y-1337056D01*
X708152Y-1344676D01*
X705358Y-1347216D01*
X701852Y-1348587D01*
X698144Y-1348587D01*
X694639Y-1347216D01*
X691845Y-1344676D01*
X686155Y-1337056D01*
X677976Y-1328877D01*
X668731Y-1321968D01*
X658622Y-1316431D01*
X647801Y-1312367D01*
X636524Y-1309928D01*
X624992Y-1309116D01*
X613511Y-1309928D01*
X602234Y-1312367D01*
X591413Y-1316431D01*
X581253Y-1321968D01*
X572058Y-1328877D01*
X563880Y-1337056D01*
X558139Y-1344726D01*
X555345Y-1347266D01*
X551891Y-1348587D01*
X548132Y-1348587D01*
X544626Y-1347266D01*
X541883Y-1344726D01*
X536143Y-1337056D01*
X527964Y-1328877D01*
X518718Y-1321968D01*
X508609Y-1316431D01*
X497789Y-1312367D01*
X486511Y-1309928D01*
X474980Y-1309116D01*
X463499Y-1309928D01*
X452221Y-1312367D01*
X441401Y-1316431D01*
X431241Y-1321968D01*
X422046Y-1328877D01*
X413867Y-1337056D01*
X406958Y-1346250D01*
X401421Y-1356410D01*
X397408Y-1367231D01*
X394919Y-1378508D01*
X394106Y-1390345D01*
X394106Y-1409649D01*
X394919Y-1421485D01*
X397408Y-1432763D01*
X401421Y-1443583D01*
X406958Y-1453743D01*
X413867Y-1462938D01*
X422046Y-1471117D01*
X431241Y-1478026D01*
X441401Y-1483563D01*
X452221Y-1487627D01*
X463499Y-1490065D01*
X474980Y-1490878D01*
X486511Y-1490065D01*
X497789Y-1487627D01*
X508609Y-1483563D01*
X518718Y-1478026D01*
X527964Y-1471117D01*
X536143Y-1462938D01*
X541883Y-1455267D01*
X544626Y-1452727D01*
X548132Y-1451406D01*
X551891Y-1451406D01*
X555345Y-1452727D01*
X558139Y-1455267D01*
X563880Y-1462938D01*
X572058Y-1471117D01*
X581253Y-1478026D01*
X591413Y-1483563D01*
X602234Y-1487627D01*
X613511Y-1490065D01*
X624992Y-1490878D01*
X636524Y-1490065D01*
X646633Y-1487830D01*
X650036Y-1487678D01*
X653237Y-1488643D01*
X655980Y-1490573D01*
X872845Y-1707489D01*
X875080Y-1710740D01*
X875842Y-1714652D01*
X875842Y-2051710D01*
X875080Y-2055571D01*
X872845Y-2058873D01*
X869594Y-2061057D01*
X865682Y-2061870D01*
X861771Y-2061057D01*
X858519Y-2058873D01*
X791159Y-1991512D01*
X789025Y-1988413D01*
X788212Y-1984756D01*
X788924Y-1980488D01*
X789635Y-1974189D01*
X789635Y-1817827D01*
X788924Y-1811528D01*
X787044Y-1806041D01*
X783945Y-1801164D01*
X779830Y-1797050D01*
X774954Y-1793951D01*
X769467Y-1792071D01*
X763168Y-1791360D01*
X606806Y-1791360D01*
X600506Y-1792071D01*
X595020Y-1793951D01*
X590143Y-1797050D01*
X586028Y-1801164D01*
X582980Y-1806041D01*
X581050Y-1811528D01*
X580339Y-1817827D01*
X580339Y-1965655D01*
X579577Y-1969566D01*
X577392Y-1972868D01*
X574090Y-1975053D01*
X570179Y-1975815D01*
X541680Y-1975815D01*
X537768Y-1975053D01*
X534466Y-1972868D01*
X492607Y-1931009D01*
X490423Y-1927707D01*
X489661Y-1923796D01*
X489661Y-1817827D01*
X488950Y-1811528D01*
X487019Y-1806041D01*
X483920Y-1801164D01*
X479856Y-1797050D01*
X474929Y-1793951D01*
X469493Y-1792071D01*
X463143Y-1791360D01*
X306832Y-1791360D01*
X300482Y-1792071D01*
X295046Y-1793951D01*
X290169Y-1797050D01*
X286054Y-1801164D01*
X282956Y-1806041D01*
X281076Y-1811528D01*
X280365Y-1817827D01*
X280365Y-1974189D01*
X281076Y-1980488D01*
X282956Y-1985924D01*
X286054Y-1990852D01*
X290169Y-1994916D01*
X295046Y-1998014D01*
X300482Y-1999945D01*
X306832Y-2000656D01*
X438810Y-2000656D01*
X442722Y-2001418D01*
X446024Y-2003602D01*
X489813Y-2047443D01*
X496620Y-2053031D01*
X503885Y-2056892D01*
X511759Y-2059279D01*
X520496Y-2060143D01*
X602488Y-2060143D01*
X606298Y-2060905D01*
X609549Y-2062988D01*
X611733Y-2066137D01*
X612648Y-2069896D01*
X612089Y-2073706D01*
X610158Y-2077008D01*
X601980Y-2086305D01*
X594410Y-2097684D01*
X588314Y-2109978D01*
X583946Y-2122932D01*
X581253Y-2136343D01*
X580390Y-2150008D01*
X581253Y-2163673D01*
X583946Y-2177084D01*
X588314Y-2190038D01*
X594410Y-2202332D01*
X601980Y-2213711D01*
X611022Y-2223973D01*
X621284Y-2233015D01*
X632663Y-2240584D01*
X644956Y-2246680D01*
X657910Y-2251049D01*
X671322Y-2253742D01*
X684987Y-2254605D01*
X698652Y-2253742D01*
X712063Y-2251049D01*
X725017Y-2246680D01*
X737311Y-2240584D01*
X748690Y-2233015D01*
X759002Y-2223973D01*
X767994Y-2213711D01*
X775614Y-2202332D01*
X781659Y-2190038D01*
X786079Y-2177084D01*
X788720Y-2163673D01*
X789635Y-2150008D01*
X788720Y-2136343D01*
X788314Y-2134260D01*
X788365Y-2129942D01*
X790194Y-2126081D01*
X793496Y-2123287D01*
X797610Y-2122119D01*
X801878Y-2122728D01*
X805484Y-2125065D01*
X813866Y-2133498D01*
X816051Y-2136800D01*
X816864Y-2140661D01*
X816864Y-2741320D01*
X816051Y-2745232D01*
X813866Y-2748483D01*
X785520Y-2776880D01*
X782218Y-2779064D01*
X778306Y-2779826D01*
X772769Y-2779826D01*
X768959Y-2779115D01*
X765708Y-2777032D01*
X763524Y-2773883D01*
X762609Y-2770124D01*
X763168Y-2766314D01*
X765098Y-2762961D01*
X767994Y-2759710D01*
X775614Y-2748330D01*
X778865Y-2741726D01*
X730707Y-2741726D01*
X730707Y-2769666D01*
X729945Y-2773578D01*
X727760Y-2776880D01*
X724458Y-2779064D01*
X720547Y-2779826D01*
X649427Y-2779826D01*
X645566Y-2779064D01*
X642264Y-2776880D01*
X640029Y-2773578D01*
X639267Y-2769666D01*
X639267Y-2741726D01*
X591159Y-2741726D01*
X594410Y-2748330D01*
X601980Y-2759710D01*
X606298Y-2764637D01*
X608330Y-2768142D01*
X608787Y-2772105D01*
X607720Y-2776016D01*
X605180Y-2779115D01*
X601624Y-2781046D01*
X594868Y-2783078D01*
X587603Y-2786989D01*
X580847Y-2792526D01*
X511556Y-2861818D01*
X505968Y-2868574D01*
X502107Y-2875889D01*
X499719Y-2883763D01*
X498856Y-2892501D01*
X498856Y-2901238D01*
X497840Y-2905607D01*
X495046Y-2909163D01*
X490982Y-2911094D01*
X486460Y-2911144D01*
X482396Y-2909214D01*
X479551Y-2905709D01*
X475589Y-2897682D01*
X468020Y-2886303D01*
X458978Y-2875991D01*
X448665Y-2866999D01*
X437286Y-2859379D01*
X425043Y-2853334D01*
X412089Y-2848914D01*
X398678Y-2846273D01*
X385013Y-2845358D01*
X371348Y-2846273D01*
X357936Y-2848914D01*
X344982Y-2853334D01*
X332689Y-2859379D01*
X321310Y-2866999D01*
X310997Y-2875991D01*
X302006Y-2886303D01*
X294386Y-2897682D01*
X288340Y-2909976D01*
X283921Y-2922930D01*
X281279Y-2936341D01*
X280365Y-2950006D01*
X281279Y-2963672D01*
X283921Y-2977083D01*
X288340Y-2990037D01*
X294386Y-3002330D01*
X300888Y-3012033D01*
X302463Y-3015894D01*
X302310Y-3020060D01*
X300532Y-3023819D01*
X297383Y-3026562D01*
X293370Y-3027781D01*
X283768Y-3028696D01*
X275894Y-3031083D01*
X268630Y-3034995D01*
X261823Y-3040532D01*
X224536Y-3077819D01*
X218998Y-3084576D01*
X215087Y-3091891D01*
X212699Y-3099765D01*
X211836Y-3108502D01*
X211836Y-3299510D01*
X212699Y-3308197D01*
X215087Y-3316122D01*
X218998Y-3323386D01*
X224536Y-3330143D01*
X257860Y-3363468D01*
X264617Y-3369005D01*
X271881Y-3372916D01*
X279806Y-3375304D01*
X288493Y-3376168D01*
X782320Y-3376168D01*
X786231Y-3376929D01*
X789533Y-3379114D01*
X817880Y-3407460D01*
X820064Y-3410762D01*
X820826Y-3414674D01*
X820826Y-3592322D01*
X820064Y-3596233D01*
X817880Y-3599484D01*
X772515Y-3644849D01*
X769213Y-3647084D01*
X765352Y-3647846D01*
X585520Y-3647846D01*
X576783Y-3648710D01*
X568909Y-3651097D01*
X561594Y-3654958D01*
X554837Y-3660546D01*
X505968Y-3709415D01*
X503224Y-3711346D01*
X500024Y-3712311D01*
X496620Y-3712159D01*
X486511Y-3709924D01*
X474980Y-3709111D01*
X463499Y-3709924D01*
X452221Y-3712362D01*
X441401Y-3716426D01*
X431241Y-3721963D01*
X422046Y-3728872D01*
X413867Y-3737051D01*
X406958Y-3746246D01*
X401421Y-3756406D01*
X397408Y-3767226D01*
X394919Y-3778504D01*
X394106Y-3790340D01*
X394106Y-3809644D01*
X394919Y-3821480D01*
X397408Y-3832758D01*
X401421Y-3843578D01*
X406958Y-3853738D01*
X413867Y-3862933D01*
X422046Y-3871112D01*
X431241Y-3878021D01*
X441401Y-3883558D01*
X452221Y-3887622D01*
X463499Y-3890060D01*
G37*
G36*
X339293Y-2789834D02*
G01*
X339293Y-2741726D01*
X291134Y-2741726D01*
X294386Y-2748330D01*
X302006Y-2759710D01*
X310997Y-2769971D01*
X321310Y-2779014D01*
X332689Y-2786583D01*
G37*
G36*
X430733Y-2789834D02*
G01*
X437286Y-2786583D01*
X448665Y-2779014D01*
X458978Y-2769971D01*
X468020Y-2759710D01*
X475589Y-2748330D01*
X478840Y-2741726D01*
X430733Y-2741726D01*
G37*
G36*
X1535125Y-2650286D02*
G01*
X1583283Y-2650286D01*
X1583283Y-2602128D01*
X1576679Y-2605379D01*
X1565300Y-2612999D01*
X1555038Y-2621991D01*
X1545996Y-2632303D01*
X1538376Y-2643682D01*
G37*
G36*
X1674723Y-2650286D02*
G01*
X1722831Y-2650286D01*
X1719580Y-2643682D01*
X1712010Y-2632303D01*
X1702968Y-2621991D01*
X1692706Y-2612999D01*
X1681327Y-2605379D01*
X1674723Y-2602128D01*
G37*
G36*
X291134Y-2650286D02*
G01*
X339293Y-2650286D01*
X339293Y-2602128D01*
X332689Y-2605379D01*
X321310Y-2612999D01*
X310997Y-2621991D01*
X302006Y-2632303D01*
X294386Y-2643682D01*
G37*
G36*
X1374698Y-2650286D02*
G01*
X1422857Y-2650286D01*
X1419606Y-2643682D01*
X1411986Y-2632303D01*
X1402994Y-2621991D01*
X1392682Y-2612999D01*
X1381302Y-2605379D01*
X1374698Y-2602128D01*
G37*
G36*
X1235151Y-2650286D02*
G01*
X1283258Y-2650286D01*
X1283258Y-2602128D01*
X1276705Y-2605379D01*
X1265326Y-2612999D01*
X1255014Y-2621991D01*
X1245971Y-2632303D01*
X1238402Y-2643682D01*
G37*
G36*
X730707Y-2650286D02*
G01*
X778865Y-2650286D01*
X775614Y-2643682D01*
X767994Y-2632303D01*
X759002Y-2621991D01*
X748690Y-2612999D01*
X737311Y-2605379D01*
X730707Y-2602128D01*
G37*
G36*
X591159Y-2650286D02*
G01*
X639267Y-2650286D01*
X639267Y-2602128D01*
X632663Y-2605379D01*
X621284Y-2612999D01*
X611022Y-2621991D01*
X601980Y-2632303D01*
X594410Y-2643682D01*
G37*
G36*
X430733Y-2650286D02*
G01*
X478840Y-2650286D01*
X475589Y-2643682D01*
X468020Y-2632303D01*
X458978Y-2621991D01*
X448665Y-2612999D01*
X437286Y-2605379D01*
X430733Y-2602128D01*
G37*
G36*
X1583283Y-2497836D02*
G01*
X1583283Y-2449728D01*
X1535125Y-2449728D01*
X1538376Y-2456332D01*
X1545996Y-2467711D01*
X1555038Y-2477973D01*
X1565300Y-2487015D01*
X1576679Y-2494584D01*
G37*
G36*
X639267Y-2497836D02*
G01*
X639267Y-2449728D01*
X591159Y-2449728D01*
X594410Y-2456332D01*
X601980Y-2467711D01*
X611022Y-2477973D01*
X621284Y-2487015D01*
X632663Y-2494584D01*
G37*
G36*
X1283258Y-2497836D02*
G01*
X1283258Y-2449728D01*
X1235151Y-2449728D01*
X1238402Y-2456332D01*
X1245971Y-2467711D01*
X1255014Y-2477973D01*
X1265326Y-2487015D01*
X1276705Y-2494584D01*
G37*
G36*
X339293Y-2497836D02*
G01*
X339293Y-2449728D01*
X291134Y-2449728D01*
X294386Y-2456332D01*
X302006Y-2467711D01*
X310997Y-2477973D01*
X321310Y-2487015D01*
X332689Y-2494584D01*
G37*
G36*
X1374698Y-2497836D02*
G01*
X1381302Y-2494584D01*
X1392682Y-2487015D01*
X1402994Y-2477973D01*
X1411986Y-2467711D01*
X1419606Y-2456332D01*
X1422857Y-2449728D01*
X1374698Y-2449728D01*
G37*
G36*
X430733Y-2497836D02*
G01*
X437286Y-2494584D01*
X448665Y-2487015D01*
X458978Y-2477973D01*
X468020Y-2467711D01*
X475589Y-2456332D01*
X478840Y-2449728D01*
X430733Y-2449728D01*
G37*
G36*
X1674723Y-2497836D02*
G01*
X1681327Y-2494584D01*
X1692706Y-2487015D01*
X1702968Y-2477973D01*
X1712010Y-2467711D01*
X1719580Y-2456332D01*
X1722831Y-2449728D01*
X1674723Y-2449728D01*
G37*
G36*
X730707Y-2497836D02*
G01*
X737311Y-2494584D01*
X748690Y-2487015D01*
X759002Y-2477973D01*
X767994Y-2467711D01*
X775614Y-2456332D01*
X778865Y-2449728D01*
X730707Y-2449728D01*
G37*
G36*
X591159Y-2358288D02*
G01*
X639267Y-2358288D01*
X639267Y-2310130D01*
X632663Y-2313381D01*
X621284Y-2321001D01*
X611022Y-2329992D01*
X601980Y-2340305D01*
X594410Y-2351684D01*
G37*
G36*
X430733Y-2358288D02*
G01*
X478840Y-2358288D01*
X475589Y-2351684D01*
X468020Y-2340305D01*
X458978Y-2329992D01*
X448665Y-2321001D01*
X437286Y-2313381D01*
X430733Y-2310130D01*
G37*
G36*
X1535125Y-2358288D02*
G01*
X1583283Y-2358288D01*
X1583283Y-2310130D01*
X1576679Y-2313381D01*
X1565300Y-2321001D01*
X1555038Y-2329992D01*
X1545996Y-2340305D01*
X1538376Y-2351684D01*
G37*
G36*
X1235151Y-2358288D02*
G01*
X1283258Y-2358288D01*
X1283258Y-2310130D01*
X1276705Y-2313381D01*
X1265326Y-2321001D01*
X1255014Y-2329992D01*
X1245971Y-2340305D01*
X1238402Y-2351684D01*
G37*
G36*
X1374698Y-2358288D02*
G01*
X1422857Y-2358288D01*
X1419606Y-2351684D01*
X1411986Y-2340305D01*
X1402994Y-2329992D01*
X1392682Y-2321001D01*
X1381302Y-2313381D01*
X1374698Y-2310130D01*
G37*
G36*
X1674723Y-2358288D02*
G01*
X1722831Y-2358288D01*
X1719580Y-2351684D01*
X1712010Y-2340305D01*
X1702968Y-2329992D01*
X1692706Y-2321001D01*
X1681327Y-2313381D01*
X1674723Y-2310130D01*
G37*
G36*
X730707Y-2358288D02*
G01*
X778865Y-2358288D01*
X775614Y-2351684D01*
X767994Y-2340305D01*
X759002Y-2329992D01*
X748690Y-2321001D01*
X737311Y-2313381D01*
X730707Y-2310130D01*
G37*
G36*
X291134Y-2358288D02*
G01*
X339293Y-2358288D01*
X339293Y-2310130D01*
X332689Y-2313381D01*
X321310Y-2321001D01*
X310997Y-2329992D01*
X302006Y-2340305D01*
X294386Y-2351684D01*
G37*
G36*
X385013Y-2254605D02*
G01*
X398678Y-2253742D01*
X412089Y-2251049D01*
X425043Y-2246680D01*
X437286Y-2240584D01*
X448665Y-2233015D01*
X458978Y-2223973D01*
X468020Y-2213711D01*
X475589Y-2202332D01*
X481634Y-2190038D01*
X486054Y-2177084D01*
X488746Y-2163673D01*
X489610Y-2150008D01*
X488746Y-2136343D01*
X486054Y-2122932D01*
X481634Y-2109978D01*
X475589Y-2097684D01*
X468020Y-2086305D01*
X458978Y-2075992D01*
X448665Y-2067001D01*
X437286Y-2059381D01*
X425043Y-2053336D01*
X412089Y-2048916D01*
X398678Y-2046274D01*
X385013Y-2045360D01*
X371348Y-2046274D01*
X357936Y-2048916D01*
X344982Y-2053336D01*
X332689Y-2059381D01*
X321310Y-2067001D01*
X310997Y-2075992D01*
X302006Y-2086305D01*
X294386Y-2097684D01*
X288340Y-2109978D01*
X283921Y-2122932D01*
X281279Y-2136343D01*
X280365Y-2150008D01*
X281279Y-2163673D01*
X283921Y-2177084D01*
X288340Y-2190038D01*
X294386Y-2202332D01*
X302006Y-2213711D01*
X310997Y-2223973D01*
X321310Y-2233015D01*
X332689Y-2240584D01*
X344982Y-2246680D01*
X357936Y-2251049D01*
X371348Y-2253742D01*
G37*
G36*
X1629003Y-2254605D02*
G01*
X1642668Y-2253742D01*
X1656080Y-2251049D01*
X1669034Y-2246680D01*
X1681327Y-2240584D01*
X1692706Y-2233015D01*
X1702968Y-2223973D01*
X1712010Y-2213711D01*
X1719580Y-2202332D01*
X1725675Y-2190038D01*
X1730044Y-2177084D01*
X1732737Y-2163673D01*
X1733600Y-2150008D01*
X1732737Y-2136343D01*
X1730044Y-2122932D01*
X1725675Y-2109978D01*
X1719580Y-2097684D01*
X1712010Y-2086305D01*
X1702968Y-2075992D01*
X1692706Y-2067001D01*
X1681327Y-2059381D01*
X1669034Y-2053336D01*
X1656080Y-2048916D01*
X1642668Y-2046274D01*
X1629003Y-2045360D01*
X1615338Y-2046274D01*
X1601927Y-2048916D01*
X1588973Y-2053336D01*
X1576679Y-2059381D01*
X1565300Y-2067001D01*
X1555038Y-2075992D01*
X1545996Y-2086305D01*
X1538376Y-2097684D01*
X1532331Y-2109978D01*
X1527911Y-2122932D01*
X1525270Y-2136343D01*
X1524355Y-2150008D01*
X1525270Y-2163673D01*
X1527911Y-2177084D01*
X1532331Y-2190038D01*
X1538376Y-2202332D01*
X1545996Y-2213711D01*
X1555038Y-2223973D01*
X1565300Y-2233015D01*
X1576679Y-2240584D01*
X1588973Y-2246680D01*
X1601927Y-2251049D01*
X1615338Y-2253742D01*
G37*
G36*
X1206144Y-977595D02*
G01*
X1206144Y-893826D01*
X1122578Y-893826D01*
X1124407Y-897636D01*
X1134668Y-914095D01*
X1146454Y-929538D01*
X1159662Y-943762D01*
X1174191Y-956614D01*
X1189888Y-968044D01*
G37*
G36*
X743864Y-977595D02*
G01*
X760069Y-968044D01*
X775817Y-956614D01*
X790346Y-943762D01*
X803554Y-929538D01*
X815340Y-914095D01*
X825550Y-897636D01*
X827430Y-893826D01*
X743864Y-893826D01*
G37*
G36*
X1393850Y-977595D02*
G01*
X1410106Y-968044D01*
X1425803Y-956614D01*
X1440332Y-943762D01*
X1453540Y-929538D01*
X1465326Y-914095D01*
X1475587Y-897636D01*
X1477416Y-893826D01*
X1393850Y-893826D01*
G37*
G36*
X556158Y-977595D02*
G01*
X556158Y-893826D01*
X472592Y-893826D01*
X474421Y-897636D01*
X484682Y-914095D01*
X496468Y-929538D01*
X509676Y-943762D01*
X524205Y-956614D01*
X539902Y-968044D01*
G37*
G36*
X1122578Y-706170D02*
G01*
X1206144Y-706170D01*
X1206144Y-622655D01*
X1198168Y-626821D01*
X1181912Y-637489D01*
X1166774Y-649630D01*
X1152906Y-663194D01*
X1140358Y-678027D01*
X1129334Y-693978D01*
G37*
G36*
X472592Y-706170D02*
G01*
X556158Y-706170D01*
X556158Y-622655D01*
X548132Y-626821D01*
X531926Y-637489D01*
X516788Y-649630D01*
X502869Y-663194D01*
X490372Y-678027D01*
X479348Y-693978D01*
G37*
G36*
X743864Y-706170D02*
G01*
X827430Y-706170D01*
X820674Y-693978D01*
X809650Y-678027D01*
X797102Y-663194D01*
X783234Y-649630D01*
X768096Y-637489D01*
X751840Y-626821D01*
X743864Y-622655D01*
G37*
G36*
X1393850Y-706170D02*
G01*
X1477416Y-706170D01*
X1470660Y-693978D01*
X1459636Y-678027D01*
X1447088Y-663194D01*
X1433220Y-649630D01*
X1418082Y-637489D01*
X1401826Y-626821D01*
X1393850Y-622655D01*
G37*
G36*
X1300022Y-500888D02*
G01*
X1319377Y-499973D01*
X1338580Y-497128D01*
X1357426Y-492506D01*
X1375765Y-486054D01*
X1393342Y-477875D01*
X1410106Y-468020D01*
X1425803Y-456641D01*
X1440332Y-443738D01*
X1453540Y-429564D01*
X1465326Y-414121D01*
X1475587Y-397611D01*
X1484172Y-380238D01*
X1491081Y-362102D01*
X1496161Y-343357D01*
X1499412Y-324205D01*
X1500835Y-304850D01*
X1500378Y-285445D01*
X1498041Y-266192D01*
X1493824Y-247243D01*
X1487830Y-228752D01*
X1480108Y-210972D01*
X1470660Y-194005D01*
X1459636Y-178003D01*
X1447088Y-163169D01*
X1433220Y-149606D01*
X1418082Y-137464D01*
X1401826Y-126847D01*
X1384655Y-117805D01*
X1366672Y-110489D01*
X1348079Y-104952D01*
X1329029Y-101193D01*
X1309725Y-99314D01*
X1290269Y-99314D01*
X1270965Y-101193D01*
X1251915Y-104952D01*
X1233322Y-110489D01*
X1215339Y-117805D01*
X1198168Y-126847D01*
X1181912Y-137464D01*
X1166774Y-149606D01*
X1152906Y-163169D01*
X1140358Y-178003D01*
X1129334Y-194005D01*
X1119886Y-210972D01*
X1112164Y-228752D01*
X1106170Y-247243D01*
X1101953Y-266192D01*
X1099616Y-285445D01*
X1099159Y-304850D01*
X1100582Y-324205D01*
X1103833Y-343357D01*
X1108913Y-362102D01*
X1115822Y-380238D01*
X1124407Y-397611D01*
X1134668Y-414121D01*
X1146454Y-429564D01*
X1159662Y-443738D01*
X1174191Y-456641D01*
X1189888Y-468020D01*
X1206652Y-477875D01*
X1224229Y-486054D01*
X1242568Y-492506D01*
X1261414Y-497128D01*
X1280617Y-499973D01*
G37*
G36*
X649986Y-500888D02*
G01*
X669391Y-499973D01*
X688594Y-497128D01*
X707440Y-492506D01*
X725779Y-486054D01*
X743356Y-477875D01*
X760069Y-468020D01*
X775817Y-456641D01*
X790346Y-443738D01*
X803554Y-429564D01*
X815340Y-414121D01*
X825550Y-397611D01*
X834186Y-380238D01*
X841044Y-362102D01*
X846175Y-343357D01*
X849426Y-324205D01*
X850849Y-304850D01*
X850392Y-285445D01*
X848004Y-266192D01*
X843838Y-247243D01*
X837844Y-228752D01*
X830071Y-210972D01*
X820674Y-194005D01*
X809650Y-178003D01*
X797102Y-163169D01*
X783234Y-149606D01*
X768096Y-137464D01*
X751840Y-126847D01*
X734669Y-117805D01*
X716686Y-110489D01*
X698093Y-104952D01*
X679043Y-101193D01*
X659688Y-99314D01*
X640283Y-99314D01*
X620979Y-101193D01*
X601929Y-104952D01*
X583336Y-110489D01*
X565353Y-117805D01*
X548132Y-126847D01*
X531926Y-137464D01*
X516788Y-149606D01*
X502869Y-163169D01*
X490372Y-178003D01*
X479348Y-194005D01*
X469900Y-210972D01*
X462178Y-228752D01*
X456184Y-247243D01*
X451967Y-266192D01*
X449630Y-285445D01*
X449173Y-304850D01*
X450545Y-324205D01*
X453847Y-343357D01*
X458927Y-362102D01*
X465835Y-380238D01*
X474421Y-397611D01*
X484682Y-414121D01*
X496468Y-429564D01*
X509676Y-443738D01*
X524205Y-456641D01*
X539902Y-468020D01*
X556615Y-477875D01*
X574243Y-486054D01*
X592531Y-492506D01*
X611378Y-497128D01*
X630631Y-499973D01*
G37*
G36*
X1977339Y-325831D02*
G01*
X1981454Y-325678D01*
X1994814Y-324256D01*
X1998878Y-323545D01*
X2011883Y-320294D01*
X2015845Y-319024D01*
X2028291Y-313994D01*
X2032000Y-312166D01*
X2043633Y-305460D01*
X2047087Y-303174D01*
X2057654Y-294894D01*
X2060752Y-292100D01*
X2070049Y-282448D01*
X2072690Y-279298D01*
X2080615Y-268427D01*
X2082800Y-264922D01*
X2089099Y-253085D01*
X2090775Y-249275D01*
X2095398Y-236677D01*
X2096516Y-232664D01*
X2099310Y-219557D01*
X2099868Y-215442D01*
X2100834Y-202082D01*
X2100834Y-197916D01*
X2099868Y-184556D01*
X2099310Y-180441D01*
X2096516Y-167335D01*
X2095398Y-163322D01*
X2090775Y-150723D01*
X2089099Y-146913D01*
X2082800Y-135077D01*
X2080615Y-131572D01*
X2072690Y-120700D01*
X2070049Y-117551D01*
X2060752Y-107899D01*
X2057654Y-105105D01*
X2047087Y-96824D01*
X2043633Y-94538D01*
X2032000Y-87833D01*
X2028291Y-86004D01*
X2015845Y-80975D01*
X2011883Y-79705D01*
X1998878Y-76454D01*
X1994814Y-75742D01*
X1981454Y-74320D01*
X1977339Y-74168D01*
X1963928Y-74625D01*
X1959762Y-75082D01*
X1946554Y-77419D01*
X1942541Y-78435D01*
X1929790Y-82550D01*
X1925929Y-84124D01*
X1913889Y-90017D01*
X1910283Y-92049D01*
X1899157Y-99568D01*
X1895906Y-102108D01*
X1885950Y-111099D01*
X1883054Y-114096D01*
X1874418Y-124358D01*
X1871980Y-127711D01*
X1864868Y-139090D01*
X1862937Y-142748D01*
X1857451Y-155041D01*
X1856028Y-158902D01*
X1852371Y-171805D01*
X1851507Y-175869D01*
X1849628Y-189179D01*
X1849323Y-193294D01*
X1849323Y-206705D01*
X1849628Y-210820D01*
X1851507Y-224129D01*
X1852371Y-228193D01*
X1856028Y-241096D01*
X1857451Y-244957D01*
X1862937Y-257251D01*
X1864868Y-260908D01*
X1871980Y-272288D01*
X1874418Y-275640D01*
X1883054Y-285902D01*
X1885950Y-288899D01*
X1895906Y-297891D01*
X1899157Y-300431D01*
X1910283Y-307949D01*
X1913889Y-309981D01*
X1925929Y-315874D01*
X1929790Y-317449D01*
X1942541Y-321564D01*
X1946554Y-322580D01*
X1959762Y-324916D01*
X1963928Y-325374D01*
G37*
G36*
X2336Y-325831D02*
G01*
X6451Y-325678D01*
X19812Y-324256D01*
X23876Y-323545D01*
X36931Y-320294D01*
X40843Y-319024D01*
X53289Y-313994D01*
X56997Y-312166D01*
X68630Y-305460D01*
X72085Y-303174D01*
X82651Y-294894D01*
X85750Y-292100D01*
X95046Y-282448D01*
X97739Y-279298D01*
X105613Y-268427D01*
X107797Y-264922D01*
X114096Y-253085D01*
X115773Y-249275D01*
X120396Y-236677D01*
X121513Y-232664D01*
X124307Y-219557D01*
X124866Y-215442D01*
X125831Y-202082D01*
X125831Y-197916D01*
X124866Y-184556D01*
X124307Y-180441D01*
X121513Y-167335D01*
X120396Y-163322D01*
X115773Y-150723D01*
X114096Y-146913D01*
X107797Y-135077D01*
X105613Y-131572D01*
X97739Y-120700D01*
X95046Y-117551D01*
X85750Y-107899D01*
X82651Y-105105D01*
X72085Y-96824D01*
X68630Y-94538D01*
X56997Y-87833D01*
X53289Y-86004D01*
X40843Y-80975D01*
X36931Y-79705D01*
X23876Y-76454D01*
X19812Y-75742D01*
X6451Y-74320D01*
X2336Y-74168D01*
X-11074Y-74625D01*
X-15189Y-75082D01*
X-28448Y-77419D01*
X-32461Y-78435D01*
X-45212Y-82550D01*
X-49072Y-84124D01*
X-61112Y-90017D01*
X-64719Y-92049D01*
X-75844Y-99568D01*
X-79095Y-102108D01*
X-89052Y-111099D01*
X-91948Y-114096D01*
X-100584Y-124358D01*
X-103022Y-127711D01*
X-110134Y-139090D01*
X-112064Y-142748D01*
X-117551Y-155041D01*
X-118922Y-158902D01*
X-122631Y-171805D01*
X-123494Y-175869D01*
X-125374Y-189179D01*
X-125679Y-193294D01*
X-125679Y-206705D01*
X-125374Y-210820D01*
X-123494Y-224129D01*
X-122631Y-228193D01*
X-118922Y-241096D01*
X-117551Y-244957D01*
X-112064Y-257251D01*
X-110134Y-260908D01*
X-103022Y-272288D01*
X-100584Y-275640D01*
X-91948Y-285902D01*
X-89052Y-288899D01*
X-79095Y-297891D01*
X-75844Y-300431D01*
X-64719Y-307949D01*
X-61112Y-309981D01*
X-49072Y-315874D01*
X-45212Y-317449D01*
X-32461Y-321564D01*
X-28448Y-322580D01*
X-15189Y-324916D01*
X-11074Y-325374D01*
G37*

%LPD*%
D10*
X475005Y-3799992D02*
G01*
X585005Y-3689992D01*
X786998Y-3689992D01*
X862998Y-3613993D01*
X862998Y-3392992D01*
X803998Y-3333993D01*
X288000Y-3333993D01*
X254000Y-3299993D01*
X254000Y-3107994D01*
X292000Y-3069993D01*
X460999Y-3069993D01*
X540999Y-2989994D01*
X540999Y-2891993D01*
X610999Y-2821993D01*
X799998Y-2821993D01*
X858997Y-2762994D01*
X858997Y-2118995D01*
X757999Y-2017996D01*
X519998Y-2017996D01*
X397984Y-1895982D01*
X384997Y-1895982D01*
X1525015Y-3800094D02*
G01*
X1415034Y-3690112D01*
X1186942Y-3690112D01*
X1134110Y-3637026D01*
X1134110Y-3409950D01*
X1215897Y-3327907D01*
X1717039Y-3327907D01*
X1766062Y-3278886D01*
X1766062Y-2917952D01*
X1668018Y-2819907D01*
X1224026Y-2819907D01*
X1121918Y-2713989D01*
X1121918Y-2092960D01*
X1182878Y-2032000D01*
X1471929Y-2032000D01*
X1608073Y-1896110D01*
X1628902Y-1896110D01*
X1375003Y-1399997D02*
G01*
X1064999Y-1710001D01*
X1064999Y-3018993D01*
X1127998Y-3081992D01*
X1245392Y-3081992D01*
X625017Y-1399997D02*
G01*
X917999Y-1692978D01*
X917999Y-3024995D01*
X871001Y-3071992D01*
X575998Y-3071992D01*
X444009Y-3203981D01*
X384997Y-3203981D01*
X1118986Y-3203981D02*
G01*
X1075004Y-3247964D01*
X1075004Y-3799992D01*
X854384Y-3203981D02*
G01*
X925017Y-3274613D01*
X925017Y-3799992D01*
X1223998Y-3081992D02*
G01*
X1507007Y-3081992D01*
X1628995Y-3203981D01*
X1075004Y-1399997D02*
G01*
X1016998Y-1458003D01*
X1016998Y-3101992D01*
X1118986Y-3203981D01*
X1328996Y-3203981D01*
X925017Y-1399997D02*
G01*
X968997Y-1443977D01*
X968997Y-3100994D01*
X866010Y-3203981D01*
X684997Y-3203981D01*
D11*
G01*
X650011Y-299999D03*
G01*
X650011Y-799998D03*
G01*
X1299997Y-299999D03*
G01*
X1299997Y-799998D03*
G01*
X650011Y-4250004D03*
G01*
X650011Y-4750003D03*
G01*
X1299997Y-4250004D03*
G01*
X1299997Y-4750003D03*
D12*
G01*
X1525015Y-1399997D03*
G01*
X1375003Y-1399997D03*
G01*
X1224991Y-1399997D03*
G01*
X1075004Y-1399997D03*
G01*
X925017Y-1399997D03*
G01*
X775004Y-1399997D03*
G01*
X625017Y-1399997D03*
G01*
X475005Y-1399997D03*
G01*
X1525015Y-3799992D03*
G01*
X1375003Y-3799992D03*
G01*
X1224991Y-3799992D03*
G01*
X1075004Y-3799992D03*
G01*
X925017Y-3799992D03*
G01*
X775004Y-3799992D03*
G01*
X625017Y-3799992D03*
G01*
X475005Y-3799992D03*
D13*
G01*
X1629003Y-2403982D03*
G01*
X1629003Y-2149982D03*
D14*
G01*
X1629003Y-1896008D03*
D13*
G01*
X1629003Y-2696006D03*
G01*
X1629003Y-2950006D03*
D14*
G01*
X1629003Y-3203981D03*
D13*
G01*
X1329004Y-2403982D03*
G01*
X1329004Y-2149982D03*
D14*
G01*
X1329004Y-1896008D03*
D13*
G01*
X1329004Y-2696006D03*
G01*
X1329004Y-2950006D03*
D14*
G01*
X1329004Y-3203981D03*
D13*
G01*
X684987Y-2696006D03*
G01*
X684987Y-2950006D03*
D14*
G01*
X684987Y-3203981D03*
D13*
G01*
X684987Y-2403982D03*
G01*
X684987Y-2149982D03*
D14*
G01*
X684987Y-1896008D03*
D13*
G01*
X384987Y-2696006D03*
G01*
X384987Y-2950006D03*
D14*
G01*
X384987Y-3203981D03*
D13*
G01*
X384987Y-2403982D03*
G01*
X384987Y-2149982D03*
D14*
G01*
X384987Y-1896008D03*
M02*
