G04 Layer: BottomSolderMaskLayer*
G04 EasyEDA v6.5.57, 2026-07-14 18:02:30*
G04 21e4934d8d62410c90c9ba8735cb0da7,29b7a93777c744eeace5641c7525114a,10*
G04 Gerber Generator version 0.2*
G04 Scale: 100 percent, Rotated: No, Reflected: No *
G04 Dimensions in millimeters *
G04 leading zeros omitted , absolute positions ,4 integer and 5 decimal *
%FSLAX45Y45*%
%MOMM*%

%AMMACRO1*4,1,8,-0.8085,-0.8382,-0.8382,-0.8082,-0.8382,0.8085,-0.8085,0.8382,0.8082,0.8382,0.8382,0.8085,0.8382,-0.8082,0.8082,-0.8382,-0.8085,-0.8382,0*%
%ADD10C,3.6016*%
%ADD11O,1.201598X1.401597*%
%ADD12C,1.6764*%
%ADD13MACRO1*%
%ADD14C,0.0199*%

%LPD*%
D10*
G01*
X650011Y-299999D03*
G01*
X650011Y-799998D03*
G01*
X1299997Y-299999D03*
G01*
X1299997Y-799998D03*
G01*
X650011Y-4250004D03*
G01*
X650011Y-4750003D03*
G01*
X1299997Y-4250004D03*
G01*
X1299997Y-4750003D03*
D11*
G01*
X1525015Y-1399997D03*
G01*
X1375003Y-1399997D03*
G01*
X1224991Y-1399997D03*
G01*
X1075004Y-1399997D03*
G01*
X925017Y-1399997D03*
G01*
X775004Y-1399997D03*
G01*
X625017Y-1399997D03*
G01*
X475005Y-1399997D03*
G01*
X1525015Y-3799992D03*
G01*
X1375003Y-3799992D03*
G01*
X1224991Y-3799992D03*
G01*
X1075004Y-3799992D03*
G01*
X925017Y-3799992D03*
G01*
X775004Y-3799992D03*
G01*
X625017Y-3799992D03*
G01*
X475005Y-3799992D03*
D12*
G01*
X1629003Y-2403982D03*
G01*
X1629003Y-2149982D03*
D13*
G01*
X1629003Y-1896008D03*
D12*
G01*
X1629003Y-2696006D03*
G01*
X1629003Y-2950006D03*
D13*
G01*
X1629003Y-3204006D03*
D12*
G01*
X1329004Y-2403982D03*
G01*
X1329004Y-2149982D03*
D13*
G01*
X1329004Y-1896008D03*
D12*
G01*
X1329004Y-2696006D03*
G01*
X1329004Y-2950006D03*
D13*
G01*
X1329004Y-3204006D03*
D12*
G01*
X684987Y-2696006D03*
G01*
X684987Y-2950006D03*
D13*
G01*
X684987Y-3204006D03*
D12*
G01*
X684987Y-2403982D03*
G01*
X684987Y-2149982D03*
D13*
G01*
X684987Y-1896008D03*
D12*
G01*
X384987Y-2696006D03*
G01*
X384987Y-2950006D03*
D13*
G01*
X384987Y-3204006D03*
D12*
G01*
X384987Y-2403982D03*
G01*
X384987Y-2149982D03*
D13*
G01*
X384987Y-1896008D03*
M02*
