G04 Layer: BottomSilkscreenLayer*
G04 EasyEDA v6.5.57, 2026-07-14 18:02:30*
G04 21e4934d8d62410c90c9ba8735cb0da7,29b7a93777c744eeace5641c7525114a,10*
G04 Gerber Generator version 0.2*
G04 Scale: 100 percent, Rotated: No, Reflected: No *
G04 Dimensions in millimeters *
G04 leading zeros omitted , absolute positions ,4 integer and 5 decimal *
%FSLAX45Y45*%
%MOMM*%

%ADD10C,0.1524*%
%ADD11C,0.0186*%

%LPD*%
G36*
X377444Y-940714D02*
G01*
X370636Y-941933D01*
X354787Y-942797D01*
X352450Y-943305D01*
X347522Y-945387D01*
X340106Y-946505D01*
X335432Y-949147D01*
X333400Y-949147D01*
X330352Y-950010D01*
X328422Y-951687D01*
X324154Y-952957D01*
X323138Y-952957D01*
X320040Y-955446D01*
X315925Y-956818D01*
X314452Y-958443D01*
X310540Y-959866D01*
X308000Y-962101D01*
X304495Y-963625D01*
X302107Y-966063D01*
X300939Y-966063D01*
X298450Y-968603D01*
X295097Y-970483D01*
X295097Y-971143D01*
X290220Y-974445D01*
X273253Y-991717D01*
X271272Y-994664D01*
X268935Y-997203D01*
X268376Y-999083D01*
X265887Y-1000861D01*
X265887Y-1002080D01*
X262636Y-1005687D01*
X261112Y-1009650D01*
X259994Y-1010056D01*
X257505Y-1015034D01*
X256133Y-1016152D01*
X254863Y-1020470D01*
X252831Y-1022603D01*
X251104Y-1028446D01*
X249377Y-1030274D01*
X247751Y-1036878D01*
X246024Y-1038707D01*
X244297Y-1046581D01*
X242468Y-1049578D01*
X241300Y-1058570D01*
X239115Y-1063244D01*
X237540Y-1085697D01*
X237540Y-1101242D01*
X238247Y-1111504D01*
X245821Y-1111504D01*
X245821Y-1075537D01*
X246837Y-1068933D01*
X248513Y-1065580D01*
X249428Y-1056487D01*
X250342Y-1053541D01*
X252323Y-1049782D01*
X252323Y-1048003D01*
X253593Y-1042162D01*
X255320Y-1040333D01*
X256489Y-1034694D01*
X258673Y-1032103D01*
X259994Y-1027023D01*
X262026Y-1024636D01*
X263804Y-1019962D01*
X265430Y-1018489D01*
X266801Y-1014323D01*
X268478Y-1013307D01*
X270967Y-1008430D01*
X271830Y-1008430D01*
X273558Y-1004620D01*
X275640Y-1003198D01*
X277012Y-1000607D01*
X279196Y-998423D01*
X283870Y-992682D01*
X286715Y-989990D01*
X287477Y-988060D01*
X289356Y-987348D01*
X292049Y-984503D01*
X297789Y-979830D01*
X299974Y-977646D01*
X302564Y-976274D01*
X303987Y-974140D01*
X307136Y-972819D01*
X308864Y-971245D01*
X313080Y-969111D01*
X314096Y-967435D01*
X318617Y-966114D01*
X320395Y-964031D01*
X325018Y-962710D01*
X327304Y-960577D01*
X333400Y-959256D01*
X335127Y-957681D01*
X340156Y-956360D01*
X341376Y-956360D01*
X346913Y-953668D01*
X357124Y-952601D01*
X360934Y-951230D01*
X366674Y-950010D01*
X393547Y-950061D01*
X399034Y-951179D01*
X402132Y-952500D01*
X413664Y-953719D01*
X416864Y-955954D01*
X423926Y-957173D01*
X427024Y-959307D01*
X432714Y-960882D01*
X434593Y-962558D01*
X440080Y-964488D01*
X441959Y-966368D01*
X445211Y-967333D01*
X447649Y-969873D01*
X450494Y-970432D01*
X452780Y-972921D01*
X455777Y-974445D01*
X457708Y-976579D01*
X461009Y-978052D01*
X461518Y-979627D01*
X464210Y-980998D01*
X476300Y-992682D01*
X476300Y-993546D01*
X477977Y-994105D01*
X479602Y-997203D01*
X481330Y-998270D01*
X482955Y-1001420D01*
X484733Y-1003046D01*
X486867Y-1006652D01*
X488188Y-1007160D01*
X489864Y-1010919D01*
X491490Y-1012037D01*
X492912Y-1015847D01*
X495350Y-1018387D01*
X496620Y-1022807D01*
X498398Y-1024026D01*
X499516Y-1027277D01*
X499567Y-1028700D01*
X502208Y-1031697D01*
X503377Y-1037336D01*
X504951Y-1039114D01*
X505866Y-1042060D01*
X506780Y-1047089D01*
X508406Y-1048867D01*
X509270Y-1052220D01*
X510184Y-1059637D01*
X512419Y-1063904D01*
X513130Y-1077671D01*
X513994Y-1086104D01*
X513994Y-1100886D01*
X513130Y-1109827D01*
X512419Y-1122578D01*
X510082Y-1127607D01*
X508965Y-1136091D01*
X508304Y-1137767D01*
X506425Y-1140510D01*
X505866Y-1145387D01*
X504698Y-1148181D01*
X503428Y-1149451D01*
X502564Y-1152601D01*
X502513Y-1154125D01*
X501345Y-1156411D01*
X499618Y-1157986D01*
X499059Y-1161796D01*
X496265Y-1164894D01*
X495249Y-1168958D01*
X493318Y-1170178D01*
X491134Y-1175258D01*
X490220Y-1175258D01*
X488746Y-1178560D01*
X482498Y-1186027D01*
X481431Y-1188567D01*
X478840Y-1190498D01*
X478840Y-1191717D01*
X476199Y-1193647D01*
X475030Y-1195984D01*
X472643Y-1197203D01*
X471678Y-1199337D01*
X469138Y-1200607D01*
X468630Y-1202334D01*
X465988Y-1203706D01*
X463245Y-1206347D01*
X459638Y-1209344D01*
X457047Y-1210919D01*
X453847Y-1213764D01*
X452628Y-1213764D01*
X451053Y-1215796D01*
X446836Y-1217625D01*
X444550Y-1220012D01*
X441655Y-1220571D01*
X438454Y-1223111D01*
X434035Y-1224381D01*
X432968Y-1225702D01*
X430784Y-1226820D01*
X426770Y-1227429D01*
X423824Y-1229715D01*
X417220Y-1230782D01*
X412292Y-1233322D01*
X401574Y-1234490D01*
X393547Y-1236726D01*
X370382Y-1237132D01*
X363677Y-1236167D01*
X358800Y-1234490D01*
X347167Y-1233322D01*
X343916Y-1231087D01*
X338480Y-1230274D01*
X335534Y-1229309D01*
X333806Y-1227785D01*
X327761Y-1226464D01*
X325018Y-1223975D01*
X321208Y-1223365D01*
X318160Y-1220673D01*
X314756Y-1219606D01*
X312216Y-1217320D01*
X310032Y-1216355D01*
X307136Y-1213916D01*
X304393Y-1212951D01*
X298246Y-1207414D01*
X294030Y-1204163D01*
X287477Y-1197914D01*
X282295Y-1192377D01*
X277520Y-1186637D01*
X275386Y-1183741D01*
X273100Y-1181963D01*
X273100Y-1180338D01*
X270662Y-1177544D01*
X269189Y-1174597D01*
X266395Y-1171651D01*
X265836Y-1169111D01*
X263245Y-1165860D01*
X262077Y-1162050D01*
X259994Y-1159510D01*
X258673Y-1155141D01*
X256489Y-1152042D01*
X255320Y-1146302D01*
X253746Y-1144524D01*
X253136Y-1142847D01*
X251917Y-1136192D01*
X250342Y-1133449D01*
X249428Y-1130554D01*
X248615Y-1121613D01*
X246837Y-1118108D01*
X245821Y-1111504D01*
X238247Y-1111504D01*
X239166Y-1123797D01*
X241350Y-1128064D01*
X242214Y-1136497D01*
X244703Y-1141323D01*
X245871Y-1148080D01*
X248056Y-1150721D01*
X249072Y-1155801D01*
X251409Y-1159357D01*
X252780Y-1164132D01*
X254406Y-1165606D01*
X256184Y-1170279D01*
X258114Y-1172565D01*
X259283Y-1175461D01*
X262077Y-1178610D01*
X262077Y-1180338D01*
X264922Y-1183487D01*
X266242Y-1186027D01*
X268833Y-1188415D01*
X268833Y-1189685D01*
X271830Y-1192631D01*
X271830Y-1193444D01*
X280111Y-1202537D01*
X283870Y-1206296D01*
X292506Y-1214120D01*
X294995Y-1215440D01*
X295503Y-1216761D01*
X298500Y-1218031D01*
X300380Y-1220216D01*
X302920Y-1221486D01*
X306120Y-1224330D01*
X307797Y-1224330D01*
X310946Y-1227124D01*
X314756Y-1228750D01*
X316687Y-1230630D01*
X320446Y-1231544D01*
X322884Y-1233627D01*
X328980Y-1235303D01*
X331470Y-1237386D01*
X335076Y-1237945D01*
X338074Y-1238859D01*
X340207Y-1240485D01*
X348437Y-1241704D01*
X355752Y-1244244D01*
X375310Y-1245311D01*
X384657Y-1245311D01*
X404114Y-1244244D01*
X407060Y-1243482D01*
X412140Y-1241298D01*
X414782Y-1241298D01*
X419303Y-1240434D01*
X422300Y-1238402D01*
X429412Y-1237081D01*
X431190Y-1235456D01*
X432917Y-1234592D01*
X436524Y-1234033D01*
X439826Y-1231239D01*
X443280Y-1230680D01*
X446379Y-1227785D01*
X448767Y-1227226D01*
X451256Y-1225194D01*
X455168Y-1223467D01*
X456184Y-1221740D01*
X459587Y-1220114D01*
X469341Y-1212291D01*
X482854Y-1198930D01*
X489813Y-1191209D01*
X489813Y-1190498D01*
X492810Y-1187196D01*
X494080Y-1184148D01*
X495757Y-1183233D01*
X497078Y-1180084D01*
X499516Y-1177544D01*
X500380Y-1174242D01*
X502920Y-1171956D01*
X503885Y-1168247D01*
X506222Y-1165656D01*
X507339Y-1161491D01*
X509625Y-1158849D01*
X510641Y-1153668D01*
X512775Y-1151077D01*
X514350Y-1143914D01*
X516178Y-1141476D01*
X517398Y-1133094D01*
X519531Y-1129487D01*
X520750Y-1116177D01*
X522528Y-1109421D01*
X523341Y-1100074D01*
X522935Y-1078941D01*
X520750Y-1069898D01*
X519531Y-1057605D01*
X517347Y-1053846D01*
X516432Y-1046327D01*
X513994Y-1041552D01*
X512826Y-1035507D01*
X510895Y-1033475D01*
X509320Y-1027734D01*
X507695Y-1026007D01*
X505815Y-1020724D01*
X504291Y-1019352D01*
X502869Y-1014984D01*
X500532Y-1012444D01*
X499465Y-1009192D01*
X496620Y-1006144D01*
X496620Y-1004976D01*
X493928Y-1002284D01*
X492709Y-999337D01*
X486257Y-991768D01*
X483057Y-988669D01*
X483057Y-987907D01*
X471424Y-976223D01*
X470662Y-976223D01*
X464566Y-970432D01*
X462127Y-968908D01*
X459587Y-966571D01*
X456336Y-965200D01*
X455879Y-963930D01*
X451510Y-961745D01*
X449173Y-959764D01*
X445973Y-958900D01*
X443534Y-956310D01*
X440232Y-955802D01*
X436981Y-953109D01*
X431901Y-952093D01*
X430834Y-950772D01*
X428650Y-949655D01*
X423316Y-948690D01*
X421233Y-947724D01*
X421233Y-947064D01*
X418084Y-946200D01*
X411734Y-945286D01*
X407060Y-943102D01*
X395630Y-942340D01*
X385622Y-941425D01*
X383387Y-940765D01*
G37*
G36*
X376986Y-982573D02*
G01*
X357987Y-984300D01*
X353415Y-986383D01*
X347827Y-987298D01*
X343509Y-989787D01*
X339140Y-990701D01*
X336092Y-993140D01*
X331978Y-994511D01*
X330860Y-995832D01*
X326644Y-997864D01*
X322376Y-1000760D01*
X318363Y-1003960D01*
X315010Y-1007160D01*
X314350Y-1007160D01*
X306324Y-1015085D01*
X300634Y-1021587D01*
X298754Y-1024280D01*
X297586Y-1024991D01*
X295046Y-1029512D01*
X293827Y-1030528D01*
X292100Y-1034440D01*
X290525Y-1036167D01*
X288798Y-1040739D01*
X286918Y-1042669D01*
X285800Y-1047089D01*
X283565Y-1050340D01*
X281940Y-1057249D01*
X280314Y-1059942D01*
X278942Y-1067917D01*
X276860Y-1074674D01*
X275945Y-1084834D01*
X276402Y-1110234D01*
X278587Y-1117854D01*
X280263Y-1127099D01*
X281940Y-1129385D01*
X283718Y-1136904D01*
X285750Y-1139901D01*
X287020Y-1144219D01*
X288696Y-1145692D01*
X290118Y-1150061D01*
X292608Y-1153210D01*
X293776Y-1156055D01*
X295148Y-1157173D01*
X296722Y-1160272D01*
X303326Y-1168450D01*
X314553Y-1179677D01*
X319278Y-1183487D01*
X321564Y-1185722D01*
X325831Y-1187856D01*
X326948Y-1189228D01*
X330454Y-1190904D01*
X333349Y-1193038D01*
X336448Y-1193850D01*
X339598Y-1196340D01*
X343814Y-1197254D01*
X348640Y-1199743D01*
X353314Y-1200556D01*
X361340Y-1203248D01*
X376986Y-1204010D01*
X378917Y-1204315D01*
X388874Y-1203198D01*
X391007Y-1201470D01*
X394360Y-1199692D01*
X397967Y-1196644D01*
X398373Y-1195374D01*
X400964Y-1192377D01*
X401523Y-1190244D01*
X401574Y-1182217D01*
X400862Y-1178255D01*
X398932Y-1175410D01*
X397408Y-1171194D01*
X394563Y-1168044D01*
X394563Y-1167180D01*
X386842Y-1159560D01*
X385673Y-1159560D01*
X382524Y-1156716D01*
X378714Y-1155039D01*
X377545Y-1153668D01*
X371500Y-1151890D01*
X368960Y-1150315D01*
X363474Y-1148943D01*
X359968Y-1146911D01*
X354990Y-1145082D01*
X353314Y-1143558D01*
X349046Y-1141730D01*
X347319Y-1140053D01*
X343814Y-1138174D01*
X338074Y-1133449D01*
X333806Y-1128826D01*
X330454Y-1124813D01*
X329590Y-1122781D01*
X327710Y-1120800D01*
X326034Y-1116025D01*
X323850Y-1112266D01*
X320954Y-1096721D01*
X320954Y-1090371D01*
X322224Y-1084427D01*
X323850Y-1074877D01*
X325983Y-1070864D01*
X327710Y-1066088D01*
X329031Y-1065022D01*
X330758Y-1061618D01*
X335026Y-1056487D01*
X344678Y-1048003D01*
X346710Y-1047140D01*
X348640Y-1045311D01*
X353314Y-1043482D01*
X355041Y-1041908D01*
X359664Y-1040282D01*
X362864Y-1038148D01*
X368401Y-1036878D01*
X371500Y-1034694D01*
X375970Y-1033729D01*
X378307Y-1031748D01*
X382930Y-1029716D01*
X384149Y-1028293D01*
X386740Y-1026972D01*
X393852Y-1020064D01*
X395732Y-1017117D01*
X397510Y-1015542D01*
X398932Y-1011174D01*
X400608Y-1008938D01*
X401320Y-1005230D01*
X401370Y-997610D01*
X400507Y-994562D01*
X399288Y-994054D01*
X397459Y-990498D01*
X393954Y-987196D01*
X391007Y-985621D01*
X389534Y-983843D01*
X381660Y-982675D01*
G37*
G36*
X171246Y-988923D02*
G01*
X159004Y-990244D01*
X156768Y-990701D01*
X153924Y-992784D01*
X150520Y-993698D01*
X147828Y-996035D01*
X145135Y-997610D01*
X140563Y-1004519D01*
X140563Y-1008837D01*
X155702Y-1008837D01*
X157073Y-1007313D01*
X158038Y-1004569D01*
X161188Y-1002944D01*
X161696Y-1001725D01*
X164896Y-1000810D01*
X172974Y-1000353D01*
X174548Y-1001623D01*
X174447Y-1019098D01*
X173024Y-1020724D01*
X169570Y-1020673D01*
X164236Y-1019911D01*
X162052Y-1018387D01*
X158140Y-1016253D01*
X156565Y-1012037D01*
X155702Y-1008837D01*
X140563Y-1008837D01*
X140563Y-1012596D01*
X142544Y-1014984D01*
X144322Y-1018438D01*
X147574Y-1021334D01*
X149402Y-1022603D01*
X149656Y-1026007D01*
X144272Y-1027836D01*
X141986Y-1030020D01*
X141020Y-1030020D01*
X137109Y-1034034D01*
X135890Y-1036980D01*
X134112Y-1038352D01*
X133400Y-1042060D01*
X133400Y-1046429D01*
X147675Y-1046429D01*
X148031Y-1042416D01*
X151180Y-1038707D01*
X155498Y-1034948D01*
X165557Y-1033424D01*
X170535Y-1032154D01*
X173532Y-1032154D01*
X174447Y-1034897D01*
X174599Y-1056386D01*
X172974Y-1057605D01*
X164439Y-1057249D01*
X159613Y-1054963D01*
X155346Y-1054150D01*
X153720Y-1053287D01*
X147675Y-1046429D01*
X133400Y-1046429D01*
X133400Y-1048410D01*
X134213Y-1052017D01*
X137160Y-1055928D01*
X137160Y-1057148D01*
X140055Y-1058824D01*
X141478Y-1061008D01*
X145846Y-1063040D01*
X147980Y-1064717D01*
X153060Y-1065631D01*
X156667Y-1067714D01*
X163626Y-1068578D01*
X187909Y-1068324D01*
X189687Y-1066698D01*
X189636Y-991717D01*
X188214Y-989837D01*
X186080Y-989025D01*
G37*
G36*
X59893Y-988923D02*
G01*
X52628Y-989228D01*
X50342Y-990701D01*
X49834Y-992022D01*
X51104Y-992987D01*
X53340Y-996543D01*
X54965Y-997407D01*
X56235Y-1000607D01*
X58115Y-1002284D01*
X60096Y-1006246D01*
X61315Y-1006957D01*
X63246Y-1010310D01*
X64871Y-1011478D01*
X66497Y-1014984D01*
X69392Y-1018794D01*
X72390Y-1022299D01*
X72390Y-1023213D01*
X74828Y-1026007D01*
X76352Y-1028953D01*
X79197Y-1032154D01*
X79197Y-1066850D01*
X80873Y-1068527D01*
X91795Y-1068527D01*
X93573Y-1066292D01*
X93573Y-1032205D01*
X96672Y-1028547D01*
X97790Y-1025855D01*
X100330Y-1023315D01*
X100330Y-1022146D01*
X102971Y-1019657D01*
X104952Y-1015796D01*
X106375Y-1014577D01*
X107899Y-1011021D01*
X109677Y-1010107D01*
X111048Y-1007364D01*
X113436Y-1004824D01*
X114706Y-1001725D01*
X116332Y-1000607D01*
X118059Y-997203D01*
X119837Y-995578D01*
X121970Y-991869D01*
X121412Y-990142D01*
X118770Y-988923D01*
X108610Y-989330D01*
X107187Y-989837D01*
X105816Y-992733D01*
X103327Y-994511D01*
X103327Y-995476D01*
X99669Y-1000150D01*
X98602Y-1002690D01*
X96926Y-1003808D01*
X95250Y-1007211D01*
X93980Y-1007668D01*
X92354Y-1010869D01*
X89966Y-1013663D01*
X88290Y-1017117D01*
X84886Y-1017676D01*
X83413Y-1016355D01*
X83413Y-1015187D01*
X80619Y-1012037D01*
X79552Y-1009345D01*
X77419Y-1007364D01*
X75793Y-1004214D01*
X73710Y-1002842D01*
X72796Y-1000048D01*
X71069Y-998474D01*
X69443Y-995324D01*
X66700Y-992428D01*
X64973Y-989584D01*
G37*
G36*
X-34239Y-989380D02*
G01*
X-35560Y-991260D01*
X-35560Y-1046429D01*
X-33070Y-1051102D01*
X-31750Y-1055725D01*
X-30327Y-1056894D01*
X-28143Y-1060297D01*
X-23469Y-1064615D01*
X-20523Y-1066139D01*
X-18186Y-1068070D01*
X-15036Y-1068628D01*
X-12039Y-1069492D01*
X-10058Y-1071321D01*
X10820Y-1071321D01*
X14122Y-1069340D01*
X20421Y-1067765D01*
X22961Y-1065174D01*
X24180Y-1065174D01*
X28448Y-1061161D01*
X31902Y-1057503D01*
X33528Y-1053947D01*
X35052Y-1052220D01*
X35560Y-1050493D01*
X37033Y-1039977D01*
X37287Y-991616D01*
X35052Y-989380D01*
X25552Y-989380D01*
X22860Y-990295D01*
X22047Y-991869D01*
X22047Y-1044346D01*
X21082Y-1048715D01*
X18694Y-1051458D01*
X17830Y-1053693D01*
X14935Y-1054912D01*
X13665Y-1056741D01*
X10820Y-1057605D01*
X203Y-1058722D01*
X-9956Y-1057554D01*
X-12242Y-1056589D01*
X-12242Y-1055979D01*
X-17221Y-1052118D01*
X-19100Y-1048003D01*
X-20929Y-1044600D01*
X-21386Y-991158D01*
X-22961Y-989380D01*
G37*
G36*
X433070Y-998677D02*
G01*
X431901Y-1001420D01*
X431139Y-1014171D01*
X428447Y-1019708D01*
X428447Y-1021283D01*
X427024Y-1026261D01*
X425958Y-1026718D01*
X423773Y-1032459D01*
X422046Y-1033983D01*
X420471Y-1037640D01*
X419100Y-1038148D01*
X417830Y-1040688D01*
X413054Y-1045870D01*
X403961Y-1053846D01*
X401574Y-1055370D01*
X399643Y-1057452D01*
X396646Y-1058011D01*
X393750Y-1060754D01*
X390093Y-1061720D01*
X386943Y-1064209D01*
X382676Y-1064818D01*
X380136Y-1066952D01*
X373329Y-1068578D01*
X370789Y-1070660D01*
X367030Y-1071626D01*
X363474Y-1074470D01*
X362356Y-1074470D01*
X357378Y-1079347D01*
X354025Y-1083005D01*
X352653Y-1088542D01*
X351282Y-1090625D01*
X351282Y-1096314D01*
X352602Y-1098397D01*
X354025Y-1103884D01*
X358394Y-1108760D01*
X362204Y-1112062D01*
X365150Y-1113536D01*
X366877Y-1115110D01*
X371500Y-1116685D01*
X374700Y-1118870D01*
X379577Y-1119479D01*
X381863Y-1120648D01*
X381863Y-1121359D01*
X384200Y-1122222D01*
X388315Y-1123289D01*
X390652Y-1125220D01*
X395325Y-1126998D01*
X396798Y-1128623D01*
X400964Y-1130046D01*
X401980Y-1131671D01*
X404977Y-1133449D01*
X408432Y-1136599D01*
X410057Y-1137107D01*
X411480Y-1139698D01*
X413664Y-1140510D01*
X414426Y-1142542D01*
X416864Y-1144524D01*
X419201Y-1148638D01*
X420370Y-1149045D01*
X422249Y-1153007D01*
X424027Y-1154430D01*
X425145Y-1158798D01*
X427532Y-1161491D01*
X428904Y-1168247D01*
X430479Y-1169924D01*
X431444Y-1173327D01*
X431952Y-1184757D01*
X433120Y-1187602D01*
X435000Y-1187094D01*
X437388Y-1187094D01*
X440690Y-1183690D01*
X441959Y-1183690D01*
X443636Y-1181557D01*
X446684Y-1179474D01*
X459028Y-1166571D01*
X460349Y-1164031D01*
X461924Y-1162913D01*
X463600Y-1159611D01*
X465175Y-1158748D01*
X467106Y-1154277D01*
X468325Y-1153566D01*
X470662Y-1148334D01*
X472084Y-1147165D01*
X473405Y-1142644D01*
X475386Y-1140256D01*
X477012Y-1133805D01*
X478840Y-1131214D01*
X480466Y-1122934D01*
X482244Y-1119886D01*
X483057Y-1113637D01*
X483057Y-1106982D01*
X484835Y-1098397D01*
X484835Y-1089101D01*
X483057Y-1079957D01*
X483057Y-1073404D01*
X482244Y-1067511D01*
X480161Y-1062837D01*
X478891Y-1055420D01*
X476859Y-1052982D01*
X475792Y-1047597D01*
X474929Y-1045870D01*
X473252Y-1044092D01*
X472084Y-1039621D01*
X469950Y-1037386D01*
X468579Y-1033322D01*
X467309Y-1032865D01*
X465328Y-1028344D01*
X463296Y-1027023D01*
X461772Y-1023670D01*
X459790Y-1022400D01*
X459790Y-1021181D01*
X455320Y-1015949D01*
X447293Y-1007770D01*
X442620Y-1004316D01*
X437896Y-1000252D01*
G37*
G36*
X163626Y-1112215D02*
G01*
X145846Y-1112469D01*
X141630Y-1114653D01*
X134010Y-1115618D01*
X131216Y-1116787D01*
X129997Y-1119733D01*
X129997Y-1127963D01*
X131368Y-1129538D01*
X134416Y-1129487D01*
X138176Y-1128623D01*
X140411Y-1127048D01*
X144170Y-1126083D01*
X155651Y-1125423D01*
X167030Y-1126032D01*
X170484Y-1126947D01*
X172466Y-1128674D01*
X176530Y-1129538D01*
X180136Y-1132687D01*
X187452Y-1140155D01*
X188468Y-1144676D01*
X190042Y-1146098D01*
X191058Y-1150874D01*
X190652Y-1157020D01*
X188061Y-1161999D01*
X187452Y-1164996D01*
X179527Y-1173124D01*
X178257Y-1173124D01*
X176123Y-1175512D01*
X171348Y-1176680D01*
X168503Y-1178610D01*
X164896Y-1179626D01*
X145846Y-1179626D01*
X141630Y-1178560D01*
X139903Y-1176934D01*
X134213Y-1175766D01*
X131978Y-1174292D01*
X130200Y-1176121D01*
X129895Y-1185418D01*
X131165Y-1187348D01*
X134670Y-1189736D01*
X144170Y-1191310D01*
X148386Y-1193190D01*
X163220Y-1193241D01*
X167386Y-1191310D01*
X176580Y-1189685D01*
X179019Y-1187653D01*
X182880Y-1186688D01*
X185826Y-1183690D01*
X187096Y-1183690D01*
X191109Y-1180541D01*
X197866Y-1173734D01*
X199034Y-1170787D01*
X201168Y-1169009D01*
X202793Y-1163218D01*
X204724Y-1161186D01*
X204978Y-1144981D01*
X202488Y-1140307D01*
X201066Y-1135481D01*
X199491Y-1134618D01*
X198526Y-1131620D01*
X192430Y-1125474D01*
X188417Y-1122172D01*
X185724Y-1121003D01*
X184607Y-1119479D01*
X179730Y-1117498D01*
X178003Y-1115974D01*
X169265Y-1114247D01*
X167132Y-1112824D01*
G37*
G36*
X43992Y-1112875D02*
G01*
X42722Y-1114145D01*
X41097Y-1120749D01*
X39420Y-1123442D01*
X37795Y-1131671D01*
X35915Y-1134262D01*
X34899Y-1141679D01*
X32562Y-1145590D01*
X31394Y-1152855D01*
X29057Y-1156817D01*
X27990Y-1163574D01*
X25400Y-1168501D01*
X25400Y-1170381D01*
X24180Y-1176223D01*
X22504Y-1178001D01*
X21183Y-1186738D01*
X20269Y-1188364D01*
X20878Y-1189278D01*
X23672Y-1190498D01*
X30429Y-1190498D01*
X32461Y-1189583D01*
X35255Y-1184910D01*
X36372Y-1177239D01*
X38608Y-1174038D01*
X39725Y-1166977D01*
X40386Y-1165301D01*
X41910Y-1163167D01*
X43129Y-1155750D01*
X45669Y-1150467D01*
X46177Y-1147368D01*
X47447Y-1146352D01*
X48615Y-1147318D01*
X49123Y-1151483D01*
X51257Y-1153414D01*
X52933Y-1159002D01*
X54965Y-1160932D01*
X55981Y-1165047D01*
X58369Y-1168044D01*
X59486Y-1172362D01*
X61417Y-1174191D01*
X62738Y-1178610D01*
X64871Y-1181201D01*
X66497Y-1186434D01*
X68427Y-1188567D01*
X69596Y-1190955D01*
X71170Y-1191818D01*
X72491Y-1190701D01*
X74422Y-1186434D01*
X76200Y-1184859D01*
X76758Y-1181049D01*
X79552Y-1177899D01*
X80162Y-1174242D01*
X82956Y-1171143D01*
X83515Y-1167536D01*
X86360Y-1164132D01*
X86360Y-1163167D01*
X87223Y-1160119D01*
X89763Y-1157478D01*
X89763Y-1156411D01*
X90627Y-1153261D01*
X92760Y-1150721D01*
X94030Y-1146505D01*
X94894Y-1145946D01*
X96062Y-1146911D01*
X96621Y-1151636D01*
X99161Y-1156360D01*
X100330Y-1163370D01*
X102514Y-1167130D01*
X103632Y-1174800D01*
X105867Y-1177442D01*
X107035Y-1185316D01*
X109321Y-1189228D01*
X111760Y-1190498D01*
X118770Y-1190498D01*
X121513Y-1188821D01*
X119887Y-1179372D01*
X117652Y-1176172D01*
X116535Y-1168247D01*
X114452Y-1165148D01*
X113385Y-1158494D01*
X110845Y-1153261D01*
X109677Y-1145895D01*
X107543Y-1142796D01*
X106324Y-1135481D01*
X104139Y-1131722D01*
X103022Y-1124204D01*
X100888Y-1121054D01*
X100279Y-1117041D01*
X99415Y-1114044D01*
X98552Y-1112977D01*
X97993Y-1112977D01*
X93573Y-1118057D01*
X91897Y-1123442D01*
X90170Y-1125016D01*
X88849Y-1129538D01*
X86766Y-1131976D01*
X85039Y-1137361D01*
X83108Y-1139240D01*
X81991Y-1143152D01*
X80111Y-1145438D01*
X78282Y-1150874D01*
X76657Y-1152652D01*
X74980Y-1157478D01*
X73355Y-1159560D01*
X71475Y-1164640D01*
X70764Y-1164640D01*
X69240Y-1160678D01*
X67005Y-1158087D01*
X65633Y-1153363D01*
X63957Y-1151839D01*
X62280Y-1146200D01*
X60299Y-1144320D01*
X59182Y-1140002D01*
X56896Y-1137361D01*
X55422Y-1132484D01*
X53848Y-1131011D01*
X52019Y-1125524D01*
X50444Y-1123492D01*
X48615Y-1118717D01*
X47142Y-1117041D01*
X45313Y-1113942D01*
G37*
G36*
X5283Y-1115161D02*
G01*
X-23926Y-1115364D01*
X-27990Y-1117701D01*
X-32664Y-1119327D01*
X-35255Y-1121511D01*
X-38455Y-1123137D01*
X-38912Y-1124661D01*
X-42214Y-1128166D01*
X-43230Y-1132687D01*
X-43688Y-1137767D01*
X-43150Y-1140866D01*
X-28854Y-1140866D01*
X-28803Y-1133957D01*
X-27635Y-1130554D01*
X-23469Y-1128623D01*
X-20370Y-1126490D01*
X-6908Y-1125677D01*
X-5486Y-1127252D01*
X-5486Y-1148029D01*
X-6756Y-1149096D01*
X-18846Y-1148740D01*
X-22656Y-1146454D01*
X-27178Y-1144625D01*
X-28854Y-1140866D01*
X-43150Y-1140866D01*
X-42316Y-1145336D01*
X-39776Y-1147978D01*
X-39776Y-1148791D01*
X-35102Y-1153210D01*
X-33934Y-1153210D01*
X-30480Y-1156106D01*
X-26873Y-1156665D01*
X-23926Y-1157579D01*
X-23266Y-1158494D01*
X-23266Y-1161338D01*
X-25806Y-1163472D01*
X-25806Y-1164590D01*
X-28143Y-1166571D01*
X-30480Y-1170178D01*
X-31191Y-1170178D01*
X-33578Y-1173734D01*
X-34696Y-1174445D01*
X-36931Y-1178255D01*
X-39370Y-1180693D01*
X-39370Y-1181963D01*
X-42214Y-1184148D01*
X-43230Y-1186586D01*
X-45364Y-1188415D01*
X-44399Y-1189583D01*
X-40081Y-1190599D01*
X-30683Y-1190142D01*
X-24536Y-1182827D01*
X-24536Y-1181658D01*
X-21996Y-1179830D01*
X-21488Y-1177747D01*
X-19253Y-1176020D01*
X-14173Y-1169162D01*
X-11531Y-1166114D01*
X-10972Y-1164234D01*
X-8432Y-1162456D01*
X-8432Y-1161389D01*
X-6756Y-1159865D01*
X-5537Y-1160932D01*
X-5283Y-1188770D01*
X-3759Y-1190244D01*
X5791Y-1190244D01*
X7924Y-1188872D01*
X8483Y-1184859D01*
X8483Y-1117396D01*
X7213Y-1115618D01*
G37*
D10*
X2063996Y-538660D02*
G01*
X2038019Y-647763D01*
X2012040Y-538660D02*
G01*
X2038019Y-647763D01*
X2012040Y-538660D02*
G01*
X1986064Y-647763D01*
X1960087Y-538660D02*
G01*
X1986064Y-647763D01*
X1925797Y-538660D02*
G01*
X1920600Y-543854D01*
X1915406Y-538660D01*
X1920600Y-533463D01*
X1925797Y-538660D01*
X1920600Y-575028D02*
G01*
X1920600Y-647763D01*
X1881116Y-575028D02*
G01*
X1881116Y-647763D01*
X1881116Y-595810D02*
G01*
X1865530Y-580224D01*
X1855139Y-575028D01*
X1839551Y-575028D01*
X1829160Y-580224D01*
X1823966Y-595810D01*
X1823966Y-647763D01*
X1727332Y-575028D02*
G01*
X1727332Y-658154D01*
X1732526Y-673742D01*
X1737720Y-678936D01*
X1748111Y-684133D01*
X1763699Y-684133D01*
X1774090Y-678936D01*
X1727332Y-590613D02*
G01*
X1737720Y-580224D01*
X1748111Y-575028D01*
X1763699Y-575028D01*
X1774090Y-580224D01*
X1784482Y-590613D01*
X1789676Y-606201D01*
X1789676Y-616592D01*
X1784482Y-632178D01*
X1774090Y-642569D01*
X1763699Y-647763D01*
X1748111Y-647763D01*
X1737720Y-642569D01*
X1727332Y-632178D01*
X2063996Y-754560D02*
G01*
X2063996Y-863663D01*
X2063996Y-754560D02*
G01*
X2017237Y-754560D01*
X2001652Y-759754D01*
X1996455Y-764951D01*
X1991260Y-775342D01*
X1991260Y-785733D01*
X1996455Y-796124D01*
X2001652Y-801319D01*
X2017237Y-806513D01*
X2063996Y-806513D02*
G01*
X2017237Y-806513D01*
X2001652Y-811710D01*
X1996455Y-816904D01*
X1991260Y-827295D01*
X1991260Y-842883D01*
X1996455Y-853274D01*
X2001652Y-858469D01*
X2017237Y-863663D01*
X2063996Y-863663D01*
X1930991Y-790928D02*
G01*
X1941382Y-796124D01*
X1951774Y-806513D01*
X1956970Y-822101D01*
X1956970Y-832492D01*
X1951774Y-848078D01*
X1941382Y-858469D01*
X1930991Y-863663D01*
X1915406Y-863663D01*
X1905015Y-858469D01*
X1894624Y-848078D01*
X1889429Y-832492D01*
X1889429Y-822101D01*
X1894624Y-806513D01*
X1905015Y-796124D01*
X1915406Y-790928D01*
X1930991Y-790928D01*
X1855139Y-790928D02*
G01*
X1834357Y-863663D01*
X1813575Y-790928D02*
G01*
X1834357Y-863663D01*
X1813575Y-790928D02*
G01*
X1792792Y-863663D01*
X1772010Y-790928D02*
G01*
X1792792Y-863663D01*
X1737720Y-754560D02*
G01*
X1737720Y-863663D01*
X1703430Y-822101D02*
G01*
X1641086Y-822101D01*
X1641086Y-811710D01*
X1646280Y-801319D01*
X1651477Y-796124D01*
X1661868Y-790928D01*
X1677454Y-790928D01*
X1687845Y-796124D01*
X1698236Y-806513D01*
X1703430Y-822101D01*
X1703430Y-832492D01*
X1698236Y-848078D01*
X1687845Y-858469D01*
X1677454Y-863663D01*
X1661868Y-863663D01*
X1651477Y-858469D01*
X1641086Y-848078D01*
X1606796Y-790928D02*
G01*
X1606796Y-863663D01*
X1606796Y-822101D02*
G01*
X1601602Y-806513D01*
X1591210Y-796124D01*
X1580819Y-790928D01*
X1565231Y-790928D01*
X2063996Y-970460D02*
G01*
X2063996Y-1048392D01*
X2058802Y-1063978D01*
X2048410Y-1074369D01*
X2032822Y-1079563D01*
X2022431Y-1079563D01*
X2006846Y-1074369D01*
X1996455Y-1063978D01*
X1991260Y-1048392D01*
X1991260Y-970460D01*
X1899820Y-1022413D02*
G01*
X1905015Y-1012024D01*
X1920600Y-1006828D01*
X1936188Y-1006828D01*
X1951774Y-1012024D01*
X1956970Y-1022413D01*
X1951774Y-1032804D01*
X1941382Y-1038001D01*
X1915406Y-1043195D01*
X1905015Y-1048392D01*
X1899820Y-1058783D01*
X1899820Y-1063978D01*
X1905015Y-1074369D01*
X1920600Y-1079563D01*
X1936188Y-1079563D01*
X1951774Y-1074369D01*
X1956970Y-1063978D01*
X1865530Y-1038001D02*
G01*
X1803184Y-1038001D01*
X1803184Y-1027610D01*
X1808380Y-1017219D01*
X1813575Y-1012024D01*
X1823966Y-1006828D01*
X1839551Y-1006828D01*
X1849942Y-1012024D01*
X1860334Y-1022413D01*
X1865530Y-1038001D01*
X1865530Y-1048392D01*
X1860334Y-1063978D01*
X1849942Y-1074369D01*
X1839551Y-1079563D01*
X1823966Y-1079563D01*
X1813575Y-1074369D01*
X1803184Y-1063978D01*
X1768894Y-1006828D02*
G01*
X1737720Y-1079563D01*
X1706549Y-1006828D02*
G01*
X1737720Y-1079563D01*
X1672259Y-970460D02*
G01*
X1667062Y-975654D01*
X1661868Y-970460D01*
X1667062Y-965263D01*
X1672259Y-970460D01*
X1667062Y-1006828D02*
G01*
X1667062Y-1079563D01*
X1611990Y-970460D02*
G01*
X1611990Y-1058783D01*
X1606796Y-1074369D01*
X1596405Y-1079563D01*
X1586014Y-1079563D01*
X1627578Y-1006828D02*
G01*
X1591210Y-1006828D01*
X1489379Y-1022413D02*
G01*
X1499770Y-1012024D01*
X1510162Y-1006828D01*
X1525747Y-1006828D01*
X1536138Y-1012024D01*
X1546529Y-1022413D01*
X1551724Y-1038001D01*
X1551724Y-1048392D01*
X1546529Y-1063978D01*
X1536138Y-1074369D01*
X1525747Y-1079563D01*
X1510162Y-1079563D01*
X1499770Y-1074369D01*
X1489379Y-1063978D01*
X1455089Y-970460D02*
G01*
X1455089Y-1079563D01*
X1455089Y-1027610D02*
G01*
X1439501Y-1012024D01*
X1429110Y-1006828D01*
X1413525Y-1006828D01*
X1403134Y-1012024D01*
X1397939Y-1027610D01*
X1397939Y-1079563D01*
X2063996Y-1186360D02*
G01*
X2063996Y-1295463D01*
X2063996Y-1186360D02*
G01*
X2017237Y-1186360D01*
X2001652Y-1191554D01*
X1996455Y-1196751D01*
X1991260Y-1207142D01*
X1991260Y-1217533D01*
X1996455Y-1227924D01*
X2001652Y-1233119D01*
X2017237Y-1238313D01*
X2063996Y-1238313D02*
G01*
X2017237Y-1238313D01*
X2001652Y-1243510D01*
X1996455Y-1248704D01*
X1991260Y-1259095D01*
X1991260Y-1274683D01*
X1996455Y-1285074D01*
X2001652Y-1290269D01*
X2017237Y-1295463D01*
X2063996Y-1295463D01*
X1956970Y-1222728D02*
G01*
X1956970Y-1295463D01*
X1956970Y-1253901D02*
G01*
X1951774Y-1238313D01*
X1941382Y-1227924D01*
X1930991Y-1222728D01*
X1915406Y-1222728D01*
X1881116Y-1186360D02*
G01*
X1875922Y-1191554D01*
X1870725Y-1186360D01*
X1875922Y-1181163D01*
X1881116Y-1186360D01*
X1875922Y-1222728D02*
G01*
X1875922Y-1295463D01*
X1774090Y-1186360D02*
G01*
X1774090Y-1295463D01*
X1774090Y-1238313D02*
G01*
X1784482Y-1227924D01*
X1794870Y-1222728D01*
X1810458Y-1222728D01*
X1820849Y-1227924D01*
X1831240Y-1238313D01*
X1836435Y-1253901D01*
X1836435Y-1264292D01*
X1831240Y-1279878D01*
X1820849Y-1290269D01*
X1810458Y-1295463D01*
X1794870Y-1295463D01*
X1784482Y-1290269D01*
X1774090Y-1279878D01*
X1677454Y-1222728D02*
G01*
X1677454Y-1305854D01*
X1682650Y-1321442D01*
X1687845Y-1326636D01*
X1698236Y-1331833D01*
X1713821Y-1331833D01*
X1724212Y-1326636D01*
X1677454Y-1238313D02*
G01*
X1687845Y-1227924D01*
X1698236Y-1222728D01*
X1713821Y-1222728D01*
X1724212Y-1227924D01*
X1734604Y-1238313D01*
X1739800Y-1253901D01*
X1739800Y-1264292D01*
X1734604Y-1279878D01*
X1724212Y-1290269D01*
X1713821Y-1295463D01*
X1698236Y-1295463D01*
X1687845Y-1290269D01*
X1677454Y-1279878D01*
X1643164Y-1253901D02*
G01*
X1580819Y-1253901D01*
X1580819Y-1243510D01*
X1586014Y-1233119D01*
X1591210Y-1227924D01*
X1601602Y-1222728D01*
X1617187Y-1222728D01*
X1627578Y-1227924D01*
X1637969Y-1238313D01*
X1643164Y-1253901D01*
X1643164Y-1264292D01*
X1637969Y-1279878D01*
X1627578Y-1290269D01*
X1617187Y-1295463D01*
X1601602Y-1295463D01*
X1591210Y-1290269D01*
X1580819Y-1279878D01*
M02*
