G04 Layer: TopSilkscreenLayer*
G04 EasyEDA v6.5.57, 2026-07-14 18:02:30*
G04 21e4934d8d62410c90c9ba8735cb0da7,29b7a93777c744eeace5641c7525114a,10*
G04 Gerber Generator version 0.2*
G04 Scale: 100 percent, Rotated: No, Reflected: No *
G04 Dimensions in millimeters *
G04 leading zeros omitted , absolute positions ,4 integer and 5 decimal *
%FSLAX45Y45*%
%MOMM*%

%ADD10C,0.1524*%
%ADD11C,0.2540*%
%ADD12C,0.2032*%
%ADD13C,0.2030*%
%ADD14C,0.0108*%

%LPD*%
D10*
X1837682Y-2900362D02*
G01*
X1837682Y-2993834D01*
X1790946Y-2947098D02*
G01*
X1884418Y-2947098D01*
X1790946Y-2696971D02*
G01*
X1884418Y-2696971D01*
X1832683Y-2080351D02*
G01*
X1832683Y-2173823D01*
X1785947Y-2127087D02*
G01*
X1879419Y-2127087D01*
X1793946Y-2396959D02*
G01*
X1887418Y-2396959D01*
X1866257Y-3186684D02*
G01*
X1861177Y-3176270D01*
X1845429Y-3170936D01*
X1829935Y-3170936D01*
X1814441Y-3176270D01*
X1809107Y-3186684D01*
X1814441Y-3197097D01*
X1824855Y-3202178D01*
X1850763Y-3207512D01*
X1861177Y-3212592D01*
X1866257Y-3223005D01*
X1866257Y-3228086D01*
X1861177Y-3238500D01*
X1845429Y-3243834D01*
X1829935Y-3243834D01*
X1814441Y-3238500D01*
X1809107Y-3228086D01*
X1862096Y-1870687D02*
G01*
X1857016Y-1860273D01*
X1841268Y-1854939D01*
X1825774Y-1854939D01*
X1810280Y-1860273D01*
X1804946Y-1870687D01*
X1810280Y-1881101D01*
X1820694Y-1886181D01*
X1846602Y-1891515D01*
X1857016Y-1896595D01*
X1862096Y-1907009D01*
X1862096Y-1912089D01*
X1857016Y-1922503D01*
X1841268Y-1927837D01*
X1825774Y-1927837D01*
X1810280Y-1922503D01*
X1804946Y-1912089D01*
X97436Y-2696971D02*
G01*
X190908Y-2696971D01*
X144172Y-2900362D02*
G01*
X144172Y-2993834D01*
X97436Y-2947098D02*
G01*
X190908Y-2947098D01*
X172745Y-3186684D02*
G01*
X167665Y-3176270D01*
X151917Y-3170936D01*
X136423Y-3170936D01*
X120929Y-3176270D01*
X115595Y-3186684D01*
X120929Y-3197097D01*
X131343Y-3202178D01*
X157251Y-3207512D01*
X167665Y-3212592D01*
X172745Y-3223005D01*
X172745Y-3228086D01*
X167665Y-3238500D01*
X151917Y-3243834D01*
X136423Y-3243834D01*
X120929Y-3238500D01*
X115595Y-3228086D01*
X177088Y-1872673D02*
G01*
X172008Y-1862259D01*
X156260Y-1856925D01*
X140766Y-1856925D01*
X125272Y-1862259D01*
X119938Y-1872673D01*
X125272Y-1883087D01*
X135686Y-1888167D01*
X161594Y-1893501D01*
X172008Y-1898581D01*
X177088Y-1908995D01*
X177088Y-1914075D01*
X172008Y-1924489D01*
X156260Y-1929823D01*
X140766Y-1929823D01*
X125272Y-1924489D01*
X119938Y-1914075D01*
X144172Y-2100287D02*
G01*
X144172Y-2193759D01*
X97436Y-2147023D02*
G01*
X190908Y-2147023D01*
X104940Y-2402946D02*
G01*
X198412Y-2402946D01*
X200040Y-797052D02*
G01*
X293512Y-797052D01*
X1709272Y-257845D02*
G01*
X1709272Y-351325D01*
X1662521Y-304573D02*
G01*
X1755995Y-304573D01*
X1662531Y-797034D02*
G01*
X1755988Y-797034D01*
X200040Y-4747110D02*
G01*
X293509Y-4747110D01*
X1662523Y-4747039D02*
G01*
X1755995Y-4747039D01*
X246776Y-4200144D02*
G01*
X246776Y-4293870D01*
X200040Y-4247134D02*
G01*
X293512Y-4247134D01*
X1709237Y-4200116D02*
G01*
X1709237Y-4293829D01*
X1662534Y-4247100D02*
G01*
X1755980Y-4247100D01*
X231000Y-1655274D02*
G01*
X293230Y-1655274D01*
X293230Y-1644860D01*
X288150Y-1634446D01*
X283070Y-1629112D01*
X272656Y-1624032D01*
X256908Y-1624032D01*
X246494Y-1629112D01*
X236080Y-1639526D01*
X231000Y-1655274D01*
X231000Y-1665688D01*
X236080Y-1681182D01*
X246494Y-1691596D01*
X256908Y-1696676D01*
X272656Y-1696676D01*
X283070Y-1691596D01*
X293230Y-1681182D01*
X327520Y-1624032D02*
G01*
X384670Y-1696676D01*
X384670Y-1624032D02*
G01*
X327520Y-1696676D01*
X434708Y-1587710D02*
G01*
X434708Y-1676102D01*
X439788Y-1691596D01*
X450202Y-1696676D01*
X460616Y-1696676D01*
X418960Y-1624032D02*
G01*
X455536Y-1624032D01*
X256687Y-257848D02*
G01*
X256687Y-351327D01*
X209936Y-304576D02*
G01*
X303410Y-304576D01*
X1538003Y-1610306D02*
G01*
X1548417Y-1605226D01*
X1563911Y-1589732D01*
X1563911Y-1698698D01*
X1598201Y-1568904D02*
G01*
X1598201Y-1735020D01*
X1658399Y-1589732D02*
G01*
X1642905Y-1594812D01*
X1637825Y-1605226D01*
X1637825Y-1615640D01*
X1642905Y-1626054D01*
X1653319Y-1631134D01*
X1674147Y-1636468D01*
X1689641Y-1641548D01*
X1700055Y-1651962D01*
X1705389Y-1662376D01*
X1705389Y-1677870D01*
X1700055Y-1688284D01*
X1694975Y-1693618D01*
X1679227Y-1698698D01*
X1658399Y-1698698D01*
X1642905Y-1693618D01*
X1637825Y-1688284D01*
X1632491Y-1677870D01*
X1632491Y-1662376D01*
X1637825Y-1651962D01*
X1648239Y-1641548D01*
X1663733Y-1636468D01*
X1684561Y-1631134D01*
X1694975Y-1626054D01*
X1700055Y-1615640D01*
X1700055Y-1605226D01*
X1694975Y-1594812D01*
X1679227Y-1589732D01*
X1658399Y-1589732D01*
X1584088Y-3410712D02*
G01*
X1584088Y-3405378D01*
X1589422Y-3394963D01*
X1594502Y-3389884D01*
X1604916Y-3384550D01*
X1625744Y-3384550D01*
X1636158Y-3389884D01*
X1641238Y-3394963D01*
X1646572Y-3405378D01*
X1646572Y-3415792D01*
X1641238Y-3426205D01*
X1630824Y-3441700D01*
X1579008Y-3493770D01*
X1651652Y-3493770D01*
X1685942Y-3363976D02*
G01*
X1685942Y-3530092D01*
X1787796Y-3421126D02*
G01*
X1782716Y-3436620D01*
X1772302Y-3447034D01*
X1756554Y-3452113D01*
X1751474Y-3452113D01*
X1735980Y-3447034D01*
X1725566Y-3436620D01*
X1720232Y-3421126D01*
X1720232Y-3415792D01*
X1725566Y-3400297D01*
X1735980Y-3389884D01*
X1751474Y-3384550D01*
X1756554Y-3384550D01*
X1772302Y-3389884D01*
X1782716Y-3400297D01*
X1787796Y-3421126D01*
X1787796Y-3447034D01*
X1782716Y-3472942D01*
X1772302Y-3488689D01*
X1756554Y-3493770D01*
X1746394Y-3493770D01*
X1730646Y-3488689D01*
X1725566Y-3478276D01*
X1207373Y-1582732D02*
G01*
X1264523Y-1582732D01*
X1233281Y-1624134D01*
X1249029Y-1624134D01*
X1259443Y-1629468D01*
X1264523Y-1634548D01*
X1269857Y-1650296D01*
X1269857Y-1660456D01*
X1264523Y-1676204D01*
X1254109Y-1686618D01*
X1238615Y-1691698D01*
X1222867Y-1691698D01*
X1207373Y-1686618D01*
X1202293Y-1681284D01*
X1196959Y-1670870D01*
X1304147Y-1561904D02*
G01*
X1304147Y-1728020D01*
X1338437Y-1603306D02*
G01*
X1348597Y-1598226D01*
X1364345Y-1582732D01*
X1364345Y-1691698D01*
X1429877Y-1582732D02*
G01*
X1414129Y-1587812D01*
X1403715Y-1603306D01*
X1398635Y-1629468D01*
X1398635Y-1644962D01*
X1403715Y-1670870D01*
X1414129Y-1686618D01*
X1429877Y-1691698D01*
X1440037Y-1691698D01*
X1455785Y-1686618D01*
X1466199Y-1670870D01*
X1471279Y-1644962D01*
X1471279Y-1629468D01*
X1466199Y-1603306D01*
X1455785Y-1587812D01*
X1440037Y-1582732D01*
X1429877Y-1582732D01*
X1281028Y-3384550D02*
G01*
X1228958Y-3457447D01*
X1306936Y-3457447D01*
X1281028Y-3384550D02*
G01*
X1281028Y-3493770D01*
X1341226Y-3363976D02*
G01*
X1341226Y-3530092D01*
X1375516Y-3405378D02*
G01*
X1385930Y-3400297D01*
X1401424Y-3384550D01*
X1401424Y-3493770D01*
X1435714Y-3405378D02*
G01*
X1446128Y-3400297D01*
X1461876Y-3384550D01*
X1461876Y-3493770D01*
X547392Y-3384550D02*
G01*
X495322Y-3384550D01*
X490242Y-3431539D01*
X495322Y-3426205D01*
X511070Y-3421126D01*
X526564Y-3421126D01*
X542058Y-3426205D01*
X552472Y-3436620D01*
X557806Y-3452113D01*
X557806Y-3462528D01*
X552472Y-3478276D01*
X542058Y-3488689D01*
X526564Y-3493770D01*
X511070Y-3493770D01*
X495322Y-3488689D01*
X490242Y-3483355D01*
X484908Y-3472942D01*
X592096Y-3363976D02*
G01*
X592096Y-3530092D01*
X626386Y-3405378D02*
G01*
X636800Y-3400297D01*
X652294Y-3384550D01*
X652294Y-3493770D01*
X691664Y-3410712D02*
G01*
X691664Y-3405378D01*
X696998Y-3394963D01*
X702078Y-3389884D01*
X712492Y-3384550D01*
X733320Y-3384550D01*
X743734Y-3389884D01*
X748814Y-3394963D01*
X754148Y-3405378D01*
X754148Y-3415792D01*
X748814Y-3426205D01*
X738654Y-3441700D01*
X686584Y-3493770D01*
X759228Y-3493770D01*
X595381Y-1605226D02*
G01*
X590047Y-1594812D01*
X574553Y-1589732D01*
X564139Y-1589732D01*
X548645Y-1594812D01*
X538231Y-1610306D01*
X532897Y-1636468D01*
X532897Y-1662376D01*
X538231Y-1683204D01*
X548645Y-1693618D01*
X564139Y-1698698D01*
X569473Y-1698698D01*
X584967Y-1693618D01*
X595381Y-1683204D01*
X600461Y-1667456D01*
X600461Y-1662376D01*
X595381Y-1646882D01*
X584967Y-1636468D01*
X569473Y-1631134D01*
X564139Y-1631134D01*
X548645Y-1636468D01*
X538231Y-1646882D01*
X532897Y-1662376D01*
X634751Y-1568904D02*
G01*
X634751Y-1735020D01*
X669041Y-1610306D02*
G01*
X679455Y-1605226D01*
X695203Y-1589732D01*
X695203Y-1698698D01*
X739653Y-1589732D02*
G01*
X796803Y-1589732D01*
X765815Y-1631134D01*
X781309Y-1631134D01*
X791723Y-1636468D01*
X796803Y-1641548D01*
X802137Y-1657296D01*
X802137Y-1667456D01*
X796803Y-1683204D01*
X786643Y-1693618D01*
X770895Y-1698698D01*
X755401Y-1698698D01*
X739653Y-1693618D01*
X734573Y-1688284D01*
X729493Y-1677870D01*
X357642Y-3384765D02*
G01*
X305826Y-3493731D01*
X284998Y-3384765D02*
G01*
X357642Y-3384765D01*
D11*
X891298Y-118198D02*
G01*
X840498Y-118198D01*
X865898Y-92798D02*
G01*
X865898Y-143598D01*
X370001Y-39999D02*
G01*
X370598Y-829398D01*
X929998Y-39999D02*
G01*
X929398Y-829398D01*
X929998Y-39999D02*
G01*
X370001Y-39999D01*
X1541297Y-118198D02*
G01*
X1490497Y-118198D01*
X1515897Y-92798D02*
G01*
X1515897Y-143598D01*
X1020000Y-39999D02*
G01*
X1020597Y-829398D01*
X1579996Y-39999D02*
G01*
X1579397Y-829398D01*
X1579996Y-39999D02*
G01*
X1020000Y-39999D01*
X891298Y-4068190D02*
G01*
X840498Y-4068190D01*
X865898Y-4042790D02*
G01*
X865898Y-4093590D01*
X370001Y-3989992D02*
G01*
X370598Y-4779390D01*
X929998Y-3989992D02*
G01*
X929398Y-4779390D01*
X929998Y-3989992D02*
G01*
X370001Y-3989992D01*
X1541297Y-4068190D02*
G01*
X1490497Y-4068190D01*
X1515897Y-4042790D02*
G01*
X1515897Y-4093590D01*
X1020000Y-3989992D02*
G01*
X1020597Y-4779390D01*
X1579996Y-3989992D02*
G01*
X1579397Y-4779390D01*
X1579996Y-3989992D02*
G01*
X1020000Y-3989992D01*
X1674997Y-1424998D02*
G01*
X1634997Y-1424998D01*
X324987Y-1179997D02*
G01*
X1674995Y-1179997D01*
X1674995Y-1179997D02*
G01*
X1674995Y-1529996D01*
X1674995Y-1529999D02*
G01*
X324987Y-1529999D01*
X324987Y-1529999D02*
G01*
X324987Y-1179997D01*
X1674997Y-1359999D02*
G01*
X1634997Y-1359999D01*
X964933Y-1494993D02*
G01*
X364985Y-1494993D01*
X364985Y-1219911D01*
X1634985Y-1219911D01*
X1634985Y-1494993D01*
X964933Y-1494993D01*
X364992Y-1359999D02*
G01*
X324998Y-1359999D01*
X364992Y-1425000D02*
G01*
X324998Y-1425000D01*
X1674997Y-3824993D02*
G01*
X1634997Y-3824993D01*
X324987Y-3579992D02*
G01*
X1674995Y-3579992D01*
X1674995Y-3579992D02*
G01*
X1674995Y-3929992D01*
X1674995Y-3929994D02*
G01*
X324987Y-3929994D01*
X324987Y-3929994D02*
G01*
X324987Y-3579992D01*
X1674997Y-3759995D02*
G01*
X1634997Y-3759995D01*
X964933Y-3894988D02*
G01*
X364985Y-3894988D01*
X364985Y-3619906D01*
X1634985Y-3619906D01*
X1634985Y-3894988D01*
X964933Y-3894988D01*
X364992Y-3759995D02*
G01*
X324998Y-3759995D01*
X364992Y-3824996D02*
G01*
X324998Y-3824996D01*
D12*
X1755995Y-1959495D02*
G01*
X1755995Y-1768995D01*
X1501995Y-1768995D01*
X1501995Y-2530995D01*
X1755995Y-2530995D01*
D13*
X1755995Y-2530995D02*
G01*
X1755995Y-1959495D01*
D12*
X1501995Y-3140494D02*
G01*
X1501995Y-3330994D01*
X1755995Y-3330994D01*
X1755995Y-2568994D01*
X1501995Y-2568994D01*
D13*
X1501995Y-2568994D02*
G01*
X1501995Y-3140494D01*
D12*
X1455996Y-1959495D02*
G01*
X1455996Y-1768995D01*
X1201996Y-1768995D01*
X1201996Y-2530995D01*
X1455996Y-2530995D01*
D13*
X1455996Y-2530995D02*
G01*
X1455996Y-1959495D01*
D12*
X1201996Y-3140494D02*
G01*
X1201996Y-3330994D01*
X1455996Y-3330994D01*
X1455996Y-2568994D01*
X1201996Y-2568994D01*
D13*
X1201996Y-2568994D02*
G01*
X1201996Y-3140494D01*
D12*
X557997Y-3140494D02*
G01*
X557997Y-3330994D01*
X811997Y-3330994D01*
X811997Y-2568994D01*
X557997Y-2568994D01*
D13*
X557997Y-2568994D02*
G01*
X557997Y-3140494D01*
D12*
X811997Y-1959495D02*
G01*
X811997Y-1768995D01*
X557997Y-1768995D01*
X557997Y-2530995D01*
X811997Y-2530995D01*
D13*
X811997Y-2530995D02*
G01*
X811997Y-1959495D01*
D12*
X257997Y-3140494D02*
G01*
X257997Y-3330994D01*
X511997Y-3330994D01*
X511997Y-2568994D01*
X257997Y-2568994D01*
D13*
X257997Y-2568994D02*
G01*
X257997Y-3140494D01*
D12*
X511997Y-1959495D02*
G01*
X511997Y-1768995D01*
X257997Y-1768995D01*
X257997Y-2530995D01*
X511997Y-2530995D01*
D13*
X511997Y-2530995D02*
G01*
X511997Y-1959495D01*
D11*
G75*
G01*
X929653Y-829368D02*
G02*
X370345Y-829432I-279654J-32D01*
G75*
G01*
X1579651Y-829368D02*
G02*
X1020343Y-829432I-279654J-32D01*
G75*
G01*
X929653Y-4779361D02*
G02*
X370345Y-4779424I-279654J-31D01*
G75*
G01*
X1579651Y-4779361D02*
G02*
X1020343Y-4779424I-279654J-31D01*
M02*
