G04 Layer: TopLayer*
G04 EasyEDA v6.5.57, 2026-07-14 18:02:30*
G04 21e4934d8d62410c90c9ba8735cb0da7,29b7a93777c744eeace5641c7525114a,10*
G04 Gerber Generator version 0.2*
G04 Scale: 100 percent, Rotated: No, Reflected: No *
G04 Dimensions in millimeters *
G04 leading zeros omitted , absolute positions ,4 integer and 5 decimal *
%FSLAX45Y45*%
%MOMM*%

%ADD10C,0.3250*%
%ADD11C,3.5000*%
%ADD12O,1.099998X1.299997*%
%ADD13C,1.5748*%
%ADD14R,1.5748X1.5748*%
%ADD15R,0.0147X1.5748*%

%LPD*%
G36*
X-98755Y-5054092D02*
G01*
X-111252Y-5053126D01*
X-121513Y-5050790D01*
X-131368Y-5046980D01*
X-140614Y-5041849D01*
X-148996Y-5035448D01*
X-156362Y-5027879D01*
X-162610Y-5019395D01*
X-167589Y-5010048D01*
X-171196Y-5000142D01*
X-173329Y-4989779D01*
X-174091Y-4978755D01*
X-174091Y-101244D01*
X-173126Y-88747D01*
X-170789Y-78486D01*
X-166979Y-68630D01*
X-161848Y-59385D01*
X-155448Y-51003D01*
X-147878Y-43637D01*
X-139395Y-37388D01*
X-130048Y-32410D01*
X-120142Y-28803D01*
X-109829Y-26670D01*
X-98755Y-25908D01*
X2073757Y-25908D01*
X2086254Y-26873D01*
X2096516Y-29209D01*
X2106371Y-33020D01*
X2115616Y-38150D01*
X2123998Y-44551D01*
X2131364Y-52120D01*
X2137613Y-60604D01*
X2142591Y-69951D01*
X2146198Y-79857D01*
X2148332Y-90170D01*
X2149094Y-101244D01*
X2149094Y-4978755D01*
X2148128Y-4991252D01*
X2145792Y-5001514D01*
X2141982Y-5011369D01*
X2136851Y-5020614D01*
X2130450Y-5028996D01*
X2122881Y-5036362D01*
X2114397Y-5042611D01*
X2105050Y-5047589D01*
X2095144Y-5051196D01*
X2084832Y-5053330D01*
X2073757Y-5054092D01*
G37*

%LPC*%
G36*
X1977339Y-5005832D02*
G01*
X1981454Y-5005679D01*
X1994814Y-5004257D01*
X1998878Y-5003546D01*
X2011883Y-5000294D01*
X2015845Y-4999024D01*
X2028291Y-4993995D01*
X2032000Y-4992166D01*
X2043633Y-4985461D01*
X2047087Y-4983124D01*
X2057654Y-4974894D01*
X2060752Y-4972100D01*
X2070049Y-4962448D01*
X2072690Y-4959299D01*
X2080615Y-4948428D01*
X2082800Y-4944922D01*
X2089099Y-4933035D01*
X2090775Y-4929276D01*
X2095398Y-4916678D01*
X2096516Y-4912664D01*
X2099310Y-4899558D01*
X2099868Y-4895443D01*
X2100834Y-4882083D01*
X2100834Y-4877917D01*
X2099868Y-4864506D01*
X2099310Y-4860442D01*
X2096516Y-4847285D01*
X2095398Y-4843322D01*
X2090775Y-4830724D01*
X2089099Y-4826914D01*
X2082800Y-4815078D01*
X2080615Y-4811572D01*
X2072690Y-4800701D01*
X2070049Y-4797501D01*
X2060752Y-4787849D01*
X2057654Y-4785106D01*
X2047087Y-4776825D01*
X2043633Y-4774539D01*
X2032000Y-4767834D01*
X2028291Y-4766005D01*
X2015845Y-4760976D01*
X2011883Y-4759706D01*
X1998878Y-4756454D01*
X1994814Y-4755743D01*
X1981454Y-4754321D01*
X1977339Y-4754168D01*
X1963928Y-4754626D01*
X1959762Y-4755083D01*
X1946554Y-4757420D01*
X1942541Y-4758385D01*
X1929790Y-4762550D01*
X1925929Y-4764125D01*
X1913889Y-4769967D01*
X1910283Y-4772050D01*
X1899157Y-4779568D01*
X1895906Y-4782108D01*
X1885950Y-4791100D01*
X1883054Y-4794097D01*
X1874418Y-4804359D01*
X1871980Y-4807712D01*
X1864868Y-4819091D01*
X1862937Y-4822748D01*
X1857451Y-4834991D01*
X1856028Y-4838903D01*
X1852371Y-4851806D01*
X1851507Y-4855870D01*
X1849628Y-4869129D01*
X1849323Y-4873294D01*
X1849323Y-4886706D01*
X1849628Y-4890820D01*
X1851507Y-4904130D01*
X1852371Y-4908194D01*
X1856028Y-4921097D01*
X1857451Y-4924958D01*
X1862937Y-4937252D01*
X1864868Y-4940909D01*
X1871980Y-4952288D01*
X1874418Y-4955641D01*
X1883054Y-4965903D01*
X1885950Y-4968900D01*
X1895906Y-4977841D01*
X1899157Y-4980432D01*
X1910283Y-4987899D01*
X1913889Y-4989982D01*
X1925929Y-4995875D01*
X1929790Y-4997450D01*
X1942541Y-5001564D01*
X1946554Y-5002580D01*
X1959762Y-5004917D01*
X1963928Y-5005324D01*
G37*
G36*
X2336Y-5005832D02*
G01*
X6451Y-5005679D01*
X19812Y-5004257D01*
X23876Y-5003546D01*
X36931Y-5000294D01*
X40843Y-4999024D01*
X53289Y-4993995D01*
X56997Y-4992166D01*
X68630Y-4985461D01*
X72085Y-4983124D01*
X82651Y-4974894D01*
X85750Y-4972100D01*
X95046Y-4962448D01*
X97739Y-4959299D01*
X105613Y-4948428D01*
X107797Y-4944922D01*
X114096Y-4933035D01*
X115773Y-4929276D01*
X120396Y-4916678D01*
X121513Y-4912664D01*
X124307Y-4899558D01*
X124866Y-4895443D01*
X125831Y-4882083D01*
X125831Y-4877917D01*
X124866Y-4864506D01*
X124307Y-4860442D01*
X121513Y-4847285D01*
X120396Y-4843322D01*
X115773Y-4830724D01*
X114096Y-4826914D01*
X107797Y-4815078D01*
X105613Y-4811572D01*
X97739Y-4800701D01*
X95046Y-4797501D01*
X85750Y-4787849D01*
X82651Y-4785106D01*
X72085Y-4776825D01*
X68630Y-4774539D01*
X56997Y-4767834D01*
X53289Y-4766005D01*
X40843Y-4760976D01*
X36931Y-4759706D01*
X23876Y-4756454D01*
X19812Y-4755743D01*
X6451Y-4754321D01*
X2336Y-4754168D01*
X-11074Y-4754626D01*
X-15189Y-4755083D01*
X-28448Y-4757420D01*
X-32461Y-4758385D01*
X-45212Y-4762550D01*
X-49072Y-4764125D01*
X-61112Y-4769967D01*
X-64719Y-4772050D01*
X-75844Y-4779568D01*
X-79095Y-4782108D01*
X-89052Y-4791100D01*
X-91948Y-4794097D01*
X-100584Y-4804359D01*
X-103022Y-4807712D01*
X-110134Y-4819091D01*
X-112064Y-4822748D01*
X-117551Y-4834991D01*
X-118922Y-4838903D01*
X-122631Y-4851806D01*
X-123494Y-4855870D01*
X-125374Y-4869129D01*
X-125679Y-4873294D01*
X-125679Y-4886706D01*
X-125374Y-4890820D01*
X-123494Y-4904130D01*
X-122631Y-4908194D01*
X-118922Y-4921097D01*
X-117551Y-4924958D01*
X-112064Y-4937252D01*
X-110134Y-4940909D01*
X-103022Y-4952288D01*
X-100584Y-4955641D01*
X-91948Y-4965903D01*
X-89052Y-4968900D01*
X-79095Y-4977841D01*
X-75844Y-4980432D01*
X-64719Y-4987899D01*
X-61112Y-4989982D01*
X-49072Y-4995875D01*
X-45212Y-4997450D01*
X-32461Y-5001564D01*
X-28448Y-5002580D01*
X-15189Y-5004917D01*
X-11074Y-5005324D01*
G37*
G36*
X1300022Y-4950866D02*
G01*
X1319377Y-4949952D01*
X1338580Y-4947158D01*
X1357426Y-4942484D01*
X1375765Y-4936032D01*
X1393342Y-4927854D01*
X1410106Y-4918049D01*
X1425803Y-4906619D01*
X1440332Y-4893767D01*
X1453540Y-4879543D01*
X1465326Y-4864100D01*
X1475587Y-4847640D01*
X1484172Y-4830216D01*
X1491081Y-4812080D01*
X1496161Y-4793335D01*
X1499412Y-4774184D01*
X1500835Y-4754829D01*
X1500378Y-4735423D01*
X1498041Y-4716170D01*
X1493824Y-4697222D01*
X1487830Y-4678730D01*
X1480108Y-4660950D01*
X1470660Y-4643983D01*
X1459636Y-4628032D01*
X1447088Y-4613198D01*
X1433220Y-4599635D01*
X1418082Y-4587443D01*
X1401826Y-4576826D01*
X1384655Y-4567783D01*
X1366672Y-4560468D01*
X1348079Y-4554931D01*
X1329029Y-4551222D01*
X1309725Y-4549343D01*
X1290269Y-4549343D01*
X1270965Y-4551222D01*
X1251915Y-4554931D01*
X1233322Y-4560468D01*
X1215339Y-4567783D01*
X1198168Y-4576826D01*
X1181912Y-4587443D01*
X1166774Y-4599635D01*
X1152906Y-4613198D01*
X1140358Y-4628032D01*
X1129334Y-4643983D01*
X1119886Y-4660950D01*
X1112164Y-4678730D01*
X1106170Y-4697222D01*
X1101953Y-4716170D01*
X1099616Y-4735423D01*
X1099159Y-4754829D01*
X1100582Y-4774184D01*
X1103833Y-4793335D01*
X1108913Y-4812080D01*
X1115822Y-4830216D01*
X1124407Y-4847640D01*
X1134668Y-4864100D01*
X1146454Y-4879543D01*
X1159662Y-4893767D01*
X1174191Y-4906619D01*
X1189888Y-4918049D01*
X1206652Y-4927854D01*
X1224229Y-4936032D01*
X1242568Y-4942484D01*
X1261414Y-4947158D01*
X1280617Y-4949952D01*
G37*
G36*
X649986Y-4950866D02*
G01*
X669391Y-4949952D01*
X688594Y-4947158D01*
X707440Y-4942484D01*
X725779Y-4936032D01*
X743356Y-4927854D01*
X760069Y-4918049D01*
X775817Y-4906619D01*
X790346Y-4893767D01*
X803554Y-4879543D01*
X815340Y-4864100D01*
X825550Y-4847640D01*
X834186Y-4830216D01*
X841044Y-4812080D01*
X846175Y-4793335D01*
X849426Y-4774184D01*
X850849Y-4754829D01*
X850392Y-4735423D01*
X848004Y-4716170D01*
X843838Y-4697222D01*
X837844Y-4678730D01*
X830071Y-4660950D01*
X820674Y-4643983D01*
X809650Y-4628032D01*
X797102Y-4613198D01*
X783234Y-4599635D01*
X768096Y-4587443D01*
X751840Y-4576826D01*
X734669Y-4567783D01*
X716686Y-4560468D01*
X698093Y-4554931D01*
X679043Y-4551222D01*
X659688Y-4549343D01*
X640283Y-4549343D01*
X620979Y-4551222D01*
X601929Y-4554931D01*
X583336Y-4560468D01*
X565353Y-4567783D01*
X548132Y-4576826D01*
X531926Y-4587443D01*
X516788Y-4599635D01*
X502869Y-4613198D01*
X490372Y-4628032D01*
X479348Y-4643983D01*
X469900Y-4660950D01*
X462178Y-4678730D01*
X456184Y-4697222D01*
X451967Y-4716170D01*
X449630Y-4735423D01*
X449173Y-4754829D01*
X450545Y-4774184D01*
X453847Y-4793335D01*
X458927Y-4812080D01*
X465835Y-4830216D01*
X474421Y-4847640D01*
X484682Y-4864100D01*
X496468Y-4879543D01*
X509676Y-4893767D01*
X524205Y-4906619D01*
X539902Y-4918049D01*
X556615Y-4927854D01*
X574243Y-4936032D01*
X592531Y-4942484D01*
X611378Y-4947158D01*
X630631Y-4949952D01*
G37*
G36*
X556158Y-4427575D02*
G01*
X556158Y-4343857D01*
X472592Y-4343857D01*
X474421Y-4347616D01*
X484682Y-4364126D01*
X496468Y-4379518D01*
X509676Y-4393742D01*
X524205Y-4406646D01*
X539902Y-4418025D01*
G37*
G36*
X1393850Y-4427575D02*
G01*
X1410106Y-4418025D01*
X1425803Y-4406646D01*
X1440332Y-4393742D01*
X1453540Y-4379518D01*
X1465326Y-4364126D01*
X1475587Y-4347616D01*
X1477416Y-4343857D01*
X1393850Y-4343857D01*
G37*
G36*
X743864Y-4427575D02*
G01*
X760069Y-4418025D01*
X775817Y-4406646D01*
X790346Y-4393742D01*
X803554Y-4379518D01*
X815340Y-4364126D01*
X825550Y-4347616D01*
X827430Y-4343857D01*
X743864Y-4343857D01*
G37*
G36*
X1206144Y-4427575D02*
G01*
X1206144Y-4343857D01*
X1122578Y-4343857D01*
X1124407Y-4347616D01*
X1134668Y-4364126D01*
X1146454Y-4379518D01*
X1159662Y-4393742D01*
X1174191Y-4406646D01*
X1189888Y-4418025D01*
G37*
G36*
X1122578Y-4156151D02*
G01*
X1206144Y-4156151D01*
X1206144Y-4072636D01*
X1198168Y-4076801D01*
X1181912Y-4087469D01*
X1166774Y-4099610D01*
X1152906Y-4113174D01*
X1140358Y-4128008D01*
X1129334Y-4144010D01*
G37*
G36*
X472592Y-4156151D02*
G01*
X556158Y-4156151D01*
X556158Y-4072636D01*
X548132Y-4076801D01*
X531926Y-4087469D01*
X516788Y-4099610D01*
X502869Y-4113174D01*
X490372Y-4128008D01*
X479348Y-4144010D01*
G37*
G36*
X1393850Y-4156151D02*
G01*
X1477416Y-4156151D01*
X1470660Y-4144010D01*
X1459636Y-4128008D01*
X1447088Y-4113174D01*
X1433220Y-4099610D01*
X1418082Y-4087469D01*
X1401826Y-4076801D01*
X1393850Y-4072636D01*
G37*
G36*
X743864Y-4156151D02*
G01*
X827430Y-4156151D01*
X820674Y-4144010D01*
X809650Y-4128008D01*
X797102Y-4113174D01*
X783234Y-4099610D01*
X768096Y-4087469D01*
X751840Y-4076801D01*
X743864Y-4072636D01*
G37*
G36*
X474980Y-3890873D02*
G01*
X486511Y-3890060D01*
X497789Y-3887622D01*
X508609Y-3883558D01*
X518718Y-3878021D01*
X527964Y-3871112D01*
X536143Y-3862933D01*
X541883Y-3855262D01*
X544626Y-3852722D01*
X548132Y-3851401D01*
X551891Y-3851401D01*
X555345Y-3852722D01*
X558139Y-3855262D01*
X563880Y-3862933D01*
X572058Y-3871112D01*
X581253Y-3878021D01*
X591413Y-3883558D01*
X602234Y-3887622D01*
X613511Y-3890060D01*
X624992Y-3890873D01*
X636524Y-3890060D01*
X647801Y-3887622D01*
X658622Y-3883558D01*
X668731Y-3878021D01*
X677976Y-3871112D01*
X686155Y-3862933D01*
X691845Y-3855313D01*
X694639Y-3852773D01*
X698144Y-3851401D01*
X701852Y-3851401D01*
X705358Y-3852773D01*
X708152Y-3855313D01*
X713841Y-3862933D01*
X722020Y-3871112D01*
X731266Y-3878021D01*
X741375Y-3883558D01*
X752195Y-3887622D01*
X763473Y-3890060D01*
X775004Y-3890873D01*
X786485Y-3890060D01*
X797763Y-3887622D01*
X808583Y-3883558D01*
X818743Y-3878021D01*
X827938Y-3871112D01*
X836117Y-3862933D01*
X841857Y-3855262D01*
X844651Y-3852722D01*
X848106Y-3851401D01*
X851865Y-3851401D01*
X855370Y-3852722D01*
X858113Y-3855262D01*
X863853Y-3862933D01*
X872032Y-3871112D01*
X881278Y-3878021D01*
X891387Y-3883558D01*
X902208Y-3887622D01*
X913485Y-3890060D01*
X925017Y-3890873D01*
X936498Y-3890060D01*
X947775Y-3887622D01*
X958596Y-3883558D01*
X968756Y-3878021D01*
X977950Y-3871112D01*
X986129Y-3862933D01*
X991869Y-3855313D01*
X994613Y-3852773D01*
X998118Y-3851401D01*
X1001877Y-3851401D01*
X1005382Y-3852773D01*
X1008126Y-3855313D01*
X1013866Y-3862933D01*
X1022045Y-3871112D01*
X1031240Y-3878021D01*
X1041400Y-3883558D01*
X1052220Y-3887622D01*
X1063498Y-3890060D01*
X1074978Y-3890873D01*
X1086510Y-3890060D01*
X1097788Y-3887622D01*
X1108608Y-3883558D01*
X1118717Y-3878021D01*
X1127963Y-3871112D01*
X1136142Y-3862933D01*
X1141831Y-3855313D01*
X1144625Y-3852773D01*
X1148130Y-3851401D01*
X1151839Y-3851401D01*
X1155344Y-3852773D01*
X1158138Y-3855313D01*
X1163828Y-3862933D01*
X1172006Y-3871112D01*
X1181252Y-3878021D01*
X1191361Y-3883558D01*
X1202182Y-3887622D01*
X1213459Y-3890060D01*
X1224991Y-3890873D01*
X1236472Y-3890060D01*
X1247749Y-3887622D01*
X1258570Y-3883558D01*
X1268730Y-3878021D01*
X1277924Y-3871112D01*
X1286103Y-3862933D01*
X1291844Y-3855262D01*
X1294638Y-3852722D01*
X1298092Y-3851401D01*
X1301851Y-3851401D01*
X1305356Y-3852722D01*
X1308100Y-3855262D01*
X1313840Y-3862933D01*
X1322019Y-3871112D01*
X1331264Y-3878021D01*
X1341374Y-3883558D01*
X1352194Y-3887622D01*
X1363472Y-3890060D01*
X1375003Y-3890873D01*
X1386484Y-3890060D01*
X1397762Y-3887622D01*
X1408582Y-3883558D01*
X1418742Y-3878021D01*
X1427937Y-3871112D01*
X1436116Y-3862933D01*
X1441856Y-3855262D01*
X1444650Y-3852722D01*
X1448104Y-3851401D01*
X1451864Y-3851401D01*
X1455369Y-3852722D01*
X1458112Y-3855262D01*
X1463852Y-3862933D01*
X1472031Y-3871112D01*
X1481277Y-3878021D01*
X1491386Y-3883558D01*
X1502206Y-3887622D01*
X1513484Y-3890060D01*
X1525016Y-3890873D01*
X1536496Y-3890060D01*
X1547774Y-3887622D01*
X1558594Y-3883558D01*
X1568754Y-3878021D01*
X1577949Y-3871112D01*
X1586128Y-3862933D01*
X1593037Y-3853738D01*
X1598574Y-3843578D01*
X1602587Y-3832758D01*
X1605076Y-3821480D01*
X1605889Y-3809644D01*
X1605889Y-3790340D01*
X1605076Y-3778504D01*
X1602587Y-3767226D01*
X1598574Y-3756406D01*
X1594104Y-3748176D01*
X1592884Y-3744163D01*
X1593392Y-3740048D01*
X1595526Y-3736441D01*
X1598930Y-3734003D01*
X1602994Y-3733139D01*
X1632508Y-3733139D01*
X1641195Y-3732276D01*
X1649120Y-3729888D01*
X1656384Y-3726027D01*
X1663141Y-3720439D01*
X1725472Y-3658158D01*
X1731010Y-3651402D01*
X1734921Y-3644087D01*
X1737309Y-3636213D01*
X1738172Y-3627475D01*
X1738172Y-3380486D01*
X1737309Y-3371799D01*
X1734921Y-3363874D01*
X1731010Y-3356610D01*
X1725472Y-3349853D01*
X1701495Y-3325876D01*
X1699361Y-3322777D01*
X1698548Y-3319068D01*
X1699107Y-3315360D01*
X1700987Y-3312058D01*
X1703933Y-3309721D01*
X1707540Y-3308604D01*
X1713484Y-3307943D01*
X1718970Y-3306013D01*
X1723847Y-3302914D01*
X1727962Y-3298850D01*
X1731010Y-3293922D01*
X1732940Y-3288487D01*
X1733651Y-3282187D01*
X1733651Y-3125825D01*
X1732940Y-3119526D01*
X1731010Y-3114040D01*
X1727962Y-3109163D01*
X1723847Y-3105048D01*
X1718970Y-3101949D01*
X1713484Y-3100070D01*
X1707184Y-3099358D01*
X1550822Y-3099358D01*
X1544523Y-3100070D01*
X1539036Y-3101949D01*
X1534160Y-3105048D01*
X1530045Y-3109163D01*
X1526946Y-3114040D01*
X1525066Y-3119526D01*
X1524355Y-3125825D01*
X1524355Y-3282187D01*
X1525066Y-3288487D01*
X1526946Y-3293922D01*
X1530045Y-3298850D01*
X1534160Y-3302914D01*
X1539036Y-3306013D01*
X1544523Y-3307943D01*
X1550822Y-3308654D01*
X1577238Y-3308654D01*
X1580896Y-3309315D01*
X1584096Y-3311296D01*
X1586331Y-3314242D01*
X1587347Y-3317798D01*
X1587703Y-3321202D01*
X1590090Y-3329127D01*
X1594002Y-3336391D01*
X1599539Y-3343148D01*
X1650847Y-3394456D01*
X1653082Y-3397758D01*
X1653844Y-3401669D01*
X1653844Y-3606342D01*
X1653082Y-3610203D01*
X1650847Y-3613505D01*
X1618488Y-3645865D01*
X1615236Y-3648049D01*
X1611325Y-3648811D01*
X1484477Y-3648811D01*
X1475790Y-3649675D01*
X1467866Y-3652113D01*
X1460601Y-3655974D01*
X1453845Y-3661511D01*
X1405991Y-3709415D01*
X1403248Y-3711346D01*
X1399997Y-3712311D01*
X1396644Y-3712159D01*
X1386484Y-3709924D01*
X1375003Y-3709111D01*
X1363472Y-3709924D01*
X1352194Y-3712362D01*
X1341374Y-3716426D01*
X1331264Y-3721963D01*
X1322019Y-3728872D01*
X1313840Y-3737051D01*
X1308100Y-3744722D01*
X1305356Y-3747262D01*
X1301851Y-3748582D01*
X1298092Y-3748582D01*
X1294638Y-3747262D01*
X1291844Y-3744722D01*
X1286103Y-3737051D01*
X1277924Y-3728872D01*
X1268730Y-3721963D01*
X1258570Y-3716426D01*
X1247749Y-3712362D01*
X1236472Y-3709924D01*
X1224991Y-3709111D01*
X1213459Y-3709924D01*
X1202182Y-3712362D01*
X1200150Y-3713124D01*
X1196390Y-3713784D01*
X1192631Y-3712972D01*
X1189431Y-3710787D01*
X1064107Y-3585514D01*
X1061923Y-3582212D01*
X1061161Y-3578301D01*
X1061161Y-2054656D01*
X1061923Y-2050796D01*
X1064107Y-2047493D01*
X1170482Y-1941118D01*
X1173784Y-1938934D01*
X1177696Y-1938121D01*
X1214170Y-1938121D01*
X1218082Y-1938934D01*
X1221384Y-1941118D01*
X1223568Y-1944420D01*
X1224330Y-1948281D01*
X1224330Y-1974189D01*
X1225042Y-1980488D01*
X1226972Y-1985924D01*
X1230071Y-1990852D01*
X1234135Y-1994916D01*
X1239062Y-1998014D01*
X1244498Y-1999945D01*
X1250848Y-2000656D01*
X1407160Y-2000656D01*
X1413510Y-1999945D01*
X1418945Y-1998014D01*
X1423873Y-1994916D01*
X1427937Y-1990852D01*
X1431036Y-1985924D01*
X1432915Y-1980488D01*
X1433626Y-1974189D01*
X1433626Y-1855165D01*
X1434439Y-1851253D01*
X1436624Y-1848002D01*
X1457452Y-1827123D01*
X1460754Y-1824939D01*
X1464665Y-1824177D01*
X1514195Y-1824177D01*
X1518056Y-1824939D01*
X1521358Y-1827123D01*
X1523593Y-1830425D01*
X1524355Y-1834337D01*
X1524355Y-1974189D01*
X1525066Y-1980488D01*
X1526946Y-1985924D01*
X1530045Y-1990852D01*
X1534160Y-1994916D01*
X1539036Y-1998014D01*
X1544523Y-1999945D01*
X1550822Y-2000656D01*
X1707184Y-2000656D01*
X1713484Y-1999945D01*
X1718970Y-1998014D01*
X1723847Y-1994916D01*
X1727962Y-1990852D01*
X1731010Y-1985924D01*
X1732940Y-1980488D01*
X1733651Y-1974189D01*
X1733651Y-1853895D01*
X1734261Y-1850491D01*
X1739900Y-1840077D01*
X1742287Y-1832203D01*
X1743151Y-1823466D01*
X1743151Y-1560474D01*
X1742287Y-1551787D01*
X1739900Y-1543862D01*
X1735988Y-1536598D01*
X1730451Y-1529842D01*
X1608886Y-1408277D01*
X1606702Y-1404975D01*
X1605889Y-1401064D01*
X1605889Y-1390345D01*
X1605076Y-1378508D01*
X1602587Y-1367231D01*
X1598574Y-1356410D01*
X1593037Y-1346250D01*
X1586128Y-1337056D01*
X1577949Y-1328877D01*
X1568754Y-1321968D01*
X1558594Y-1316431D01*
X1547774Y-1312367D01*
X1536496Y-1309928D01*
X1525016Y-1309116D01*
X1513484Y-1309928D01*
X1502206Y-1312367D01*
X1491386Y-1316431D01*
X1481277Y-1321968D01*
X1472031Y-1328877D01*
X1463852Y-1337056D01*
X1458112Y-1344726D01*
X1455369Y-1347266D01*
X1451864Y-1348587D01*
X1448104Y-1348587D01*
X1444650Y-1347266D01*
X1441856Y-1344726D01*
X1436116Y-1337056D01*
X1427937Y-1328877D01*
X1418742Y-1321968D01*
X1408582Y-1316431D01*
X1397762Y-1312367D01*
X1386484Y-1309928D01*
X1375003Y-1309116D01*
X1363472Y-1309928D01*
X1352194Y-1312367D01*
X1341374Y-1316431D01*
X1331264Y-1321968D01*
X1322019Y-1328877D01*
X1313840Y-1337056D01*
X1308100Y-1344726D01*
X1305356Y-1347266D01*
X1301851Y-1348587D01*
X1298092Y-1348587D01*
X1294638Y-1347266D01*
X1291844Y-1344726D01*
X1286103Y-1337056D01*
X1277924Y-1328877D01*
X1268730Y-1321968D01*
X1258570Y-1316431D01*
X1247749Y-1312367D01*
X1236472Y-1309928D01*
X1224991Y-1309116D01*
X1213459Y-1309928D01*
X1202182Y-1312367D01*
X1191361Y-1316431D01*
X1181252Y-1321968D01*
X1172006Y-1328877D01*
X1163828Y-1337056D01*
X1158138Y-1344676D01*
X1155344Y-1347216D01*
X1151839Y-1348587D01*
X1148130Y-1348587D01*
X1144625Y-1347216D01*
X1141831Y-1344676D01*
X1136142Y-1337056D01*
X1127963Y-1328877D01*
X1118717Y-1321968D01*
X1108608Y-1316431D01*
X1097788Y-1312367D01*
X1086510Y-1309928D01*
X1074978Y-1309116D01*
X1063498Y-1309928D01*
X1052220Y-1312367D01*
X1041400Y-1316431D01*
X1031240Y-1321968D01*
X1022045Y-1328877D01*
X1013866Y-1337056D01*
X1008126Y-1344676D01*
X1005382Y-1347216D01*
X1001877Y-1348587D01*
X998118Y-1348587D01*
X994613Y-1347216D01*
X991869Y-1344676D01*
X986129Y-1337056D01*
X977950Y-1328877D01*
X968756Y-1321968D01*
X958596Y-1316431D01*
X947775Y-1312367D01*
X936498Y-1309928D01*
X925017Y-1309116D01*
X913485Y-1309928D01*
X902208Y-1312367D01*
X891387Y-1316431D01*
X881278Y-1321968D01*
X872032Y-1328877D01*
X863853Y-1337056D01*
X858113Y-1344726D01*
X855370Y-1347266D01*
X851865Y-1348587D01*
X848106Y-1348587D01*
X844651Y-1347266D01*
X841857Y-1344726D01*
X836117Y-1337056D01*
X827938Y-1328877D01*
X818743Y-1321968D01*
X808583Y-1316431D01*
X797763Y-1312367D01*
X786485Y-1309928D01*
X775004Y-1309116D01*
X763473Y-1309928D01*
X752195Y-1312367D01*
X741375Y-1316431D01*
X731266Y-1321968D01*
X722020Y-1328877D01*
X713841Y-1337056D01*
X708152Y-1344676D01*
X705358Y-1347216D01*
X701852Y-1348587D01*
X698144Y-1348587D01*
X694639Y-1347216D01*
X691845Y-1344676D01*
X686155Y-1337056D01*
X677976Y-1328877D01*
X668731Y-1321968D01*
X658622Y-1316431D01*
X647801Y-1312367D01*
X636524Y-1309928D01*
X624992Y-1309116D01*
X613511Y-1309928D01*
X602234Y-1312367D01*
X591413Y-1316431D01*
X581253Y-1321968D01*
X572058Y-1328877D01*
X563880Y-1337056D01*
X558139Y-1344726D01*
X555345Y-1347266D01*
X551891Y-1348587D01*
X548132Y-1348587D01*
X544626Y-1347266D01*
X541883Y-1344726D01*
X536143Y-1337056D01*
X527964Y-1328877D01*
X518718Y-1321968D01*
X508609Y-1316431D01*
X497789Y-1312367D01*
X486511Y-1309928D01*
X474980Y-1309116D01*
X463499Y-1309928D01*
X452221Y-1312367D01*
X441401Y-1316431D01*
X431241Y-1321968D01*
X422046Y-1328877D01*
X413867Y-1337056D01*
X406958Y-1346250D01*
X401421Y-1356410D01*
X397408Y-1367231D01*
X394919Y-1378508D01*
X394106Y-1390345D01*
X394106Y-1409649D01*
X394512Y-1415897D01*
X393903Y-1420164D01*
X391566Y-1423822D01*
X232562Y-1582826D01*
X226974Y-1589633D01*
X223113Y-1596898D01*
X220675Y-1604772D01*
X219862Y-1613509D01*
X219862Y-1805482D01*
X220675Y-1814220D01*
X223113Y-1822094D01*
X226974Y-1829409D01*
X232562Y-1836166D01*
X277368Y-1880971D01*
X279552Y-1884273D01*
X280365Y-1888185D01*
X280365Y-1974189D01*
X281076Y-1980488D01*
X282956Y-1985924D01*
X286054Y-1990852D01*
X290169Y-1994916D01*
X295046Y-1998014D01*
X300482Y-1999945D01*
X306832Y-2000656D01*
X463143Y-2000656D01*
X469493Y-1999945D01*
X474929Y-1998014D01*
X479856Y-1994916D01*
X483920Y-1990852D01*
X487019Y-1985924D01*
X488950Y-1980488D01*
X489661Y-1974189D01*
X489661Y-1824329D01*
X490423Y-1820418D01*
X492607Y-1817116D01*
X495909Y-1814931D01*
X499821Y-1814169D01*
X539343Y-1814169D01*
X543204Y-1814931D01*
X546506Y-1817116D01*
X577392Y-1848002D01*
X579577Y-1851253D01*
X580339Y-1855165D01*
X580339Y-1974189D01*
X581050Y-1980488D01*
X582980Y-1985924D01*
X586028Y-1990852D01*
X590143Y-1994916D01*
X595020Y-1998014D01*
X600506Y-1999945D01*
X606806Y-2000656D01*
X763168Y-2000656D01*
X769467Y-1999945D01*
X774954Y-1998014D01*
X779830Y-1994916D01*
X783945Y-1990852D01*
X787044Y-1985924D01*
X788924Y-1980488D01*
X789635Y-1974189D01*
X789635Y-1948281D01*
X790397Y-1944420D01*
X792632Y-1941118D01*
X795934Y-1938934D01*
X799795Y-1938121D01*
X805332Y-1938121D01*
X809193Y-1938934D01*
X812495Y-1941118D01*
X917854Y-2046478D01*
X920089Y-2049780D01*
X920851Y-2053640D01*
X920851Y-3590340D01*
X920089Y-3594201D01*
X917854Y-3597503D01*
X805992Y-3709415D01*
X803249Y-3711346D01*
X799998Y-3712311D01*
X796645Y-3712159D01*
X786485Y-3709924D01*
X775004Y-3709111D01*
X763473Y-3709924D01*
X752195Y-3712362D01*
X741375Y-3716426D01*
X731266Y-3721963D01*
X722020Y-3728872D01*
X713841Y-3737051D01*
X708152Y-3744671D01*
X705358Y-3747211D01*
X701852Y-3748582D01*
X698144Y-3748582D01*
X694639Y-3747211D01*
X691845Y-3744671D01*
X686155Y-3737051D01*
X677976Y-3728872D01*
X668731Y-3721963D01*
X658622Y-3716426D01*
X647801Y-3712362D01*
X636524Y-3709924D01*
X624992Y-3709111D01*
X613511Y-3709924D01*
X604367Y-3711905D01*
X600964Y-3712057D01*
X597712Y-3711092D01*
X594969Y-3709111D01*
X555498Y-3668826D01*
X548741Y-3663187D01*
X541528Y-3659225D01*
X533654Y-3656787D01*
X524510Y-3655822D01*
X390702Y-3655822D01*
X386791Y-3655060D01*
X383540Y-3652875D01*
X325069Y-3594557D01*
X322834Y-3591255D01*
X322072Y-3587394D01*
X322072Y-3330549D01*
X322834Y-3326688D01*
X325069Y-3323386D01*
X336854Y-3311601D01*
X340156Y-3309416D01*
X344017Y-3308654D01*
X463143Y-3308654D01*
X469493Y-3307943D01*
X474929Y-3306013D01*
X479856Y-3302914D01*
X483920Y-3298850D01*
X487019Y-3293922D01*
X488950Y-3288487D01*
X489661Y-3282187D01*
X489661Y-3125825D01*
X488950Y-3119526D01*
X487019Y-3114040D01*
X483920Y-3109163D01*
X479856Y-3105048D01*
X474929Y-3101949D01*
X469493Y-3100070D01*
X463143Y-3099358D01*
X306832Y-3099358D01*
X300482Y-3100070D01*
X295046Y-3101949D01*
X290169Y-3105048D01*
X286054Y-3109163D01*
X282956Y-3114040D01*
X281076Y-3119526D01*
X280365Y-3125825D01*
X280365Y-3244646D01*
X279552Y-3248558D01*
X277368Y-3251860D01*
X250494Y-3278682D01*
X244906Y-3285439D01*
X241046Y-3292703D01*
X238607Y-3300577D01*
X237744Y-3309315D01*
X237744Y-3608578D01*
X238607Y-3617315D01*
X240995Y-3625189D01*
X244906Y-3632504D01*
X250444Y-3639261D01*
X338937Y-3727500D01*
X345643Y-3732987D01*
X352958Y-3736898D01*
X360832Y-3739286D01*
X369570Y-3740150D01*
X393192Y-3740150D01*
X397256Y-3741013D01*
X400659Y-3743451D01*
X402793Y-3747008D01*
X403301Y-3751173D01*
X397408Y-3767226D01*
X394919Y-3778504D01*
X394106Y-3790340D01*
X394106Y-3809644D01*
X394919Y-3821480D01*
X397408Y-3832758D01*
X401421Y-3843578D01*
X406958Y-3853738D01*
X413867Y-3862933D01*
X422046Y-3871112D01*
X431241Y-3878021D01*
X441401Y-3883558D01*
X452221Y-3887622D01*
X463499Y-3890060D01*
G37*
G36*
X1250848Y-3308654D02*
G01*
X1407160Y-3308654D01*
X1413510Y-3307943D01*
X1418945Y-3306013D01*
X1423873Y-3302914D01*
X1427937Y-3298850D01*
X1431036Y-3293922D01*
X1432915Y-3288487D01*
X1433626Y-3282187D01*
X1433626Y-3125825D01*
X1432915Y-3119526D01*
X1431036Y-3114040D01*
X1427937Y-3109163D01*
X1423873Y-3105048D01*
X1418945Y-3101949D01*
X1413510Y-3100070D01*
X1407160Y-3099358D01*
X1250848Y-3099358D01*
X1244498Y-3100070D01*
X1239062Y-3101949D01*
X1234135Y-3105048D01*
X1230071Y-3109163D01*
X1226972Y-3114040D01*
X1225042Y-3119526D01*
X1224330Y-3125825D01*
X1224330Y-3282187D01*
X1225042Y-3288487D01*
X1226972Y-3293922D01*
X1230071Y-3298850D01*
X1234135Y-3302914D01*
X1239062Y-3306013D01*
X1244498Y-3307943D01*
G37*
G36*
X606806Y-3308654D02*
G01*
X763168Y-3308654D01*
X769467Y-3307943D01*
X774954Y-3306013D01*
X779830Y-3302914D01*
X783945Y-3298850D01*
X787044Y-3293922D01*
X788924Y-3288487D01*
X789635Y-3282187D01*
X789635Y-3125825D01*
X788924Y-3119526D01*
X787044Y-3114040D01*
X783945Y-3109163D01*
X779830Y-3105048D01*
X774954Y-3101949D01*
X769467Y-3100070D01*
X763168Y-3099358D01*
X606806Y-3099358D01*
X600506Y-3100070D01*
X595020Y-3101949D01*
X590143Y-3105048D01*
X586028Y-3109163D01*
X582980Y-3114040D01*
X581050Y-3119526D01*
X580339Y-3125825D01*
X580339Y-3282187D01*
X581050Y-3288487D01*
X582980Y-3293922D01*
X586028Y-3298850D01*
X590143Y-3302914D01*
X595020Y-3306013D01*
X600506Y-3307943D01*
G37*
G36*
X1283258Y-3043834D02*
G01*
X1283258Y-2995726D01*
X1235151Y-2995726D01*
X1238402Y-3002330D01*
X1245971Y-3013710D01*
X1255014Y-3023971D01*
X1265326Y-3033014D01*
X1276705Y-3040583D01*
G37*
G36*
X1583283Y-3043834D02*
G01*
X1583283Y-2995726D01*
X1535125Y-2995726D01*
X1538376Y-3002330D01*
X1545996Y-3013710D01*
X1555038Y-3023971D01*
X1565300Y-3033014D01*
X1576679Y-3040583D01*
G37*
G36*
X339293Y-3043834D02*
G01*
X339293Y-2995726D01*
X291134Y-2995726D01*
X294386Y-3002330D01*
X302006Y-3013710D01*
X310997Y-3023971D01*
X321310Y-3033014D01*
X332689Y-3040583D01*
G37*
G36*
X639267Y-3043834D02*
G01*
X639267Y-2995726D01*
X591159Y-2995726D01*
X594410Y-3002330D01*
X601980Y-3013710D01*
X611022Y-3023971D01*
X621284Y-3033014D01*
X632663Y-3040583D01*
G37*
G36*
X1374698Y-3043834D02*
G01*
X1381302Y-3040583D01*
X1392682Y-3033014D01*
X1402994Y-3023971D01*
X1411986Y-3013710D01*
X1419606Y-3002330D01*
X1422857Y-2995726D01*
X1374698Y-2995726D01*
G37*
G36*
X430733Y-3043834D02*
G01*
X437286Y-3040583D01*
X448665Y-3033014D01*
X458978Y-3023971D01*
X468020Y-3013710D01*
X475589Y-3002330D01*
X478840Y-2995726D01*
X430733Y-2995726D01*
G37*
G36*
X730707Y-3043834D02*
G01*
X737311Y-3040583D01*
X748690Y-3033014D01*
X759002Y-3023971D01*
X767994Y-3013710D01*
X775614Y-3002330D01*
X778865Y-2995726D01*
X730707Y-2995726D01*
G37*
G36*
X1674723Y-3043834D02*
G01*
X1681327Y-3040583D01*
X1692706Y-3033014D01*
X1702968Y-3023971D01*
X1712010Y-3013710D01*
X1719580Y-3002330D01*
X1722831Y-2995726D01*
X1674723Y-2995726D01*
G37*
G36*
X1235151Y-2904286D02*
G01*
X1283258Y-2904286D01*
X1283258Y-2856128D01*
X1276705Y-2859379D01*
X1265326Y-2866999D01*
X1255014Y-2875991D01*
X1245971Y-2886303D01*
X1238402Y-2897682D01*
G37*
G36*
X1674723Y-2904286D02*
G01*
X1722831Y-2904286D01*
X1719580Y-2897682D01*
X1712010Y-2886303D01*
X1702968Y-2875991D01*
X1692706Y-2866999D01*
X1681327Y-2859379D01*
X1674723Y-2856128D01*
G37*
G36*
X291134Y-2904286D02*
G01*
X339293Y-2904286D01*
X339293Y-2856128D01*
X332689Y-2859379D01*
X321310Y-2866999D01*
X310997Y-2875991D01*
X302006Y-2886303D01*
X294386Y-2897682D01*
G37*
G36*
X591159Y-2904286D02*
G01*
X639267Y-2904286D01*
X639267Y-2856128D01*
X632663Y-2859379D01*
X621284Y-2866999D01*
X611022Y-2875991D01*
X601980Y-2886303D01*
X594410Y-2897682D01*
G37*
G36*
X1374698Y-2904286D02*
G01*
X1422857Y-2904286D01*
X1419606Y-2897682D01*
X1411986Y-2886303D01*
X1402994Y-2875991D01*
X1392682Y-2866999D01*
X1381302Y-2859379D01*
X1374698Y-2856128D01*
G37*
G36*
X430733Y-2904286D02*
G01*
X478840Y-2904286D01*
X475589Y-2897682D01*
X468020Y-2886303D01*
X458978Y-2875991D01*
X448665Y-2866999D01*
X437286Y-2859379D01*
X430733Y-2856128D01*
G37*
G36*
X1535125Y-2904286D02*
G01*
X1583283Y-2904286D01*
X1583283Y-2856128D01*
X1576679Y-2859379D01*
X1565300Y-2866999D01*
X1555038Y-2875991D01*
X1545996Y-2886303D01*
X1538376Y-2897682D01*
G37*
G36*
X730707Y-2904286D02*
G01*
X778865Y-2904286D01*
X775614Y-2897682D01*
X767994Y-2886303D01*
X759002Y-2875991D01*
X748690Y-2866999D01*
X737311Y-2859379D01*
X730707Y-2856128D01*
G37*
G36*
X684987Y-2800604D02*
G01*
X698652Y-2799740D01*
X712063Y-2797048D01*
X725017Y-2792679D01*
X737311Y-2786583D01*
X748690Y-2779014D01*
X759002Y-2769971D01*
X767994Y-2759710D01*
X775614Y-2748330D01*
X781659Y-2736037D01*
X786079Y-2723083D01*
X788720Y-2709672D01*
X789635Y-2696006D01*
X788720Y-2682341D01*
X786079Y-2668930D01*
X781659Y-2655976D01*
X775614Y-2643682D01*
X767994Y-2632303D01*
X759002Y-2621991D01*
X748690Y-2612999D01*
X737311Y-2605379D01*
X725017Y-2599334D01*
X712063Y-2594914D01*
X698652Y-2592273D01*
X684987Y-2591358D01*
X671322Y-2592273D01*
X657910Y-2594914D01*
X644956Y-2599334D01*
X632663Y-2605379D01*
X621284Y-2612999D01*
X611022Y-2621991D01*
X601980Y-2632303D01*
X594410Y-2643682D01*
X588314Y-2655976D01*
X583946Y-2668930D01*
X581253Y-2682341D01*
X580390Y-2696006D01*
X581253Y-2709672D01*
X583946Y-2723083D01*
X588314Y-2736037D01*
X594410Y-2748330D01*
X601980Y-2759710D01*
X611022Y-2769971D01*
X621284Y-2779014D01*
X632663Y-2786583D01*
X644956Y-2792679D01*
X657910Y-2797048D01*
X671322Y-2799740D01*
G37*
G36*
X385013Y-2800604D02*
G01*
X398678Y-2799740D01*
X412089Y-2797048D01*
X425043Y-2792679D01*
X437286Y-2786583D01*
X448665Y-2779014D01*
X458978Y-2769971D01*
X468020Y-2759710D01*
X475589Y-2748330D01*
X481634Y-2736037D01*
X486054Y-2723083D01*
X488746Y-2709672D01*
X489610Y-2696006D01*
X488746Y-2682341D01*
X486054Y-2668930D01*
X481634Y-2655976D01*
X475589Y-2643682D01*
X468020Y-2632303D01*
X458978Y-2621991D01*
X448665Y-2612999D01*
X437286Y-2605379D01*
X425043Y-2599334D01*
X412089Y-2594914D01*
X398678Y-2592273D01*
X385013Y-2591358D01*
X371348Y-2592273D01*
X357936Y-2594914D01*
X344982Y-2599334D01*
X332689Y-2605379D01*
X321310Y-2612999D01*
X310997Y-2621991D01*
X302006Y-2632303D01*
X294386Y-2643682D01*
X288340Y-2655976D01*
X283921Y-2668930D01*
X281279Y-2682341D01*
X280365Y-2696006D01*
X281279Y-2709672D01*
X283921Y-2723083D01*
X288340Y-2736037D01*
X294386Y-2748330D01*
X302006Y-2759710D01*
X310997Y-2769971D01*
X321310Y-2779014D01*
X332689Y-2786583D01*
X344982Y-2792679D01*
X357936Y-2797048D01*
X371348Y-2799740D01*
G37*
G36*
X1328978Y-2800604D02*
G01*
X1342644Y-2799740D01*
X1356055Y-2797048D01*
X1369060Y-2792679D01*
X1381302Y-2786583D01*
X1392682Y-2779014D01*
X1402994Y-2769971D01*
X1411986Y-2759710D01*
X1419606Y-2748330D01*
X1425651Y-2736037D01*
X1430070Y-2723083D01*
X1432712Y-2709672D01*
X1433626Y-2696006D01*
X1432712Y-2682341D01*
X1430070Y-2668930D01*
X1425651Y-2655976D01*
X1419606Y-2643682D01*
X1411986Y-2632303D01*
X1402994Y-2621991D01*
X1392682Y-2612999D01*
X1381302Y-2605379D01*
X1369060Y-2599334D01*
X1356055Y-2594914D01*
X1342644Y-2592273D01*
X1328978Y-2591358D01*
X1315364Y-2592273D01*
X1301902Y-2594914D01*
X1288948Y-2599334D01*
X1276705Y-2605379D01*
X1265326Y-2612999D01*
X1255014Y-2621991D01*
X1245971Y-2632303D01*
X1238402Y-2643682D01*
X1232357Y-2655976D01*
X1227937Y-2668930D01*
X1225245Y-2682341D01*
X1224381Y-2696006D01*
X1225245Y-2709672D01*
X1227937Y-2723083D01*
X1232357Y-2736037D01*
X1238402Y-2748330D01*
X1245971Y-2759710D01*
X1255014Y-2769971D01*
X1265326Y-2779014D01*
X1276705Y-2786583D01*
X1288948Y-2792679D01*
X1301902Y-2797048D01*
X1315364Y-2799740D01*
G37*
G36*
X1629003Y-2800604D02*
G01*
X1642668Y-2799740D01*
X1656080Y-2797048D01*
X1669034Y-2792679D01*
X1681327Y-2786583D01*
X1692706Y-2779014D01*
X1702968Y-2769971D01*
X1712010Y-2759710D01*
X1719580Y-2748330D01*
X1725675Y-2736037D01*
X1730044Y-2723083D01*
X1732737Y-2709672D01*
X1733600Y-2696006D01*
X1732737Y-2682341D01*
X1730044Y-2668930D01*
X1725675Y-2655976D01*
X1719580Y-2643682D01*
X1712010Y-2632303D01*
X1702968Y-2621991D01*
X1692706Y-2612999D01*
X1681327Y-2605379D01*
X1669034Y-2599334D01*
X1656080Y-2594914D01*
X1642668Y-2592273D01*
X1629003Y-2591358D01*
X1615338Y-2592273D01*
X1601927Y-2594914D01*
X1588973Y-2599334D01*
X1576679Y-2605379D01*
X1565300Y-2612999D01*
X1555038Y-2621991D01*
X1545996Y-2632303D01*
X1538376Y-2643682D01*
X1532331Y-2655976D01*
X1527911Y-2668930D01*
X1525270Y-2682341D01*
X1524355Y-2696006D01*
X1525270Y-2709672D01*
X1527911Y-2723083D01*
X1532331Y-2736037D01*
X1538376Y-2748330D01*
X1545996Y-2759710D01*
X1555038Y-2769971D01*
X1565300Y-2779014D01*
X1576679Y-2786583D01*
X1588973Y-2792679D01*
X1601927Y-2797048D01*
X1615338Y-2799740D01*
G37*
G36*
X1328978Y-2508605D02*
G01*
X1342644Y-2507742D01*
X1356055Y-2505049D01*
X1369060Y-2500680D01*
X1381302Y-2494584D01*
X1392682Y-2487015D01*
X1402994Y-2477973D01*
X1411986Y-2467711D01*
X1419606Y-2456332D01*
X1425651Y-2444038D01*
X1430070Y-2431084D01*
X1432712Y-2417673D01*
X1433626Y-2404008D01*
X1432712Y-2390343D01*
X1430070Y-2376932D01*
X1425651Y-2363978D01*
X1419606Y-2351684D01*
X1411986Y-2340305D01*
X1402994Y-2329992D01*
X1392682Y-2321001D01*
X1381302Y-2313381D01*
X1369060Y-2307336D01*
X1356055Y-2302916D01*
X1342644Y-2300274D01*
X1328978Y-2299360D01*
X1315364Y-2300274D01*
X1301902Y-2302916D01*
X1288948Y-2307336D01*
X1276705Y-2313381D01*
X1265326Y-2321001D01*
X1255014Y-2329992D01*
X1245971Y-2340305D01*
X1238402Y-2351684D01*
X1232357Y-2363978D01*
X1227937Y-2376932D01*
X1225245Y-2390343D01*
X1224381Y-2404008D01*
X1225245Y-2417673D01*
X1227937Y-2431084D01*
X1232357Y-2444038D01*
X1238402Y-2456332D01*
X1245971Y-2467711D01*
X1255014Y-2477973D01*
X1265326Y-2487015D01*
X1276705Y-2494584D01*
X1288948Y-2500680D01*
X1301902Y-2505049D01*
X1315364Y-2507742D01*
G37*
G36*
X1629003Y-2508605D02*
G01*
X1642668Y-2507742D01*
X1656080Y-2505049D01*
X1669034Y-2500680D01*
X1681327Y-2494584D01*
X1692706Y-2487015D01*
X1702968Y-2477973D01*
X1712010Y-2467711D01*
X1719580Y-2456332D01*
X1725675Y-2444038D01*
X1730044Y-2431084D01*
X1732737Y-2417673D01*
X1733600Y-2404008D01*
X1732737Y-2390343D01*
X1730044Y-2376932D01*
X1725675Y-2363978D01*
X1719580Y-2351684D01*
X1712010Y-2340305D01*
X1702968Y-2329992D01*
X1692706Y-2321001D01*
X1681327Y-2313381D01*
X1669034Y-2307336D01*
X1656080Y-2302916D01*
X1642668Y-2300274D01*
X1629003Y-2299360D01*
X1615338Y-2300274D01*
X1601927Y-2302916D01*
X1588973Y-2307336D01*
X1576679Y-2313381D01*
X1565300Y-2321001D01*
X1555038Y-2329992D01*
X1545996Y-2340305D01*
X1538376Y-2351684D01*
X1532331Y-2363978D01*
X1527911Y-2376932D01*
X1525270Y-2390343D01*
X1524355Y-2404008D01*
X1525270Y-2417673D01*
X1527911Y-2431084D01*
X1532331Y-2444038D01*
X1538376Y-2456332D01*
X1545996Y-2467711D01*
X1555038Y-2477973D01*
X1565300Y-2487015D01*
X1576679Y-2494584D01*
X1588973Y-2500680D01*
X1601927Y-2505049D01*
X1615338Y-2507742D01*
G37*
G36*
X684987Y-2508605D02*
G01*
X698652Y-2507742D01*
X712063Y-2505049D01*
X725017Y-2500680D01*
X737311Y-2494584D01*
X748690Y-2487015D01*
X759002Y-2477973D01*
X767994Y-2467711D01*
X775614Y-2456332D01*
X781659Y-2444038D01*
X786079Y-2431084D01*
X788720Y-2417673D01*
X789635Y-2404008D01*
X788720Y-2390343D01*
X786079Y-2376932D01*
X781659Y-2363978D01*
X775614Y-2351684D01*
X767994Y-2340305D01*
X759002Y-2329992D01*
X748690Y-2321001D01*
X737311Y-2313381D01*
X725017Y-2307336D01*
X712063Y-2302916D01*
X698652Y-2300274D01*
X684987Y-2299360D01*
X671322Y-2300274D01*
X657910Y-2302916D01*
X644956Y-2307336D01*
X632663Y-2313381D01*
X621284Y-2321001D01*
X611022Y-2329992D01*
X601980Y-2340305D01*
X594410Y-2351684D01*
X588314Y-2363978D01*
X583946Y-2376932D01*
X581253Y-2390343D01*
X580390Y-2404008D01*
X581253Y-2417673D01*
X583946Y-2431084D01*
X588314Y-2444038D01*
X594410Y-2456332D01*
X601980Y-2467711D01*
X611022Y-2477973D01*
X621284Y-2487015D01*
X632663Y-2494584D01*
X644956Y-2500680D01*
X657910Y-2505049D01*
X671322Y-2507742D01*
G37*
G36*
X385013Y-2508605D02*
G01*
X398678Y-2507742D01*
X412089Y-2505049D01*
X425043Y-2500680D01*
X437286Y-2494584D01*
X448665Y-2487015D01*
X458978Y-2477973D01*
X468020Y-2467711D01*
X475589Y-2456332D01*
X481634Y-2444038D01*
X486054Y-2431084D01*
X488746Y-2417673D01*
X489610Y-2404008D01*
X488746Y-2390343D01*
X486054Y-2376932D01*
X481634Y-2363978D01*
X475589Y-2351684D01*
X468020Y-2340305D01*
X458978Y-2329992D01*
X448665Y-2321001D01*
X437286Y-2313381D01*
X425043Y-2307336D01*
X412089Y-2302916D01*
X398678Y-2300274D01*
X385013Y-2299360D01*
X371348Y-2300274D01*
X357936Y-2302916D01*
X344982Y-2307336D01*
X332689Y-2313381D01*
X321310Y-2321001D01*
X310997Y-2329992D01*
X302006Y-2340305D01*
X294386Y-2351684D01*
X288340Y-2363978D01*
X283921Y-2376932D01*
X281279Y-2390343D01*
X280365Y-2404008D01*
X281279Y-2417673D01*
X283921Y-2431084D01*
X288340Y-2444038D01*
X294386Y-2456332D01*
X302006Y-2467711D01*
X310997Y-2477973D01*
X321310Y-2487015D01*
X332689Y-2494584D01*
X344982Y-2500680D01*
X357936Y-2505049D01*
X371348Y-2507742D01*
G37*
G36*
X1583283Y-2243836D02*
G01*
X1583283Y-2195728D01*
X1535125Y-2195728D01*
X1538376Y-2202332D01*
X1545996Y-2213711D01*
X1555038Y-2223973D01*
X1565300Y-2233015D01*
X1576679Y-2240584D01*
G37*
G36*
X639267Y-2243836D02*
G01*
X639267Y-2195728D01*
X591159Y-2195728D01*
X594410Y-2202332D01*
X601980Y-2213711D01*
X611022Y-2223973D01*
X621284Y-2233015D01*
X632663Y-2240584D01*
G37*
G36*
X339293Y-2243836D02*
G01*
X339293Y-2195728D01*
X291134Y-2195728D01*
X294386Y-2202332D01*
X302006Y-2213711D01*
X310997Y-2223973D01*
X321310Y-2233015D01*
X332689Y-2240584D01*
G37*
G36*
X1283258Y-2243836D02*
G01*
X1283258Y-2195728D01*
X1235151Y-2195728D01*
X1238402Y-2202332D01*
X1245971Y-2213711D01*
X1255014Y-2223973D01*
X1265326Y-2233015D01*
X1276705Y-2240584D01*
G37*
G36*
X1374698Y-2243836D02*
G01*
X1381302Y-2240584D01*
X1392682Y-2233015D01*
X1402994Y-2223973D01*
X1411986Y-2213711D01*
X1419606Y-2202332D01*
X1422857Y-2195728D01*
X1374698Y-2195728D01*
G37*
G36*
X430733Y-2243836D02*
G01*
X437286Y-2240584D01*
X448665Y-2233015D01*
X458978Y-2223973D01*
X468020Y-2213711D01*
X475589Y-2202332D01*
X478840Y-2195728D01*
X430733Y-2195728D01*
G37*
G36*
X1674723Y-2243836D02*
G01*
X1681327Y-2240584D01*
X1692706Y-2233015D01*
X1702968Y-2223973D01*
X1712010Y-2213711D01*
X1719580Y-2202332D01*
X1722831Y-2195728D01*
X1674723Y-2195728D01*
G37*
G36*
X730707Y-2243836D02*
G01*
X737311Y-2240584D01*
X748690Y-2233015D01*
X759002Y-2223973D01*
X767994Y-2213711D01*
X775614Y-2202332D01*
X778865Y-2195728D01*
X730707Y-2195728D01*
G37*
G36*
X591159Y-2104288D02*
G01*
X639267Y-2104288D01*
X639267Y-2056130D01*
X632663Y-2059381D01*
X621284Y-2067001D01*
X611022Y-2075992D01*
X601980Y-2086305D01*
X594410Y-2097684D01*
G37*
G36*
X1535125Y-2104288D02*
G01*
X1583283Y-2104288D01*
X1583283Y-2056130D01*
X1576679Y-2059381D01*
X1565300Y-2067001D01*
X1555038Y-2075992D01*
X1545996Y-2086305D01*
X1538376Y-2097684D01*
G37*
G36*
X430733Y-2104288D02*
G01*
X478840Y-2104288D01*
X475589Y-2097684D01*
X468020Y-2086305D01*
X458978Y-2075992D01*
X448665Y-2067001D01*
X437286Y-2059381D01*
X430733Y-2056130D01*
G37*
G36*
X291134Y-2104288D02*
G01*
X339293Y-2104288D01*
X339293Y-2056130D01*
X332689Y-2059381D01*
X321310Y-2067001D01*
X310997Y-2075992D01*
X302006Y-2086305D01*
X294386Y-2097684D01*
G37*
G36*
X730707Y-2104288D02*
G01*
X778865Y-2104288D01*
X775614Y-2097684D01*
X767994Y-2086305D01*
X759002Y-2075992D01*
X748690Y-2067001D01*
X737311Y-2059381D01*
X730707Y-2056130D01*
G37*
G36*
X1235151Y-2104288D02*
G01*
X1283258Y-2104288D01*
X1283258Y-2056130D01*
X1276705Y-2059381D01*
X1265326Y-2067001D01*
X1255014Y-2075992D01*
X1245971Y-2086305D01*
X1238402Y-2097684D01*
G37*
G36*
X1374698Y-2104288D02*
G01*
X1422857Y-2104288D01*
X1419606Y-2097684D01*
X1411986Y-2086305D01*
X1402994Y-2075992D01*
X1392682Y-2067001D01*
X1381302Y-2059381D01*
X1374698Y-2056130D01*
G37*
G36*
X1674723Y-2104288D02*
G01*
X1722831Y-2104288D01*
X1719580Y-2097684D01*
X1712010Y-2086305D01*
X1702968Y-2075992D01*
X1692706Y-2067001D01*
X1681327Y-2059381D01*
X1674723Y-2056130D01*
G37*
G36*
X1300022Y-1000912D02*
G01*
X1319377Y-999947D01*
X1338580Y-997153D01*
X1357426Y-992530D01*
X1375765Y-986078D01*
X1393342Y-977900D01*
X1410106Y-968044D01*
X1425803Y-956614D01*
X1440332Y-943762D01*
X1453540Y-929538D01*
X1465326Y-914095D01*
X1475587Y-897636D01*
X1484172Y-880211D01*
X1491081Y-862076D01*
X1496161Y-843330D01*
X1499412Y-824230D01*
X1500835Y-804875D01*
X1500378Y-785469D01*
X1498041Y-766165D01*
X1493824Y-747217D01*
X1487830Y-728776D01*
X1480108Y-710946D01*
X1470660Y-693978D01*
X1459636Y-678027D01*
X1447088Y-663194D01*
X1433220Y-649630D01*
X1418082Y-637489D01*
X1401826Y-626821D01*
X1384655Y-617829D01*
X1366672Y-610514D01*
X1348079Y-604926D01*
X1329029Y-601218D01*
X1309725Y-599338D01*
X1290269Y-599338D01*
X1270965Y-601218D01*
X1251915Y-604926D01*
X1233322Y-610514D01*
X1215339Y-617829D01*
X1198168Y-626821D01*
X1181912Y-637489D01*
X1166774Y-649630D01*
X1152906Y-663194D01*
X1140358Y-678027D01*
X1129334Y-693978D01*
X1119886Y-710946D01*
X1112164Y-728776D01*
X1106170Y-747217D01*
X1101953Y-766165D01*
X1099616Y-785469D01*
X1099159Y-804875D01*
X1100582Y-824230D01*
X1103833Y-843330D01*
X1108913Y-862076D01*
X1115822Y-880211D01*
X1124407Y-897636D01*
X1134668Y-914095D01*
X1146454Y-929538D01*
X1159662Y-943762D01*
X1174191Y-956614D01*
X1189888Y-968044D01*
X1206652Y-977900D01*
X1224229Y-986078D01*
X1242568Y-992530D01*
X1261414Y-997153D01*
X1280617Y-999947D01*
G37*
G36*
X649986Y-1000912D02*
G01*
X669391Y-999947D01*
X688594Y-997153D01*
X707440Y-992530D01*
X725779Y-986078D01*
X743356Y-977900D01*
X760069Y-968044D01*
X775817Y-956614D01*
X790346Y-943762D01*
X803554Y-929538D01*
X815340Y-914095D01*
X825550Y-897636D01*
X834186Y-880211D01*
X841044Y-862076D01*
X846175Y-843330D01*
X849426Y-824230D01*
X850849Y-804875D01*
X850392Y-785469D01*
X848004Y-766165D01*
X843838Y-747217D01*
X837844Y-728776D01*
X830071Y-710946D01*
X820674Y-693978D01*
X809650Y-678027D01*
X797102Y-663194D01*
X783234Y-649630D01*
X768096Y-637489D01*
X751840Y-626821D01*
X734669Y-617829D01*
X716686Y-610514D01*
X698093Y-604926D01*
X679043Y-601218D01*
X659688Y-599338D01*
X640283Y-599338D01*
X620979Y-601218D01*
X601929Y-604926D01*
X583336Y-610514D01*
X565353Y-617829D01*
X548132Y-626821D01*
X531926Y-637489D01*
X516788Y-649630D01*
X502869Y-663194D01*
X490372Y-678027D01*
X479348Y-693978D01*
X469900Y-710946D01*
X462178Y-728776D01*
X456184Y-747217D01*
X451967Y-766165D01*
X449630Y-785469D01*
X449173Y-804875D01*
X450545Y-824230D01*
X453847Y-843330D01*
X458927Y-862076D01*
X465835Y-880211D01*
X474421Y-897636D01*
X484682Y-914095D01*
X496468Y-929538D01*
X509676Y-943762D01*
X524205Y-956614D01*
X539902Y-968044D01*
X556615Y-977900D01*
X574243Y-986078D01*
X592531Y-992530D01*
X611378Y-997153D01*
X630631Y-999947D01*
G37*
G36*
X1393850Y-477621D02*
G01*
X1410106Y-468020D01*
X1425803Y-456641D01*
X1440332Y-443738D01*
X1453540Y-429564D01*
X1465326Y-414121D01*
X1475587Y-397662D01*
X1477416Y-393852D01*
X1393850Y-393852D01*
G37*
G36*
X556158Y-477621D02*
G01*
X556158Y-393852D01*
X472592Y-393852D01*
X474421Y-397662D01*
X484682Y-414121D01*
X496468Y-429564D01*
X509676Y-443738D01*
X524205Y-456641D01*
X539902Y-468020D01*
G37*
G36*
X1206144Y-477621D02*
G01*
X1206144Y-393852D01*
X1122578Y-393852D01*
X1124407Y-397662D01*
X1134668Y-414121D01*
X1146454Y-429564D01*
X1159662Y-443738D01*
X1174191Y-456641D01*
X1189888Y-468020D01*
G37*
G36*
X743864Y-477621D02*
G01*
X760069Y-468020D01*
X775817Y-456641D01*
X790346Y-443738D01*
X803554Y-429564D01*
X815340Y-414121D01*
X825550Y-397662D01*
X827430Y-393852D01*
X743864Y-393852D01*
G37*
G36*
X1977339Y-325831D02*
G01*
X1981454Y-325678D01*
X1994814Y-324256D01*
X1998878Y-323545D01*
X2011883Y-320294D01*
X2015845Y-319024D01*
X2028291Y-313994D01*
X2032000Y-312166D01*
X2043633Y-305460D01*
X2047087Y-303174D01*
X2057654Y-294894D01*
X2060752Y-292100D01*
X2070049Y-282448D01*
X2072690Y-279298D01*
X2080615Y-268427D01*
X2082800Y-264922D01*
X2089099Y-253085D01*
X2090775Y-249275D01*
X2095398Y-236677D01*
X2096516Y-232664D01*
X2099310Y-219557D01*
X2099868Y-215442D01*
X2100834Y-202082D01*
X2100834Y-197916D01*
X2099868Y-184556D01*
X2099310Y-180441D01*
X2096516Y-167335D01*
X2095398Y-163322D01*
X2090775Y-150723D01*
X2089099Y-146913D01*
X2082800Y-135077D01*
X2080615Y-131572D01*
X2072690Y-120700D01*
X2070049Y-117551D01*
X2060752Y-107899D01*
X2057654Y-105105D01*
X2047087Y-96824D01*
X2043633Y-94538D01*
X2032000Y-87833D01*
X2028291Y-86004D01*
X2015845Y-80975D01*
X2011883Y-79705D01*
X1998878Y-76454D01*
X1994814Y-75742D01*
X1981454Y-74320D01*
X1977339Y-74168D01*
X1963928Y-74625D01*
X1959762Y-75082D01*
X1946554Y-77419D01*
X1942541Y-78435D01*
X1929790Y-82550D01*
X1925929Y-84124D01*
X1913889Y-90017D01*
X1910283Y-92049D01*
X1899157Y-99568D01*
X1895906Y-102108D01*
X1885950Y-111099D01*
X1883054Y-114096D01*
X1874418Y-124358D01*
X1871980Y-127711D01*
X1864868Y-139090D01*
X1862937Y-142748D01*
X1857451Y-155041D01*
X1856028Y-158902D01*
X1852371Y-171805D01*
X1851507Y-175869D01*
X1849628Y-189179D01*
X1849323Y-193294D01*
X1849323Y-206705D01*
X1849628Y-210820D01*
X1851507Y-224129D01*
X1852371Y-228193D01*
X1856028Y-241096D01*
X1857451Y-244957D01*
X1862937Y-257251D01*
X1864868Y-260908D01*
X1871980Y-272288D01*
X1874418Y-275640D01*
X1883054Y-285902D01*
X1885950Y-288899D01*
X1895906Y-297891D01*
X1899157Y-300431D01*
X1910283Y-307949D01*
X1913889Y-309981D01*
X1925929Y-315874D01*
X1929790Y-317449D01*
X1942541Y-321564D01*
X1946554Y-322580D01*
X1959762Y-324916D01*
X1963928Y-325374D01*
G37*
G36*
X2336Y-325831D02*
G01*
X6451Y-325678D01*
X19812Y-324256D01*
X23876Y-323545D01*
X36931Y-320294D01*
X40843Y-319024D01*
X53289Y-313994D01*
X56997Y-312166D01*
X68630Y-305460D01*
X72085Y-303174D01*
X82651Y-294894D01*
X85750Y-292100D01*
X95046Y-282448D01*
X97739Y-279298D01*
X105613Y-268427D01*
X107797Y-264922D01*
X114096Y-253085D01*
X115773Y-249275D01*
X120396Y-236677D01*
X121513Y-232664D01*
X124307Y-219557D01*
X124866Y-215442D01*
X125831Y-202082D01*
X125831Y-197916D01*
X124866Y-184556D01*
X124307Y-180441D01*
X121513Y-167335D01*
X120396Y-163322D01*
X115773Y-150723D01*
X114096Y-146913D01*
X107797Y-135077D01*
X105613Y-131572D01*
X97739Y-120700D01*
X95046Y-117551D01*
X85750Y-107899D01*
X82651Y-105105D01*
X72085Y-96824D01*
X68630Y-94538D01*
X56997Y-87833D01*
X53289Y-86004D01*
X40843Y-80975D01*
X36931Y-79705D01*
X23876Y-76454D01*
X19812Y-75742D01*
X6451Y-74320D01*
X2336Y-74168D01*
X-11074Y-74625D01*
X-15189Y-75082D01*
X-28448Y-77419D01*
X-32461Y-78435D01*
X-45212Y-82550D01*
X-49072Y-84124D01*
X-61112Y-90017D01*
X-64719Y-92049D01*
X-75844Y-99568D01*
X-79095Y-102108D01*
X-89052Y-111099D01*
X-91948Y-114096D01*
X-100584Y-124358D01*
X-103022Y-127711D01*
X-110134Y-139090D01*
X-112064Y-142748D01*
X-117551Y-155041D01*
X-118922Y-158902D01*
X-122631Y-171805D01*
X-123494Y-175869D01*
X-125374Y-189179D01*
X-125679Y-193294D01*
X-125679Y-206705D01*
X-125374Y-210820D01*
X-123494Y-224129D01*
X-122631Y-228193D01*
X-118922Y-241096D01*
X-117551Y-244957D01*
X-112064Y-257251D01*
X-110134Y-260908D01*
X-103022Y-272288D01*
X-100584Y-275640D01*
X-91948Y-285902D01*
X-89052Y-288899D01*
X-79095Y-297891D01*
X-75844Y-300431D01*
X-64719Y-307949D01*
X-61112Y-309981D01*
X-49072Y-315874D01*
X-45212Y-317449D01*
X-32461Y-321564D01*
X-28448Y-322580D01*
X-15189Y-324916D01*
X-11074Y-325374D01*
G37*
G36*
X472592Y-206146D02*
G01*
X556158Y-206146D01*
X556158Y-122631D01*
X548132Y-126847D01*
X531926Y-137464D01*
X516788Y-149606D01*
X502869Y-163169D01*
X490372Y-178003D01*
X479348Y-194005D01*
G37*
G36*
X1122578Y-206146D02*
G01*
X1206144Y-206146D01*
X1206144Y-122631D01*
X1198168Y-126847D01*
X1181912Y-137464D01*
X1166774Y-149606D01*
X1152906Y-163169D01*
X1140358Y-178003D01*
X1129334Y-194005D01*
G37*
G36*
X743864Y-206146D02*
G01*
X827430Y-206146D01*
X820674Y-194005D01*
X809650Y-178003D01*
X797102Y-163169D01*
X783234Y-149606D01*
X768096Y-137464D01*
X751840Y-126847D01*
X743864Y-122631D01*
G37*
G36*
X1393850Y-206146D02*
G01*
X1477416Y-206146D01*
X1470660Y-194005D01*
X1459636Y-178003D01*
X1447088Y-163169D01*
X1433220Y-149606D01*
X1418082Y-137464D01*
X1401826Y-126847D01*
X1393850Y-122631D01*
G37*

%LPD*%
D10*
X1018997Y-3599992D02*
G01*
X1218996Y-3799992D01*
X1224991Y-3799992D01*
X1328996Y-1895982D02*
G01*
X1156009Y-1895982D01*
X1018997Y-2032995D01*
X1018997Y-3599992D01*
X775004Y-3799992D02*
G01*
X962997Y-3611999D01*
X962997Y-2031994D01*
X684997Y-1895982D02*
G01*
X826985Y-1895982D01*
X962997Y-2031994D01*
X1375003Y-3799992D02*
G01*
X1484002Y-3690993D01*
X1632996Y-3690993D01*
X1695996Y-3627993D01*
X1695996Y-3379993D01*
X1628995Y-3312993D01*
X1628995Y-3203981D01*
X385063Y-3203955D02*
G01*
X279907Y-3308857D01*
X279907Y-3609086D01*
X369062Y-3697986D01*
X525018Y-3697986D01*
X625094Y-3800094D01*
X684997Y-1895982D02*
G01*
X561009Y-1771995D01*
X359999Y-1771995D01*
X309999Y-1721995D01*
X309999Y-1654997D01*
X455000Y-1509996D01*
X665005Y-1509996D01*
X775004Y-1399997D01*
X1328996Y-1895982D02*
G01*
X1442984Y-1781995D01*
X1591995Y-1781995D01*
X1640997Y-1732993D01*
X1640997Y-1575996D01*
X1572999Y-1507997D01*
X1340998Y-1507997D01*
X1232997Y-1399997D01*
X1224991Y-1399997D01*
X1628995Y-1895982D02*
G01*
X1700997Y-1823981D01*
X1700997Y-1559996D01*
X1540997Y-1399997D01*
X1525015Y-1399997D01*
X475005Y-1399997D02*
G01*
X261998Y-1613004D01*
X261998Y-1805995D01*
X351985Y-1895982D01*
X384997Y-1895982D01*
X561009Y-1771995D02*
G01*
X778997Y-1771995D01*
X823998Y-1816996D01*
X823998Y-1895982D01*
X1156009Y-1895982D02*
G01*
X1156009Y-1854984D01*
X1236997Y-1773996D01*
X1442984Y-1773996D01*
D11*
G01*
X650011Y-299999D03*
G01*
X650011Y-799998D03*
G01*
X1299997Y-299999D03*
G01*
X1299997Y-799998D03*
G01*
X650011Y-4250004D03*
G01*
X650011Y-4750003D03*
G01*
X1299997Y-4250004D03*
G01*
X1299997Y-4750003D03*
D12*
G01*
X1525015Y-1399997D03*
G01*
X1375003Y-1399997D03*
G01*
X1224991Y-1399997D03*
G01*
X1075004Y-1399997D03*
G01*
X925017Y-1399997D03*
G01*
X775004Y-1399997D03*
G01*
X625017Y-1399997D03*
G01*
X475005Y-1399997D03*
G01*
X1525015Y-3799992D03*
G01*
X1375003Y-3799992D03*
G01*
X1224991Y-3799992D03*
G01*
X1075004Y-3799992D03*
G01*
X925017Y-3799992D03*
G01*
X775004Y-3799992D03*
G01*
X625017Y-3799992D03*
G01*
X475005Y-3799992D03*
D13*
G01*
X1629003Y-2403982D03*
G01*
X1629003Y-2149982D03*
D14*
G01*
X1629003Y-1896008D03*
D13*
G01*
X1629003Y-2696006D03*
G01*
X1629003Y-2950006D03*
D14*
G01*
X1629003Y-3203981D03*
D13*
G01*
X1329004Y-2403982D03*
G01*
X1329004Y-2149982D03*
D14*
G01*
X1329004Y-1896008D03*
D13*
G01*
X1329004Y-2696006D03*
G01*
X1329004Y-2950006D03*
D14*
G01*
X1329004Y-3203981D03*
D13*
G01*
X684987Y-2696006D03*
G01*
X684987Y-2950006D03*
D14*
G01*
X684987Y-3203981D03*
D13*
G01*
X684987Y-2403982D03*
G01*
X684987Y-2149982D03*
D14*
G01*
X684987Y-1896008D03*
D13*
G01*
X384987Y-2696006D03*
G01*
X384987Y-2950006D03*
D14*
G01*
X384987Y-3203981D03*
D13*
G01*
X384987Y-2403982D03*
G01*
X384987Y-2149982D03*
D14*
G01*
X384987Y-1896008D03*
M02*
